<?xml version="1.0" standalone="no"?>
<!DOCTYPE svg PUBLIC "-//W3C//DTD SVG 1.1//EN" "http://www.w3.org/Graphics/SVG/1.1/DTD/svg11.dtd" >
<svg xmlns="http://www.w3.org/2000/svg" xmlns:xlink="http://www.w3.org/1999/xlink" version="1.1">
<metadata></metadata>
<defs>
<font id="frontenac_small_capsregular" horiz-adv-x="924" >
<font-face units-per-em="2048" ascent="1638" descent="-410" />
<missing-glyph horiz-adv-x="550" />
<glyph horiz-adv-x="0" />
<glyph horiz-adv-x="682" />
<glyph unicode=" "  horiz-adv-x="550" />
<glyph unicode="&#x09;" horiz-adv-x="550" />
<glyph unicode="&#xa0;" horiz-adv-x="550" />
<glyph unicode="!" horiz-adv-x="386" d="M40 110q0 50 35 85t85 35t85 -35t35 -85t-35 -85t-85 -35t-85 35t-35 85zM50 1529h236q0 -203 -12.5 -468t-25.5 -429l-12 -163h-136q-50 604 -50 1060z" />
<glyph unicode="&#x22;" horiz-adv-x="680" d="M50 1529h205l-50 -460h-105zM375 1529h205l-50 -460h-105z" />
<glyph unicode="#" horiz-adv-x="1419" d="M100 445l32 180h200l57 320h-200l31 180h200l62 350h180l-62 -350h339l62 350h180l-62 -350h200l-31 -180h-200l-57 -320h200l-32 -180h-200l-78 -445h-180l78 445h-339l-78 -445h-180l78 445h-200zM512 625h339l57 320h-339z" />
<glyph unicode="$" horiz-adv-x="1129" d="M100 1119q0 155 116.5 254t283.5 111v154h130v-160q146 -20 258.5 -87t112.5 -146q0 -38 -38.5 -68.5t-76.5 -42.5l-38 -11q-36 87 -87 135t-131 64v-492q70 -33 117.5 -59.5t105.5 -69.5t93 -87t59 -108t24 -137q0 -83 -32.5 -151.5t-88.5 -114.5t-127 -74t-151 -36 v-193h-130v194q-89 10 -179 40.5t-153.5 78.5t-63.5 97q0 33 11.5 60t27.5 41.5t32 24.5t27 14l12 3q99 -175 286 -202v505q-70 33 -118 59.5t-106 70t-93 88t-59 108t-24 137.5zM280 1122q0 -72 56 -124t164 -106v436q-89 -11 -154.5 -69t-65.5 -137zM630 152 q92 16 155.5 73t63.5 141q0 72 -56 123.5t-163 104.5v-442z" />
<glyph unicode="%" horiz-adv-x="1675" d="M100 1113q0 164 81 268t232 104t231.5 -104.5t80.5 -270.5q0 -163 -80.5 -265.5t-228.5 -102.5q-151 0 -233.5 103.5t-82.5 267.5zM232 1113q0 -117 47 -193t136 -76q88 0 133 75.5t45 193.5t-45 194t-133 76q-89 0 -136 -76t-47 -194zM288 0l951 1475h153l-951 -1475 h-153zM950 363q0 164 81 268t232 104t231.5 -104.5t80.5 -270.5q0 -163 -80.5 -265.5t-228.5 -102.5q-151 0 -233.5 103.5t-82.5 267.5zM1082 363q0 -117 47 -193t136 -76q88 0 133 75.5t45 193.5t-45 194t-133 76q-89 0 -136 -76t-47 -194z" />
<glyph unicode="&#x26;" horiz-adv-x="1458" d="M100 366q0 237 281 383q-78 76 -125 174t-47 200q0 162 101.5 262t276.5 100q157 0 257 -101.5t100 -260.5q0 -130 -92 -240t-204 -141l350 -351q32 76 32 407h293v-100q-91 0 -120.5 -23.5t-29.5 -76.5q0 -208 -74 -305l88 -89q49 -50 93.5 -64.5t102.5 -14.5v-125h-251 l-140 142q-173 -152 -403 -152q-73 0 -143 14t-133 44.5t-110 74t-75 106.5t-28 137zM280 366q0 -107 90 -176.5t219 -69.5q108 0 178.5 29t124.5 92l-418 419q-80 -17 -137 -97.5t-57 -196.5zM389 1123q0 -135 167 -293q92 43 150 116t58 177q0 89 -48 159t-129 70 q-98 0 -148 -68t-50 -161z" />
<glyph unicode="'" horiz-adv-x="355" d="M50 1529h205l-50 -460h-105z" />
<glyph unicode="(" horiz-adv-x="599" d="M100 686q0 110 11 218.5t34.5 218.5t63.5 203.5t93.5 167t129.5 115t166 41.5v-119q-59 0 -108 -39t-83 -107t-59.5 -152.5t-40 -181.5t-21.5 -188t-7 -178q0 -105 9.5 -214t33.5 -223.5t59.5 -202.5t92 -144.5t125.5 -56.5v-119q-108 0 -195 60t-142.5 156.5t-93 224.5 t-53 257.5t-15.5 262.5z" />
<glyph unicode=")" horiz-adv-x="599" d="M0 -156q69 0 125.5 56.5t92 144.5t59.5 202.5t33.5 223.5t9.5 214q0 106 -9.5 215.5t-33.5 224.5t-59 204t-91.5 145.5t-126.5 56.5v119q108 0 195 -60t142.5 -157t93 -226t53 -258.5t15.5 -262.5t-15.5 -262.5t-53 -257.5t-93 -224.5t-142.5 -156.5t-195 -60v119z" />
<glyph unicode="*" horiz-adv-x="761" d="M50 1219q0 30 23 47t52 17q33 0 60.5 -18t55.5 -44.5t51 -37.5l48 -23l-8 51q-4 30 -25.5 81.5t-21.5 86.5q0 28 21.5 52t49.5 24t49 -24t21 -52q0 -35 -21.5 -86.5t-25.5 -81.5l-7 -51l48 23q23 11 51 37.5t55 44.5t60 18q29 0 52 -17t23 -47q0 -38 -31 -59.5t-76 -21.5 q-13 0 -39.5 2.5t-41.5 2.5q-12 0 -40 -4l-63 -12l45 -46q16 -17 57 -40t67 -49t26 -65q0 -28 -16.5 -48t-45.5 -20q-45 0 -67.5 32t-35.5 88.5t-23 74.5l-21 40l-22 -40q-10 -18 -23 -74.5t-35.5 -88.5t-67.5 -32q-29 0 -45.5 20t-16.5 48q0 39 25.5 65t67 49.5t57.5 39.5 l45 46l-63 12q-19 4 -40 4q-15 0 -41.5 -2.5t-39.5 -2.5q-45 0 -76 21.5t-31 59.5z" />
<glyph unicode="+" d="M100 545v180h272v297h180v-297h272v-180h-272v-297h-180v297h-272z" />
<glyph unicode="," horiz-adv-x="390" d="M50 110q0 50 35 85t85 35q52 0 86 -44.5t34 -125.5q0 -72 -42.5 -144.5t-126.5 -119.5l-41 66q93 83 97 128q-54 4 -90.5 32t-36.5 88z" />
<glyph unicode="-" d="M100 545v180h724v-180h-724z" />
<glyph unicode="." horiz-adv-x="390" d="M50 110q0 50 35 85t85 35t85 -35t35 -85t-35 -85t-85 -35t-85 35t-35 85z" />
<glyph unicode="/" horiz-adv-x="891" d="M-50 -58l814 1612h177l-814 -1612h-177z" />
<glyph unicode="0" horiz-adv-x="1189" d="M100 736q0 162 29 295.5t87.5 236.5t155.5 160t224 57q128 0 224.5 -57t154 -161t86 -238t28.5 -298q0 -161 -28.5 -293.5t-86.5 -233.5t-153.5 -157.5t-220.5 -56.5q-127 0 -224.5 56.5t-157 158.5t-89 235.5t-29.5 295.5zM279 735q0 -129 16.5 -233.5t52.5 -189.5 t99.5 -131.5t151.5 -46.5q311 0 311 603q0 103 -9.5 189.5t-32 164.5t-57.5 132.5t-89 86t-124 31.5q-71 0 -126.5 -31.5t-91 -86t-59 -132.5t-33 -165.5t-9.5 -190.5z" />
<glyph unicode="1" horiz-adv-x="830" d="M100 1120v105q54 22 104 55.5t83 66t58.5 62t36.5 47.5l12 19h136v-1250q0 -55 41 -77.5t159 -22.5v-125h-580v125q115 0 157.5 22.5t42.5 77.5v976q-12 -9 -33 -22.5t-86.5 -36t-130.5 -22.5z" />
<glyph unicode="2" horiz-adv-x="1120" d="M100 0v105q0 73 25.5 142.5t68.5 126t99 110.5t118 102t124 94t118 93t99 93t68.5 99t25.5 107q0 71 -13 118.5t-46.5 83t-92 51.5t-146.5 16q-56 0 -101 -21t-73 -50.5t-51 -78t-34.5 -88t-24.5 -95.5q-7 1 -17.5 3.5t-38.5 14t-49.5 27.5t-39 46t-17.5 67 q0 74 43 136.5t110.5 101t144.5 60t150 21.5q213 0 334 -102.5t121 -298.5q0 -98 -40 -189t-104 -162t-141 -136.5t-154.5 -122.5t-141.5 -108.5t-104 -106t-40 -104.5h515q55 0 77.5 31.5t22.5 118.5h125l-25 -305h-895z" />
<glyph unicode="3" horiz-adv-x="1115" d="M100 1206q0 59 31 108t79 79.5t109.5 52t119 30.5t109.5 9q203 0 322.5 -107.5t119.5 -301.5q0 -108 -51.5 -189t-134.5 -134q211 -115 211 -351q0 -183 -121 -297.5t-346 -114.5q-177 0 -310.5 76.5t-133.5 181.5q0 28 11.5 49.5t28 32t33 17t27.5 7.5l12 2 q26 -93 119 -147t213 -54q145 0 216.5 68t71.5 184q0 45 -9.5 82.5t-36 74t-69 61t-112 39.5t-161.5 15v145q94 0 160.5 13t105.5 34.5t61 56t29 69.5t7 84q0 125 -68.5 192.5t-196.5 67.5q-57 0 -101 -16.5t-73 -41.5t-51 -65.5t-34.5 -78.5t-24.5 -91q-7 1 -17.5 3.5 t-38.5 14t-49.5 27.5t-39 46t-17.5 67z" />
<glyph unicode="4" horiz-adv-x="1146" d="M100 398v106q270 494 640 971h155v-947h151v-130h-151v-173q0 -57 28 -78.5t122 -21.5v-125h-455v125q90 0 120 22t30 78v173h-640zM271 528h469v718q-261 -323 -469 -718z" />
<glyph unicode="5" horiz-adv-x="1081" d="M100 236q0 32 13 58t31 40.5t36.5 24t31.5 13.5l13 3q6 -44 36.5 -95t92 -93t135.5 -42q148 0 231 86.5t83 222.5q0 150 -79.5 233t-217.5 83q-173 0 -287 -66l-110 28l100 743h669l25 -295h-125q0 77 -21.5 113.5t-78.5 36.5h-331l-61 -444q8 4 23.5 10.5t71.5 17 t122 10.5q211 0 344.5 -130t133.5 -339q0 -205 -142.5 -335t-353.5 -130q-49 0 -110 13t-125 39.5t-107 77.5t-43 116z" />
<glyph unicode="6" horiz-adv-x="1147" d="M100 668q0 416 122.5 619t350.5 203q73 0 146 -14.5t136 -41t102 -69t39 -94.5q0 -37 -16.5 -64.5t-40.5 -40t-48 -19.5t-41 -8l-16 -1q-25 110 -94.5 161t-166.5 51q-136 0 -208 -148.5t-72 -420.5q122 168 278 168q129 0 239 -67.5t173.5 -180.5t63.5 -243 q0 -123 -59.5 -230.5t-163 -172.5t-225.5 -65q-101 0 -184.5 37.5t-141 101.5t-97 150.5t-58 184.5t-18.5 204zM290 512q0 -83 38.5 -166.5t111.5 -142t160 -58.5q112 0 189.5 90.5t77.5 222.5q0 157 -84.5 246.5t-212.5 89.5q-117 0 -198.5 -75t-81.5 -207z" />
<glyph unicode="7" horiz-adv-x="1120" d="M100 1170l25 305h895v-155q-192 -401 -311.5 -708t-175.5 -612h-179q103 397 214.5 714.5t271.5 605.5h-515q-55 0 -77.5 -31.5t-22.5 -118.5h-125z" />
<glyph unicode="8" horiz-adv-x="1161" d="M100 386q0 254 260 385q-89 55 -149.5 142.5t-60.5 200.5q0 84 36.5 155.5t97.5 118t138 72t159 25.5q81 0 158 -25.5t137.5 -71.5t97.5 -116.5t37 -154.5q0 -114 -62.5 -203t-154.5 -144q267 -134 267 -391q0 -75 -25.5 -139t-70 -109.5t-104.5 -77.5t-128.5 -47.5 t-141.5 -15.5q-96 0 -182.5 25t-156 72t-111 124.5t-41.5 174.5zM280 389q0 -86 45 -143t111 -79t149 -22q60 0 111 12.5t93.5 39t67 74t24.5 111.5q0 63 -38.5 120t-96 94.5t-115 62t-106.5 33.5q-52 -22 -92.5 -47t-77 -61t-56 -85.5t-19.5 -109.5zM330 1113 q0 -58 31 -109t79.5 -84t95.5 -54t90 -30q90 41 147.5 110t57.5 168q0 72 -38 122.5t-93 72t-119 21.5q-102 0 -176.5 -55.5t-74.5 -161.5z" />
<glyph unicode="9" horiz-adv-x="1147" d="M100 1022q0 188 131.5 326t316.5 138q101 0 184 -37t141 -100.5t97.5 -149.5t58 -183.5t18.5 -203.5q0 -103 -10 -197.5t-31.5 -189.5t-60 -171.5t-92 -137t-131 -93.5t-173.5 -33q-177 0 -298 71t-121 177q0 28 11.5 49.5t28 32t33 17t27.5 7.5l12 2q26 -95 108 -148 t199 -53q83 0 144 47t95 128.5t50 176t16 202.5q-122 -168 -278 -168q-129 0 -239 67.5t-173.5 180.5t-63.5 243zM280 1022q0 -157 84.5 -246.5t212.5 -89.5q117 0 198.5 75t81.5 207q0 160 -86.5 263.5t-223.5 103.5q-112 0 -189.5 -90.5t-77.5 -222.5z" />
<glyph unicode=":" horiz-adv-x="390" d="M50 110q0 50 35 85t85 35t85 -35t35 -85t-35 -85t-85 -35t-85 35t-35 85zM50 935q0 49 35 84.5t85 35.5t85 -35.5t35 -84.5t-35 -84.5t-85 -35.5t-85 35.5t-35 84.5z" />
<glyph unicode=";" horiz-adv-x="390" d="M50 110q0 50 35 85t85 35q52 0 86 -44.5t34 -125.5q0 -72 -42.5 -144.5t-126.5 -119.5l-41 66q93 83 97 128q-54 4 -90.5 32t-36.5 88zM50 935q0 49 35 84.5t85 35.5t85 -35.5t35 -84.5t-35 -84.5t-85 -35.5t-85 35.5t-35 84.5z" />
<glyph unicode="&#x3c;" horiz-adv-x="1130" d="M100 528v161l930 467v-201l-689 -346l689 -346v-202z" />
<glyph unicode="=" d="M100 370v180h724v-180h-724zM100 770v180h724v-180h-724z" />
<glyph unicode="&#x3e;" horiz-adv-x="1130" d="M100 61v202l689 346l-689 346v201l930 -467v-161z" />
<glyph unicode="?" horiz-adv-x="954" d="M50 1275q0 43 24.5 86t70.5 78.5t119.5 57.5t163.5 22q174 0 300 -126t126 -301q0 -148 -99.5 -254t-244.5 -139v-230h-154v347q141 0 229.5 84t88.5 190q0 102 -73 175.5t-174 73.5q-35 0 -64.5 -12t-49.5 -31.5t-36 -43t-25 -47t-15 -43t-8 -31.5l-2 -12q-95 0 -136 34 t-41 122zM316 110q0 50 35 85t85 35t85 -35t35 -85t-35 -85t-85 -35t-85 35t-35 85z" />
<glyph unicode="@" horiz-adv-x="2318" d="M100 480q0 213 87 408t232 335.5t343 224t411 83.5q165 0 322.5 -50.5t287 -143.5t228 -216.5t153 -278t54.5 -319.5q0 -103 -24 -200t-73 -180.5t-117 -146.5t-161 -98.5t-200 -35.5q-135 0 -220.5 60t-108.5 174q-140 -106 -309 -106q-168 0 -268 112t-100 294 q0 140 46.5 261.5t123.5 203t177 128t207 46.5q77 0 141 -30.5t90 -83.5l41 104h144l-135 -749q-11 -66 -11 -96q0 -78 50 -121t132 -43q93 0 170 44t125 116t74 161t26 184q0 170 -70.5 328t-187.5 273.5t-277 185t-330 69.5q-177 0 -342 -73.5t-285.5 -195.5t-193 -288 t-72.5 -343q0 -257 148.5 -477t380.5 -315v-168q-203 63 -364 204.5t-253 340t-92 418.5zM809 450q0 -119 67 -202t164 -83q148 0 240 119t92 370q0 206 -212 206q-151 0 -251 -116t-100 -294z" />
<glyph unicode="A" horiz-adv-x="1408" d="M0 0v125q76 0 104 12t48 63l406 1068q10 28 10 41q0 25 -30 33t-109 8v125h357l470 -1275q10 -26 25.5 -42.5t39 -23t40.5 -8t47 -1.5v-125h-468v125q63 0 96 12t33 42q0 14 -5 28l-126 342h-497l-131 -342q-10 -28 -10 -41q0 -25 30 -33t109 -8v-125h-439zM499 704h381 l-118 321q-17 48 -36 118t-30 117l-10 46q-26 -180 -64 -278z" />
<glyph unicode="B" horiz-adv-x="1222" d="M100 0v125q50 0 80.5 6t45.5 20.5t19.5 30.5t4.5 43v1025q0 35 -8.5 54.5t-42.5 32.5t-99 13v125h480q103 0 189.5 -22.5t155.5 -69t108 -125t39 -182.5q0 -221 -161 -323q211 -115 211 -351q0 -112 -40 -192t-115.5 -125t-170 -65t-216.5 -20h-480zM430 155h150 q75 0 125.5 5t99 20t76.5 42.5t45 73.5t17 111q0 135 -101.5 201t-261.5 66h-150v-519zM430 829h150q160 0 236.5 55.5t76.5 196.5q0 69 -24 117.5t-69 74t-98 36.5t-122 11h-150v-491z" />
<glyph unicode="C" horiz-adv-x="1293" d="M100 736q0 129 21 240t65.5 205.5t111 161.5t161.5 104.5t212 37.5q119 0 234 -46.5t189.5 -127.5t74.5 -170q0 -27 -19.5 -48t-46.5 -32t-54.5 -18t-46.5 -9l-20 -1q-29 127 -105 205t-204 78q-86 0 -151 -29t-106 -79.5t-66.5 -125.5t-35.5 -158.5t-10 -188.5 q0 -104 10.5 -186.5t37.5 -157.5t71 -124.5t113.5 -78.5t162.5 -29q73 0 140.5 33t115 86t80 113t46.5 119q5 0 12.5 -1t26.5 -8t34 -17.5t27 -32t12 -49.5q0 -59 -41.5 -131t-107.5 -134.5t-158.5 -104.5t-185.5 -42q-155 0 -272 56.5t-187.5 159t-105.5 235.5t-35 295z " />
<glyph unicode="D" horiz-adv-x="1322" d="M100 0v125q50 0 80.5 6t45.5 20.5t19.5 30.5t4.5 43v1025q0 35 -8.5 54.5t-42.5 32.5t-99 13v125h480q171 0 296.5 -53t200 -152.5t110 -231t35.5 -300.5q0 -166 -36 -297.5t-111.5 -232t-200.5 -154.5t-294 -54h-480zM430 154h150q110 0 192 29t133.5 78.5t82.5 126 t43 161.5t12 195q0 108 -12 191.5t-44 158t-83.5 122.5t-133 76t-190.5 28h-150v-1166z" />
<glyph unicode="E" horiz-adv-x="1195" d="M100 0v125q50 0 80.5 6t45.5 20.5t19.5 30.5t4.5 43v1025q0 35 -8.5 54.5t-42.5 32.5t-99 13v125h970l25 -305h-125q0 87 -22.5 118.5t-77.5 31.5h-440v-491h395v-155h-395v-519h440q55 0 77.5 31.5t22.5 118.5h125l-25 -305h-970z" />
<glyph unicode="F" horiz-adv-x="1145" d="M100 0v125q50 0 80.5 6t45.5 20.5t19.5 30.5t4.5 43v1025q0 35 -8.5 54.5t-42.5 32.5t-99 13v125h970l25 -305h-125q0 87 -22.5 118.5t-77.5 31.5h-440v-491h395v-155h-395v-448q0 -27 4.5 -43t19.5 -30.5t45.5 -20.5t80.5 -6v-126h-480z" />
<glyph unicode="G" horiz-adv-x="1368" d="M100 736q0 129 21 240t67 205.5t114.5 161.5t169 104.5t224.5 37.5q136 0 253 -36t193.5 -110t76.5 -173q0 -27 -16.5 -48t-40.5 -32t-48 -18t-40 -8l-17 -2q-28 125 -120 204t-239 79q-93 0 -165.5 -31.5t-119.5 -86t-77.5 -132.5t-43.5 -165.5t-13 -190.5 q0 -102 13 -189t44 -164.5t78 -131t119.5 -85t165.5 -31.5q81 0 153.5 18.5t103.5 37.5l32 18v269q0 40 -11.5 59t-55 30t-133.5 11v125h480v-125q-61 0 -80.5 -21.5t-19.5 -78.5v-350q-9 -6 -24.5 -15t-65.5 -32.5t-102 -41.5t-127.5 -33t-148.5 -15q-155 0 -272 56.5 t-187.5 159t-105.5 235.5t-35 295z" />
<glyph unicode="H" horiz-adv-x="1580" d="M100 0v125q6 0 16 0.5t36 4.5t46 11t36 22.5t16 36.5v1075q0 33 -37.5 52t-74.5 21l-38 2v125h480v-125q-6 0 -16 -0.5t-36 -4.5t-46 -11t-36 -22.5t-16 -36.5v-446h720v446q0 33 -37.5 52t-74.5 21l-38 2v125h480v-125q-6 0 -16 -0.5t-36 -4.5t-46 -11t-36 -22.5 t-16 -36.5v-1075q0 -33 37.5 -52t74.5 -21l38 -2v-125h-480v125q6 0 16 0.5t36 4.5t46 11t36 22.5t16 36.5v474h-720v-474q0 -33 37.5 -52t74.5 -21l38 -2v-125h-480z" />
<glyph unicode="I" horiz-adv-x="680" d="M100 0v125q90 0 120 22t30 78v1025q0 58 -28 79t-122 21v125h480v-125q-66 0 -98.5 -11t-42 -30t-9.5 -59v-1025q0 -57 28 -78.5t122 -21.5v-125h-480z" />
<glyph unicode="J" horiz-adv-x="893" d="M50 51v200q40 -40 106.5 -68.5t129.5 -28.5q82 0 129.5 53.5t47.5 168.5v874q0 58 -28 79t-122 21v125h480v-125q-66 0 -98.5 -11t-42 -30t-9.5 -59v-874q0 -168 -93 -277t-266 -109q-132 0 -234 61z" />
<glyph unicode="K" horiz-adv-x="1380" d="M100 0v125q69 0 101.5 10.5t40.5 29t8 60.5v1025q0 42 -8 60.5t-40.5 29t-101.5 10.5v125h480v-125q-88 0 -119 -21.5t-31 -78.5v-471l478 517q22 24 22 34q0 12 -24.5 16t-99.5 4v125h457v-125q-94 0 -126 -13.5t-100 -88.5l-355 -384q14 -13 38.5 -36t91.5 -94.5 t124.5 -143.5t121 -173t98.5 -192q38 -100 149 -100v-125h-477v125q83 0 121 14t38 46q0 19 -10 40q-34 78 -87 161t-104 146.5t-98 116t-76 80.5l-28 28l-154 -161v-371q0 -57 31 -78.5t119 -21.5v-125h-480z" />
<glyph unicode="L" horiz-adv-x="1195" d="M100 0v125q50 0 80.5 6t45.5 20.5t19.5 30.5t4.5 43v1025q0 35 -8.5 54.5t-42.5 32.5t-99 13v125h480v-125q-50 0 -81.5 -6.5t-45.5 -21.5t-18.5 -30.5t-4.5 -41.5v-1095h440q55 0 77.5 31.5t22.5 118.5h125l-25 -305h-970z" />
<glyph unicode="M" horiz-adv-x="1829" d="M100 0v125q6 0 16 0.5t36 4.5t46 11t36 22.5t16 36.5v1075q0 33 -37.5 52t-74.5 21l-38 2v125h377l373 -1035q20 -57 36 -113.5t22 -84.5l6 -28q13 86 62 220l378 1041h375v-125q-6 0 -16 -0.5t-36 -4.5t-46 -11t-36 -22.5t-16 -36.5v-1075q0 -33 37.5 -52t75.5 -21 l37 -2v-125h-480v125q6 0 16 0.5t36 4.5t46 11t36 22.5t16 36.5v1041q-25 -102 -54 -179l-385 -1062h-142l-383 1060q-15 41 -28.5 86t-20.5 70l-6 25v-1041q0 -33 37.5 -52t74.5 -21l38 -2v-125h-430z" />
<glyph unicode="N" horiz-adv-x="1480" d="M100 0v125q150 0 150 100v1025q0 53 -32.5 76.5t-117.5 23.5v125h408l541 -979q18 -32 37 -79t29 -77l10 -31v941q0 52 -33 76t-117 24v125h455v-125q-86 0 -118 -23.5t-32 -76.5v-1250h-162l-655 1184q-15 26 -29.5 64.5t-21.5 64.5l-7 26v-1114q0 -51 35 -75.5 t115 -24.5v-125h-455z" />
<glyph unicode="O" horiz-adv-x="1439" d="M100 736q0 130 21 240.5t68.5 205.5t118.5 161.5t176 104t237 37.5t237 -38t175.5 -104.5t117.5 -162.5t67.5 -207t20.5 -242q0 -129 -21 -238.5t-68 -203t-117.5 -159.5t-174 -103t-233.5 -37q-132 0 -237 37.5t-177 103.5t-120 160.5t-69.5 205t-21.5 239.5zM279 735 q0 -103 13 -189.5t45 -164t82 -131t127.5 -85t177.5 -31.5q436 0 436 603q0 604 -437 604q-444 0 -444 -606z" />
<glyph unicode="P" horiz-adv-x="1222" d="M100 0v125q50 0 80.5 6t45.5 20.5t19.5 30.5t4.5 43v1025q0 35 -8.5 54.5t-42.5 32.5t-99 13v125h480q90 0 168.5 -13.5t148 -44.5t119 -76.5t78 -113t28.5 -151.5q0 -83 -29 -150.5t-79.5 -113.5t-119.5 -77.5t-147.5 -46t-166.5 -14.5h-150v-448q0 -27 4.5 -43 t19.5 -30.5t45.5 -20.5t80.5 -6v-126h-480zM430 829h150q363 0 363 252q0 69 -28 117.5t-80.5 74t-114 36.5t-140.5 11h-150v-491z" />
<glyph unicode="Q" horiz-adv-x="1439" d="M100 736q0 130 21 240.5t68.5 205.5t118.5 161.5t176 104t237 37.5t237 -38t175.5 -104.5t117.5 -162.5t67.5 -207t20.5 -242q0 -153 -31 -279t-94.5 -226t-170.5 -160.5t-250 -72.5q-14 -33 -40.5 -63t-74.5 -74q79 0 136.5 -15t101.5 -29.5t90 -14.5q48 0 114.5 39 t118.5 99v-184q-46 -50 -120.5 -89.5t-112.5 -39.5q-41 0 -78.5 13.5t-62.5 29t-66.5 29t-89.5 13.5q-62 0 -107 -24t-93 -72l-53 98q54 50 111 133t89 151q-145 12 -254 73t-174 161.5t-96.5 227.5t-31.5 281zM279 735q0 -103 13 -189.5t45 -164t82 -131t127.5 -85 t177.5 -31.5q436 0 436 603q0 604 -437 604q-444 0 -444 -606z" />
<glyph unicode="R" horiz-adv-x="1280" d="M100 0v125q50 0 80.5 6t45.5 20.5t19.5 30.5t4.5 43v1025q0 35 -8.5 54.5t-42.5 32.5t-99 13v125h480q90 0 168.5 -13.5t148 -44.5t119 -76.5t78 -113t28.5 -151.5q0 -121 -74.5 -228t-177.5 -136q161 -192 161 -499q0 -46 36 -67t113 -21v-125h-312v125q0 101 -9 182.5 t-21 133.5t-35 100t-39.5 73.5t-45.5 62.5q-27 -3 -53 -3h-235v-448q0 -27 4.5 -43t19.5 -30.5t45.5 -20.5t80.5 -6v-126h-480zM430 829h150q363 0 363 252q0 69 -28 117.5t-80.5 74t-114 36.5t-140.5 11h-150v-491z" />
<glyph unicode="S" horiz-adv-x="1129" d="M104 210q0 33 11.5 60t27.5 41.5t32 24.5t27 14l12 3q118 -207 353 -207q110 0 196 60.5t86 159.5q0 46 -25 87.5t-66.5 74.5t-96 64.5t-114.5 63t-120 64.5t-114.5 74t-96 86.5t-66.5 107t-25 131.5q0 110 63 195t161.5 128t213.5 43q105 0 212 -32.5t179 -89.5t72 -118 q0 -38 -38 -68.5t-76 -42.5l-39 -11q-45 110 -117 158.5t-197 48.5q-98 0 -176 -60.5t-78 -147.5q0 -46 25 -87.5t66.5 -75t96 -65t114.5 -63t120 -64.5t114.5 -74t96 -86.5t66.5 -106.5t25 -131q0 -91 -39.5 -164.5t-105 -119.5t-148 -70.5t-171.5 -24.5t-196 29.5t-186 82 t-79 108.5z" />
<glyph unicode="T" horiz-adv-x="1160" d="M50 1170l25 305h1010l25 -305h-125q0 87 -22.5 118.5t-77.5 31.5h-215v-1094q0 -27 4.5 -43t19.5 -30.5t45.5 -20.5t80.5 -6v-126h-480v125q50 0 80.5 6t45.5 20.5t19.5 30.5t4.5 43v1095h-215q-55 0 -77.5 -31.5t-22.5 -118.5h-125z" />
<glyph unicode="U" horiz-adv-x="1405" d="M50 1350v125h480v-125q-84 0 -117 -23t-33 -77v-685q0 -406 319 -406q86 0 148 16.5t101 47t62 80.5t31.5 108t8.5 139v700q0 52 -34 76t-116 24v125h455v-125q-150 0 -150 -100v-600q0 -97 -4.5 -169t-18 -144.5t-37 -123t-61 -95t-90.5 -71.5t-126.5 -42t-167.5 -15 q-84 0 -150.5 10.5t-117 33.5t-88 53t-63 75.5t-41.5 93t-25 114t-12 130.5t-3 150v600q0 55 -33.5 77.5t-116.5 22.5z" />
<glyph unicode="V" horiz-adv-x="1408" d="M0 1350v125h468v-125q-63 0 -96 -12t-33 -42q0 -14 5 -28l302 -818q18 -48 37 -112t29 -104l10 -40q38 156 74 253l302 821q10 28 10 41q0 25 -30 33t-109 8v125h439v-125q-76 0 -104.5 -12t-47.5 -63l-470 -1275h-164l-470 1275q-10 26 -25.5 42.5t-39 23t-40.5 8 t-47 1.5z" />
<glyph unicode="W" horiz-adv-x="1769" d="M75 1350v125h442v-125q-63 0 -95 -12t-32 -42q0 -4 4 -28l131 -873l35 -221q23 150 44 223l216 755h142l195 -645q13 -43 27 -110t22 -113l8 -45q26 170 45 270l146 756q8 34 8 41q0 25 -28.5 33t-107.5 8v125h417v-125q-32 0 -48 -0.5t-37.5 -4.5t-32 -11.5t-20.5 -22 t-14 -36.5l-264 -1272h-172l-198 675q-13 44 -23 96t-13 82l-4 30q-12 -113 -40 -208l-195 -675h-194l-213 1275q-4 22 -15.5 36.5t-24.5 22t-35.5 11.5t-36.5 4.5t-39 0.5z" />
<glyph unicode="X" horiz-adv-x="1451" d="M75 0v125q64 0 97.5 15.5t66.5 59.5l392 526l-383 549q-31 44 -68 59.5t-98 15.5v125h474v-125q-72 0 -96 -6.5t-24 -26.5q0 -9 28 -49l277 -396l296 396q20 28 20 33q0 49 -129 49v125h443v-125q-69 0 -98 -13t-66 -62l-386 -517l389 -558q32 -46 65 -60.5t101 -14.5 v-125h-473v125q51 0 73.5 4t28 11.5t5.5 25.5t-16 41l-282 405l-303 -405q-18 -25 -18 -34q0 -48 126 -48v-125h-442z" />
<glyph unicode="Y" horiz-adv-x="1358" d="M50 1350v125h476v-125q-63 0 -96 -12t-33 -42q0 -16 6 -28l207 -347q19 -31 38.5 -76.5t29.5 -75.5l11 -30q38 112 82 188l202 341q10 18 10 41q0 25 -30 33t-109 8v125h464v-125q-70 0 -96.5 -12.5t-55.5 -62.5l-387 -650v-400q0 -57 28 -78.5t122 -21.5v-125h-480v125 q90 0 120 22t30 78v400l-388 650q-30 50 -62.5 62.5t-88.5 12.5z" />
<glyph unicode="Z" horiz-adv-x="1220" d="M100 0v125l756 1195h-529q-55 0 -77.5 -31.5t-22.5 -118.5h-125l25 305h969v-125l-756 -1195h555q55 0 77.5 31.5t22.5 118.5h125l-25 -305h-995z" />
<glyph unicode="[" horiz-adv-x="505" d="M100 -275v1925h405v-125q-225 0 -225 -100v-1475q0 -100 225 -100v-125h-405z" />
<glyph unicode="\" horiz-adv-x="891" d="M-50 1554h177l814 -1612h-177z" />
<glyph unicode="]" horiz-adv-x="505" d="M0 -150q225 0 225 100v1475q0 100 -225 100v125h405v-1925h-405v125z" />
<glyph unicode="^" horiz-adv-x="1294" d="M100 644l467 930h161l467 -930h-202l-346 689l-346 -689h-201z" />
<glyph unicode="_" horiz-adv-x="1024" d="M0 -125h1024v-180h-1024v180z" />
<glyph unicode="`" horiz-adv-x="632" d="M100 1533h236q60 -151 196 -358h-98q-106 88 -189.5 177.5t-114.5 135.5z" />
<glyph unicode="a" horiz-adv-x="1098" d="M0 0v125q73 0 101 12.5t51 62.5l261 618q10 20 10 41q0 25 -30 33t-109 8v125h342l320 -825q11 -26 26.5 -42t38.5 -23t40.5 -8.5t46.5 -1.5v-125h-443v125q63 0 96 12t33 42q0 16 -5 28l-41 117h-382l-46 -117q-10 -24 -10 -41q0 -25 30 -33t109 -8v-125h-439zM414 479 h266l-129 352z" />
<glyph unicode="b" horiz-adv-x="1057" d="M100 0v125q50 0 80.5 6t45.5 20.5t19.5 30.5t4.5 43v575q0 35 -8.5 54.5t-42.5 32.5t-99 13v125h390q199 0 308 -79t109 -220q0 -46 -45.5 -108.5t-115.5 -89.5q104 -36 157.5 -93.5t53.5 -157.5q0 -123 -121 -200t-346 -77h-390zM415 155h75q159 0 223.5 33.5t64.5 93.5 q0 101 -65 134t-223 33h-75v-294zM415 604h75q57 0 96 2.5t66 9.5t42 15t22.5 24.5t9.5 32t2 43.5q0 70 -56 104.5t-182 34.5h-75v-266z" />
<glyph unicode="c" horiz-adv-x="1019" d="M75 511q0 113 25 206.5t75 165.5t132 112t189 40q95 0 187 -33t151.5 -90.5t59.5 -120.5q0 -43 -47 -70t-93 -33l-47 -5q-20 82 -71 132.5t-138 50.5q-69 0 -117 -26.5t-74 -76.5t-37 -111t-11 -142q0 -80 12 -140t40.5 -109.5t82 -75.5t130.5 -26q95 0 165.5 78.5 t91.5 172.5q5 0 12.5 -1t26.5 -8t34 -17.5t27 -32t12 -49.5q0 -45 -31 -99.5t-80 -101.5t-118.5 -79t-138.5 -32q-116 0 -204 39.5t-141 111t-79 164.5t-26 206z" />
<glyph unicode="d" horiz-adv-x="1072" d="M100 0v125q50 0 80.5 6t45.5 20.5t19.5 30.5t4.5 43v575q0 35 -8.5 54.5t-42.5 32.5t-99 13v125h405q243 0 355 -135.5t112 -376.5q0 -115 -26.5 -206.5t-81 -161.5t-145.5 -107.5t-214 -37.5h-405zM405 154h100q88 0 148 26t92 77t45 113.5t13 148.5q0 83 -13.5 143.5 t-45.5 109t-92 73.5t-147 25h-100v-716z" />
<glyph unicode="e" horiz-adv-x="995" d="M100 0v125q50 0 80.5 6t45.5 20.5t19.5 30.5t4.5 43v575q0 35 -8.5 54.5t-42.5 32.5t-99 13v125h770l25 -305h-125q0 87 -22.5 118.5t-77.5 31.5h-265v-266h245v-155h-245v-294h265q55 0 77.5 31.5t22.5 118.5h125l-25 -305h-770z" />
<glyph unicode="f" horiz-adv-x="995" d="M100 0v125q50 0 80.5 6t45.5 20.5t19.5 30.5t4.5 43v575q0 35 -8.5 54.5t-42.5 32.5t-99 13v125h770l25 -305h-125q0 87 -22.5 118.5t-77.5 31.5h-265v-266h245v-155h-245v-224q0 -27 4.5 -43t19.5 -30.5t45.5 -20.5t80.5 -6v-125h-455z" />
<glyph unicode="g" horiz-adv-x="1093" d="M75 511q0 76 16.5 149t53.5 141.5t90.5 120t133.5 82.5t177 31q90 0 168 -27.5t129 -84t51 -132.5q0 -27 -16.5 -48t-40.5 -32t-48 -18t-41 -9l-16 -1q-14 92 -61 150t-123 58q-67 0 -120 -22.5t-87 -59t-56.5 -86.5t-31.5 -102.5t-9 -110.5q0 -72 16 -135.5t49.5 -119.5 t95 -88.5t144.5 -32.5q46 0 87 18.5t59 37.5l18 18v94q0 40 -9 59t-41.5 30t-99.5 11v125h380v-125q-45 0 -60 -21.5t-15 -78.5v-175q-6 -6 -16.5 -15t-44.5 -32.5t-69.5 -41.5t-87 -33t-100.5 -15q-121 0 -215 46.5t-149 123t-83 166t-28 185.5z" />
<glyph unicode="h" horiz-adv-x="1305" d="M100 0v125q6 0 16 0.5t36 4.5t46 11t36 22.5t16 36.5v625q0 33 -37.5 52t-74.5 21l-38 2v125h455v-125q-6 0 -16 -0.5t-36 -4.5t-46 -11t-36 -22.5t-16 -36.5v-226h495v226q0 33 -37.5 52t-74.5 21l-38 2v125h455v-125q-6 0 -16 -0.5t-36 -4.5t-46 -11t-36 -22.5 t-16 -36.5v-625q0 -33 37.5 -52t75.5 -21l37 -2v-125h-455v125q6 0 16 0.5t36 4.5t46 11t36 22.5t16 36.5v254h-495v-254q0 -33 37.5 -52t75.5 -21l37 -2v-125h-455z" />
<glyph unicode="i" horiz-adv-x="610" d="M100 0v125q90 0 120 22t30 78v575q0 58 -28 79t-122 21v125h460v-125q-66 0 -98.5 -11t-42 -30t-9.5 -59v-575q0 -57 28 -78.5t122 -21.5v-125h-460z" />
<glyph unicode="j" horiz-adv-x="768" d="M50 51v175q31 -30 83.5 -51t102.5 -21q127 0 127 222v424q0 58 -28 79t-122 21v125h455v-125q-66 0 -98.5 -11t-42 -30t-9.5 -59v-424q0 -168 -73.5 -277t-210.5 -109q-105 0 -184 61z" />
<glyph unicode="k" horiz-adv-x="1111" d="M50 0v125q69 0 101.5 10.5t40.5 29t8 60.5v575q0 40 -8 58.5t-41 30t-101 11.5v125h330v-421l242 242q23 23 23 34q0 12 -24.5 16t-99.5 4v125h463v-125q-81 0 -118 -15.5t-108 -86.5l-138 -138l145 -273q12 -20 29 -47.5t47.5 -73t59 -75.5t44.5 -30h66v-161h-92 q-37 0 -85.5 44.5t-97.5 116.5t-73.5 112.5t-47.5 81.5l-106 194l-129 -128v-196q0 -57 31 -78.5t119 -21.5v-125h-480z" />
<glyph unicode="l" horiz-adv-x="1020" d="M100 0v125q50 0 80.5 6t45.5 20.5t19.5 30.5t4.5 43v575q0 35 -8.5 54.5t-42.5 32.5t-99 13v125h480v-125q-50 0 -81.5 -6.5t-45.5 -21.5t-18.5 -30.5t-4.5 -41.5v-645h265q55 0 77.5 31.5t22.5 118.5h125l-25 -305h-795z" />
<glyph unicode="m" horiz-adv-x="1529" d="M100 0v125q6 0 16 0.5t36 4.5t46 11t36 22.5t16 36.5v625q0 33 -37.5 52t-74.5 21l-38 2v125h327l277 -625q18 -41 33 -87.5t21 -72.5l6 -26q19 92 60 184l280 627h325v-125q-6 0 -16 -0.5t-36 -4.5t-46 -11t-36 -22.5t-16 -36.5v-625q0 -33 37.5 -52t75.5 -21l37 -2 v-125h-380v125q4 0 11 0.5t24 4.5t30 11t24 22.5t11 36.5v611q-8 -71 -48 -159l-291 -652h-92l-297 670q-13 29 -23.5 64.5t-13.5 55.5l-4 21v-611q0 -33 25 -52t50 -21l25 -2v-125h-380z" />
<glyph unicode="n" horiz-adv-x="1305" d="M100 0v125q150 0 150 100v575q0 53 -32.5 76.5t-117.5 23.5v125h408l442 -716v491q0 52 -33 76t-117 24v125h455v-125q-86 0 -118 -23.5t-32 -76.5v-800h-162l-538 839v-614q0 -51 35 -75.5t115 -24.5v-125h-455z" />
<glyph unicode="o" horiz-adv-x="1139" d="M75 511q0 114 27.5 207t85 165t155 112t228.5 40t228 -40t154 -113t84 -166.5t27 -209.5q0 -113 -27.5 -204.5t-84 -162.5t-152.5 -110t-225 -39q-131 0 -229 39.5t-156.5 111t-86.5 164t-28 206.5zM254 510q0 -376 320 -376q311 0 311 378q0 379 -312 379 q-319 0 -319 -381z" />
<glyph unicode="p" horiz-adv-x="1022" d="M100 0v125q50 0 80.5 6t45.5 20.5t19.5 30.5t4.5 43v575q0 35 -8.5 54.5t-42.5 32.5t-99 13v125h455q76 0 140.5 -17t116.5 -51.5t81 -93.5t29 -137q0 -77 -29.5 -136.5t-81.5 -95t-116.5 -53t-139.5 -17.5h-150v-198q0 -27 4.5 -43t19.5 -30.5t45.5 -20.5t80.5 -6v-126 h-455zM405 579h150q188 0 188 152q0 139 -188 139h-150v-291z" />
<glyph unicode="q" horiz-adv-x="1139" d="M75 511q0 114 27.5 207t85 165t155 112t228.5 40t228 -40t154 -113t84 -166.5t27 -209.5q0 -106 -24 -194t-73 -157.5t-131.5 -111.5t-192.5 -50q-18 -32 -50.5 -61t-89.5 -70q78 0 147 -17t106 -17q33 0 78 25t80 63v-165q-32 -31 -82 -55t-76 -24q-45 0 -105.5 30 t-116.5 30q-55 0 -94 -18t-81 -53l-53 98q54 42 111 110t89 124q-113 8 -197.5 50.5t-134.5 112.5t-74.5 158.5t-24.5 196.5zM229 510q0 -376 345 -376q336 0 336 378q0 379 -337 379q-344 0 -344 -381z" />
<glyph unicode="r" horiz-adv-x="1086" d="M100 0v125q50 0 80.5 6t45.5 20.5t19.5 30.5t4.5 43v575q0 35 -8.5 54.5t-42.5 32.5t-99 13v125h380q139 0 246.5 -29.5t176.5 -98.5t69 -171q0 -97 -60.5 -156.5t-175.5 -97.5l74 -210q23 -63 59 -96.5t76 -33.5h41v-132h-67q-95 0 -157 65t-97 165l-75 219h-185v-223 q0 -27 4.5 -43t19.5 -30.5t45.5 -20.5t80.5 -6v-126h-455zM405 604h75q158 0 235.5 28.5t77.5 98.5q0 42 -23.5 70.5t-69.5 43t-97.5 20t-122.5 5.5h-75v-266z" />
<glyph unicode="s" horiz-adv-x="879" d="M104 160q0 33 11.5 60t27.5 41.5t32 24.5t27 14l12 3q76 -157 228 -157q61 0 109 33t48 87q0 46 -49 88t-118.5 79t-139 80t-118.5 109t-49 147q0 120 92.5 193t220.5 73q119 0 228.5 -58.5t109.5 -131.5q0 -38 -38 -68.5t-76 -42.5l-39 -11q-28 83 -71 120t-118 37 q-50 0 -89.5 -31.5t-39.5 -76.5q0 -34 26 -65.5t68 -57.5t92.5 -53.5t101 -60t92.5 -69t68 -87.5t26 -110q0 -131 -100.5 -205t-238.5 -74q-65 0 -143 23t-135.5 63.5t-57.5 83.5z" />
<glyph unicode="t" horiz-adv-x="935" d="M50 720l25 305h785l25 -305h-125q0 87 -22.5 118.5t-77.5 31.5h-115v-644q0 -27 4.5 -43t19.5 -30.5t45.5 -20.5t80.5 -6v-126h-455v125q50 0 80.5 6t45.5 20.5t19.5 30.5t4.5 43v645h-115q-55 0 -77.5 -31.5t-22.5 -118.5h-125z" />
<glyph unicode="u" horiz-adv-x="1205" d="M50 900v125h470v-125q-84 0 -117 -23t-33 -77v-235q0 -421 229 -421q64 0 110 17.5t75 48.5t46 83t23.5 112.5t6.5 144.5v250q0 52 -28.5 76t-96.5 24v125h420v-125q-150 0 -150 -100v-150q0 -97 -4 -169t-14.5 -144.5t-29 -123t-49 -95t-73 -71.5t-101.5 -42t-134 -15 q-67 0 -120.5 10.5t-94 34t-70.5 53t-50 75t-33 92.5t-20 114t-9.5 131t-2.5 150v150q0 55 -33.5 77.5t-116.5 22.5z" />
<glyph unicode="v" horiz-adv-x="1158" d="M0 900v125h493v-125q-63 0 -96 -12t-33 -42q0 -14 5 -28l162 -408q12 -29 28.5 -83t26.5 -93l11 -40q34 137 60 202l166 422q10 28 10 41q0 25 -30 33t-109 8v125h464v-125q-76 0 -104.5 -12t-47.5 -63l-345 -825h-164l-345 825q-10 26 -25.5 42.5t-39 23t-40.5 8 t-47 1.5z" />
<glyph unicode="w" horiz-adv-x="1519" d="M75 900v125h442v-125q-63 0 -95 -12t-32 -42q0 -4 4 -28l116 -594l185 478h142l152 -438l141 551q8 34 8 41q0 25 -28.5 33t-107.5 8v125h442v-125q-31 0 -47.5 -1t-37 -4.5t-31 -11.5t-20.5 -22t-16 -36l-214 -822h-147l-163 508l-185 -508h-194l-163 825 q-4 22 -16 36.5t-25 22t-35.5 11.5t-36 4.5t-38.5 0.5z" />
<glyph unicode="x" horiz-adv-x="1201" d="M75 0v125q61 0 93 15.5t71 59.5l267 301l-258 324q-34 43 -70.5 59t-95.5 16v125h474v-125q-72 0 -96 -6.5t-24 -26.5q0 -16 28 -49l152 -171l146 171q20 24 20 33q0 49 -129 49v125h468v-125q-65 0 -93 -13.5t-71 -61.5l-261 -292l264 -333q36 -45 68 -60t98 -15v-125 h-473v125q51 0 73.5 4t28 11.5t5.5 25.5q0 22 -16 41l-157 180l-153 -180q-18 -18 -18 -34q0 -48 126 -48v-125h-467z" />
<glyph unicode="y" horiz-adv-x="1108" d="M50 900v125h451v-125q-51 0 -77.5 -12t-26.5 -42q0 -18 6 -28l109 -172q16 -25 29 -58t18 -54l5 -20q18 79 47 125l112 179q10 18 10 41q0 25 -24.5 33t-89.5 8v125h439v-125q-70 0 -96 -12.5t-56 -62.5l-262 -425v-175q0 -57 28 -78.5t122 -21.5v-125h-480v125 q90 0 120 22t30 78v175l-263 425q-30 50 -62.5 62.5t-88.5 12.5z" />
<glyph unicode="z" horiz-adv-x="970" d="M100 0v125l531 745h-304q-55 0 -77.5 -31.5t-22.5 -118.5h-125l25 305h719v-125l-546 -745h345q55 0 77.5 31.5t22.5 118.5h125l-25 -305h-745z" />
<glyph unicode="{" horiz-adv-x="662" d="M100 620v130h30q58 0 96 56.5t38 139.5v358q0 63 8 111.5t21.5 84t39 60.5t54.5 41t74 26t90 15t111 8v-156q-50 -4 -76.5 -7.5t-56 -11.5t-42 -19t-24.5 -32t-15.5 -49.5t-3.5 -70.5v-358q0 -109 -47 -182t-86 -79q39 -6 86 -79t47 -182v-358q0 -28 2 -49.5t5 -39 t11.5 -30t15 -22t23 -16t27.5 -11t37 -8t43.5 -5t53.5 -4.5v-156q-78 4 -128 9.5t-99.5 19t-77.5 36t-51.5 59.5t-32.5 90t-9 127v358q0 83 -38 139.5t-96 56.5h-30z" />
<glyph unicode="|" horiz-adv-x="380" d="M100 -175v1825h180v-1825h-180z" />
<glyph unicode="}" horiz-adv-x="662" d="M0 -119q36 3 53.5 4.5t43.5 5t37 8t27.5 11t23 16t15 22t11.5 30t5 39t2 49.5v358q0 109 47 182t86 79q-39 6 -86 79t-47 182v358q0 42 -3.5 70.5t-15.5 49.5t-24.5 32t-42 19t-56 11.5t-76.5 7.5v156q66 -3 111 -8t90 -15t74 -26t54.5 -41t39 -60.5t21.5 -84t8 -111.5 v-358q0 -83 38 -139.5t96 -56.5h30v-130h-30q-58 0 -96 -56.5t-38 -139.5v-358q0 -74 -9 -127t-32.5 -90t-51.5 -59.5t-77.5 -36t-99.5 -19t-128 -9.5v156z" />
<glyph unicode="~" horiz-adv-x="1316" d="M100 505q0 147 91 255t245 108q59 0 114 -25.5t96.5 -62t80 -73.5t81 -62.5t83.5 -25.5q53 0 107 68.5t54 130.5h164q0 -94 -37.5 -175.5t-115 -134.5t-180.5 -53q-60 0 -115.5 25.5t-97.5 62.5t-80.5 73.5t-81 62t-83.5 25.5q-53 0 -107 -68.5t-54 -130.5h-164z" />
<glyph unicode="&#xa1;" horiz-adv-x="386" d="M98 1009q0 49 35 84.5t85 35.5t85 -35.5t35 -84.5t-35 -84.5t-85 -35.5t-85 35.5t-35 84.5zM100 -410q0 203 12.5 468t25.5 428l12 164h136q50 -604 50 -1060h-236z" />
<glyph unicode="&#xa2;" horiz-adv-x="1101" d="M100 509q0 99 25 186.5t74.5 159t130.5 118.5t186 58v219h130v-218q149 -15 252 -87.5t103 -153.5q0 -32 -14 -55.5t-34.5 -35t-40.5 -18.5t-34 -8l-14 -2q-54 183 -218 213v-746q101 13 173 63t95 128q4 0 9.5 -1t20.5 -6.5t26.5 -14.5t21 -28t9.5 -44 q0 -85 -102 -156.5t-253 -86.5v-193h-130v193q-104 11 -185 57.5t-130.5 117.5t-75 157.5t-25.5 183.5zM280 512q0 -89 21.5 -163.5t76.5 -133t138 -74.5v743q-83 -17 -138 -75.5t-76.5 -133t-21.5 -163.5z" />
<glyph unicode="&#xa3;" horiz-adv-x="1064" d="M100 59q92 69 146.5 183t54.5 235q0 58 -16 148h-173v130h138q-28 52 -39.5 111t-11.5 150q0 126 47 232.5t142 174t222 67.5q157 0 255 -65t98 -154q0 -34 -13 -60t-31.5 -39t-37.5 -21t-32 -9l-13 -2q-3 8 -8 21.5t-24.5 48t-43 61t-64 48t-86.5 21.5q-75 0 -129.5 -51 t-78.5 -123.5t-24 -152.5q0 -143 58 -258h359v-130h-327q14 -77 14 -144q0 -80 -49.5 -168.5t-104.5 -113.5q82 0 149 -9t101.5 -20.5t75 -20.5t77.5 -9q62 0 132.5 15.5t100.5 47.5v-139q-27 -29 -108.5 -54t-124.5 -25q-55 0 -105.5 13.5t-83.5 29t-88.5 29t-119.5 13.5 q-31 0 -68 -20t-57.5 -38.5t-49.5 -47.5z" />
<glyph unicode="&#xa4;" horiz-adv-x="1192" d="M100 249l178 178q-64 94 -64 234t64 234l-178 178l128 127l191 -191q79 34 177 34t177 -34l191 191l128 -127l-178 -178q64 -94 64 -234t-64 -234l178 -178l-128 -127l-191 191q-79 -34 -177 -34t-177 34l-191 -191zM394 661q0 -202 202 -202t202 202t-202 202t-202 -202 z" />
<glyph unicode="&#xa5;" horiz-adv-x="1258" d="M0 1350v125h476v-125q-63 0 -96 -12t-33 -42q0 -16 6 -28l207 -347q19 -31 38.5 -76.5t29.5 -75.5l11 -30q38 112 82 188l202 341q10 18 10 41q0 25 -30 33t-109 8v125h464v-125q-70 0 -96.5 -12.5t-55.5 -62.5l-283 -475h168v-130h-272v-195h272v-130h-272v-120 q0 -57 28 -78.5t122 -21.5v-125h-480v125q90 0 120 22t30 78v120h-272v130h272v195h-272v130h168l-284 475q-30 50 -62.5 62.5t-88.5 12.5z" />
<glyph unicode="&#xa6;" horiz-adv-x="380" d="M100 -175v723h180v-723h-180zM100 896v754h180v-754h-180z" />
<glyph unicode="&#xa7;" horiz-adv-x="982" d="M100 820q0 133 81 237q-51 73 -51 163q0 96 52.5 170t135 111t177.5 37q84 0 165 -24.5t134.5 -70t53.5 -99.5q0 -55 -32 -80.5t-120 -25.5q-1 6 -2.5 16t-14 36t-32 46t-59.5 36t-93 16q-70 0 -127 -50t-57 -117q0 -51 31.5 -96t82 -80.5t111 -71t121.5 -76t111.5 -87.5 t82 -113.5t31.5 -145.5q0 -134 -81 -238q51 -73 51 -163q0 -96 -52.5 -170t-135 -111t-177.5 -37q-84 0 -165 24.5t-134.5 70t-53.5 99.5q0 55 32 80.5t120 25.5q1 -6 2.5 -16t14 -36t32 -46t59.5 -36t93 -16q70 0 127 50.5t57 117.5q0 51 -31.5 96t-82 80.5t-111 71 t-121.5 76t-111.5 87.5t-82 113.5t-31.5 145.5zM255 820q0 -48 26 -92.5t76 -84.5t98 -71.5t118 -74.5t111 -72q43 56 43 126q0 47 -20 88.5t-51 72t-78 63t-89.5 56t-98 56t-92.5 59.5q-43 -56 -43 -126z" />
<glyph unicode="&#xa8;" horiz-adv-x="840" d="M100 1295q0 49 35 84.5t85 35.5t85 -35.5t35 -84.5t-35 -84.5t-85 -35.5t-85 35.5t-35 84.5zM500 1295q0 49 35 84.5t85 35.5t85 -35.5t35 -84.5t-35 -84.5t-85 -35.5t-85 35.5t-35 84.5z" />
<glyph unicode="&#xa9;" horiz-adv-x="1919" d="M100 684q0 181 66 344t180 282t274 189t340 70q144 0 276.5 -44.5t237.5 -126.5t183 -191t120 -243.5t42 -279.5q0 -144 -42 -278.5t-120 -243.5t-183 -191t-237.5 -126.5t-276.5 -44.5q-180 0 -340 70t-274 188.5t-180 282t-66 343.5zM245 684q0 -151 54.5 -287.5 t149 -235.5t228 -157.5t283.5 -58.5t283 58.5t227.5 157.5t149 235.5t54.5 287.5q0 202 -92.5 371.5t-257 269t-364.5 99.5q-201 0 -365.5 -99.5t-257 -269t-92.5 -371.5zM500 686q0 88 16.5 167.5t52.5 149.5t88.5 121.5t129.5 81t170 29.5q95 0 187 -37.5t151.5 -102 t59.5 -135.5q0 -35 -37.5 -56.5t-75.5 -25.5l-37 -5q-23 102 -83.5 164.5t-163.5 62.5q-295 0 -295 -415q0 -411 316 -411q77 0 145 46t107 108t54 127q4 0 10 -1t21 -6.5t27 -13.5t21.5 -25.5t9.5 -39.5q0 -48 -33 -105.5t-86 -107.5t-127 -83.5t-148 -33.5 q-99 0 -180 29.5t-136 80t-92.5 120.5t-54.5 149.5t-17 167.5z" />
<glyph unicode="&#xaa;" horiz-adv-x="806" d="M50 1128q0 48 15 85t39 61t60.5 40.5t73.5 24.5t85 13l148 16v31q0 100 -144 100q-36 0 -63 -10t-40 -23.5t-21 -27.5t-9 -24l-2 -10q-66 0 -90 16.5t-24 54.5q0 56 78 96.5t171 40.5q124 0 201.5 -54t77.5 -152v-325q0 -39 17.5 -52t82.5 -13v-94h-213l-9 119 q-6 -44 -53.5 -85t-107.5 -41q-120 0 -196.5 52t-76.5 161zM181 1128q0 -103 144 -103q17 0 33 2.5t38.5 12.5t39 26.5t28 49t11.5 75.5v65l-152 -16q-86 -8 -114 -27t-28 -85z" />
<glyph unicode="&#xab;" horiz-adv-x="1030" d="M100 578v61l299 391h131l-214 -421l214 -421h-132zM550 578v61l299 391h131l-214 -421l214 -421h-132z" />
<glyph unicode="&#xac;" horiz-adv-x="1099" d="M100 545v180h899v-480h-180v300h-719z" />
<glyph unicode="&#xad;" d="M100 545v180h724v-180h-724z" />
<glyph unicode="&#xae;" horiz-adv-x="1919" d="M100 684q0 180 66.5 343.5t180 282.5t274 189t339.5 70q239 0 437 -119t310 -322t112 -444q0 -144 -42 -278.5t-120 -243.5t-183 -191t-237.5 -126.5t-276.5 -44.5q-180 0 -340 70t-273.5 188.5t-180 282t-66.5 343.5zM245 684q0 -202 93 -371.5t257.5 -268.5t364.5 -99 q150 0 283 58.5t227.5 157.5t149 235.5t54.5 287.5q0 202 -92.5 371.5t-257 269t-364.5 99.5t-364.5 -99.5t-257.5 -269t-93 -371.5zM556 171v100q76 0 98 18.5t22 61.5v670q0 43 -22 61.5t-98 18.5v100h334q90 0 166 -18t137 -55t95.5 -100t34.5 -146q0 -118 -66 -194.5 t-163 -108.5l89 -198q19 -58 48 -88t61 -30q22 0 40 2.5t25 4.5l7 2v-101q-45 -8 -93 -8q-54 0 -93 15t-64 45.5t-38.5 59t-27.5 72.5l-90 205h-138v-208q0 -43 22 -61.5t98 -18.5v-101h-384zM820 684h70q290 0 290 202q0 55 -22.5 94t-64 59.5t-90.5 29t-113 8.5h-70v-393z " />
<glyph unicode="&#xaf;" d="M100 1175v155h724v-155h-724z" />
<glyph unicode="&#xb0;" horiz-adv-x="778" d="M100 1177q0 125 71 197t218 72t218 -72t71 -197t-71 -197t-218 -72t-218 72t-71 197zM270 1177q0 -82 29.5 -110.5t89.5 -28.5t89.5 28.5t29.5 110.5t-29.5 110.5t-89.5 28.5t-89.5 -28.5t-29.5 -110.5z" />
<glyph unicode="&#xb1;" d="M100 120v180h724v-180h-724zM100 820v180h272v297h180v-297h272v-180h-272v-297h-180v297h-272z" />
<glyph unicode="&#xb2;" horiz-adv-x="842" d="M100 822v69q0 63 28 121t73.5 103.5t100 88t109 81.5t100 76t73.5 80t28 86q0 93 -42.5 135t-156.5 42q-37 0 -67.5 -13.5t-49 -33t-34 -50.5t-23.5 -56.5t-16 -61.5q-5 1 -13 2.5t-29 9.5t-37 19t-29 31t-13 45q0 66 51.5 117t121 75t139.5 24q149 0 233 -67.5 t84 -196.5q0 -66 -27.5 -126t-71 -105.5t-96.5 -87.5t-106 -78t-96.5 -69.5t-71 -70.5t-27.5 -73h346q37 0 52 20t15 77h94l-19 -213h-623z" />
<glyph unicode="&#xb3;" horiz-adv-x="837" d="M100 1628q0 50 32 88.5t81.5 59.5t100 31.5t97.5 10.5q141 0 224 -72.5t83 -203.5q0 -138 -139 -218q158 -78 158 -238q0 -124 -84.5 -201.5t-240.5 -77.5q-124 0 -216.5 53t-92.5 126q0 31 21 50t42 22l21 3q17 -59 80 -94t143 -35q97 0 145 44t48 118q0 37 -11.5 66 t-38.5 54.5t-80.5 39.5t-130.5 14v109q78 0 128 12t74 36t32 50.5t8 66.5q0 81 -45.5 124t-131.5 43q-47 0 -80.5 -14.5t-54.5 -43t-32.5 -58t-21.5 -72.5q-5 1 -13 2.5t-28 9.5t-35.5 18.5t-28.5 31t-13 45.5z" />
<glyph unicode="&#xb4;" horiz-adv-x="632" d="M100 1175q60 92 109 181.5t68 133.5l19 43h236q-4 -7 -12 -18.5t-37 -50t-64 -78t-94.5 -98t-126.5 -113.5h-98z" />
<glyph unicode="&#xb5;" horiz-adv-x="1291" d="M75 900v125h330v-512q0 -72 18.5 -131.5t48 -97.5t66.5 -64.5t73 -38t69 -11.5q206 0 206 343v287q0 54 -43 77t-107 23v125h330v-800q0 -100 150 -100v-125h-305l-9 116q-100 -126 -223 -126q-55 0 -98 14.5t-76.5 46t-52 55.5t-47.5 70v-326q0 -50 30.5 -120t30.5 -115 q0 -34 -10 -67t-36.5 -58.5t-63.5 -25.5q-70 0 -100.5 43.5t-30.5 107.5v1185q0 54 -43 77t-107 23z" />
<glyph unicode="&#xb6;" horiz-adv-x="1277" d="M100 1126q0 91 29 160t80 109.5t116 60t142 19.5h710v-125q-66 0 -98.5 -11t-42 -30t-9.5 -59v-1550q0 -57 28 -78.5t122 -21.5v-125h-305v1775q0 55 -16.5 77.5t-58.5 22.5q-43 0 -59 -24.5t-16 -75.5v-1775h-305v126q50 0 80.5 6t45.5 20.5t19.5 30.5t4.5 43v1073h-100 q-76 0 -140.5 20.5t-116 62t-81 110.5t-29.5 159z" />
<glyph unicode="&#xb7;" horiz-adv-x="440" d="M100 635q0 49 35 84.5t85 35.5t85 -35.5t35 -84.5t-35 -84.5t-85 -35.5t-85 35.5t-35 84.5z" />
<glyph unicode="&#xb8;" horiz-adv-x="564" d="M100 -295q32 -29 54.5 -36t73.5 -7q44 0 75 35t31 69q0 37 -24 62.5t-81 25.5q-22 0 -39 -4t-24 -8l-6 -4v213h116v-92q84 -1 136 -59.5t52 -133.5q0 -95 -73 -152t-163 -57q-74 0 -128 25v123z" />
<glyph unicode="&#xb9;" horiz-adv-x="635" d="M100 1560v80q58 23 108 64t71 71l21 30h102v-823q0 -36 27.5 -51t105.5 -15v-94h-402v94q77 0 105.5 15t28.5 51v639q-8 -7 -22 -17t-57.5 -27t-87.5 -17z" />
<glyph unicode="&#xba;" horiz-adv-x="823" d="M50 1261q0 73 20 136t60 113t106 79t151 29q84 0 149.5 -29t105.5 -78.5t60.5 -112.5t20.5 -134q0 -152 -86 -254t-251 -102q-84 0 -149.5 29t-105.5 78.5t-60.5 112t-20.5 133.5zM185 1263q0 -38 6.5 -72.5t21.5 -66.5t37.5 -55t57 -37t78.5 -14q54 0 94.5 21t63.5 57 t33.5 78t10.5 90q0 103 -49 174t-152 71q-54 0 -94.5 -21t-63.5 -57t-33.5 -78t-10.5 -90z" />
<glyph unicode="&#xbb;" horiz-adv-x="1080" d="M50 188l214 421l-214 421h131l299 -391v-61l-298 -390h-132zM550 188l214 421l-214 421h131l299 -391v-61l-298 -390h-132z" />
<glyph unicode="&#xbc;" horiz-adv-x="1613" d="M100 1560v80q58 23 108 64t71 71l21 30h102v-823q0 -36 27.5 -51t105.5 -15v-94h-402v94q77 0 105.5 15t28.5 51v639q-8 -7 -22 -17t-57.5 -27t-87.5 -17zM255 0l1051 1475h153l-1051 -1475h-153zM850 -3v81q186 325 438 637h124v-619h101v-99h-101v-108 q0 -36 18.5 -49.5t81.5 -13.5v-94h-335v94q60 0 80 14t20 49v108h-427zM989 96h288v439q-142 -170 -288 -439z" />
<glyph unicode="&#xbd;" horiz-adv-x="1792" d="M100 1560v80q58 23 108 64t71 71l21 30h102v-823q0 -36 27.5 -51t105.5 -15v-94h-402v94q77 0 105.5 15t28.5 51v639q-8 -7 -22 -17t-57.5 -27t-87.5 -17zM230 0l1051 1475h153l-1051 -1475h-153zM1050 -199q0 63 28 121t73.5 103.5t100 88t109 81.5t100 76t73.5 80 t28 86q0 93 -42.5 135t-156.5 42q-37 0 -67.5 -13.5t-49 -33t-34 -50.5t-23.5 -56.5t-16 -61.5q-5 1 -13 2.5t-29 9.5t-37 19t-29 31t-13 45q0 66 51.5 117t121 75t139.5 24q149 0 233 -67.5t84 -196.5q0 -66 -27.5 -126t-71 -105.5t-96.5 -87.5t-106 -78t-96.5 -69.5 t-71 -70.5t-27.5 -73h346q37 0 52 20t15 77h94l-19 -213h-623v69z" />
<glyph unicode="&#xbe;" horiz-adv-x="1763" d="M100 1628q0 50 32 88.5t81.5 59.5t100 31.5t97.5 10.5q141 0 224 -72.5t83 -203.5q0 -138 -139 -218q158 -78 158 -238q0 -124 -84.5 -201.5t-240.5 -77.5q-124 0 -216.5 53t-92.5 126q0 31 21 50t42 22l21 3q17 -59 80 -94t143 -35q97 0 145 44t48 118q0 37 -11.5 66 t-38.5 54.5t-80.5 39.5t-130.5 14v109q78 0 128 12t74 36t32 50.5t8 66.5q0 81 -45.5 124t-131.5 43q-47 0 -80.5 -14.5t-54.5 -43t-32.5 -58t-21.5 -72.5q-5 1 -13 2.5t-28 9.5t-35.5 18.5t-28.5 31t-13 45.5zM340 0l1051 1475h153l-1051 -1475h-153zM1000 -3v81 q186 325 438 637h124v-619h101v-99h-101v-108q0 -36 18.5 -49.5t81.5 -13.5v-94h-335v94q60 0 80 14t20 49v108h-427zM1139 96h288v439q-142 -170 -288 -439z" />
<glyph unicode="&#xbf;" horiz-adv-x="954" d="M100 17q0 148 99.5 254t244.5 139v230h154v-347q-141 0 -229.5 -84t-88.5 -190q0 -102 73 -175.5t174 -73.5q35 0 64.5 12t49.5 31.5t36 43t25 47t15 43t8 31.5l2 12q95 0 136 -34t41 -122q0 -43 -24.5 -86t-70.5 -78.5t-119.5 -57.5t-163.5 -22q-174 0 -300 126 t-126 301zM398 999q0 49 35 84.5t85 35.5t85 -35.5t35 -84.5t-35 -84.5t-85 -35.5t-85 35.5t-35 84.5z" />
<glyph unicode="&#xc0;" horiz-adv-x="1408" d="M0 0v125q76 0 104 12t48 63l406 1068q10 28 10 41q0 25 -30 33t-109 8v125h357l470 -1275q10 -26 25.5 -42.5t39 -23t40.5 -8t47 -1.5v-125h-468v125q63 0 96 12t33 42q0 14 -5 28l-126 342h-497l-131 -342q-10 -28 -10 -41q0 -25 30 -33t109 -8v-125h-439zM321 1983h236 q60 -151 196 -358h-98q-106 88 -189.5 177.5t-113.5 135.5zM499 704h381l-118 321q-17 48 -36 118t-30 117l-10 46q-26 -180 -64 -278z" />
<glyph unicode="&#xc1;" horiz-adv-x="1408" d="M0 0v125q76 0 104 12t48 63l406 1068q10 28 10 41q0 25 -30 33t-109 8v125h357l470 -1275q10 -26 25.5 -42.5t39 -23t40.5 -8t47 -1.5v-125h-468v125q63 0 96 12t33 42q0 14 -5 28l-126 342h-497l-131 -342q-10 -28 -10 -41q0 -25 30 -33t109 -8v-125h-439zM499 704h381 l-118 321q-17 48 -36 118t-30 117l-10 46q-26 -180 -64 -278zM557 1625q60 92 109 181.5t68 133.5l19 43h236q-4 -7 -12 -18.5t-37 -50t-64 -78t-94.5 -98t-126.5 -113.5h-98z" />
<glyph unicode="&#xc2;" horiz-adv-x="1408" d="M0 0v125q76 0 104 12t48 63l406 1068q10 28 10 41q0 25 -30 33t-109 8v125h357l470 -1275q10 -26 25.5 -42.5t39 -23t40.5 -8t47 -1.5v-125h-468v125q63 0 96 12t33 42q0 14 -5 28l-126 342h-497l-131 -342q-10 -28 -10 -41q0 -25 30 -33t109 -8v-125h-439zM291 1625 q72 92 133.5 181.5t87.5 133.5l25 43h236q85 -151 246 -358h-98q-152 114 -266 228q-114 -114 -266 -228h-98zM499 704h381l-118 321q-17 48 -36 118t-30 117l-10 46q-26 -180 -64 -278z" />
<glyph unicode="&#xc3;" horiz-adv-x="1408" d="M0 0v125q76 0 104 12t48 63l406 1068q10 28 10 41q0 25 -30 33t-109 8v125h357l470 -1275q10 -26 25.5 -42.5t39 -23t40.5 -8t47 -1.5v-125h-468v125q63 0 96 12t33 42q0 14 -5 28l-126 342h-497l-131 -342q-10 -28 -10 -41q0 -25 30 -33t109 -8v-125h-439zM235 1625 q3 136 63.5 212t184.5 76q56 0 97 -15.5t66 -37.5t49 -44t59.5 -37.5t83.5 -15.5q42 0 68.5 43.5t29.5 105.5h139q-2 -136 -62 -211.5t-183 -75.5q-48 0 -85.5 11t-59.5 27.5t-45 35.5t-43 35.5t-52 27.5t-73 11q-42 0 -68.5 -43.5t-29.5 -104.5h-139zM499 704h381l-118 321 q-17 48 -36 118t-30 117l-10 46q-26 -180 -64 -278z" />
<glyph unicode="&#xc4;" horiz-adv-x="1408" d="M0 0v125q76 0 104 12t48 63l406 1068q10 28 10 41q0 25 -30 33t-109 8v125h357l470 -1275q10 -26 25.5 -42.5t39 -23t40.5 -8t47 -1.5v-125h-468v125q63 0 96 12t33 42q0 14 -5 28l-126 342h-497l-131 -342q-10 -28 -10 -41q0 -25 30 -33t109 -8v-125h-439zM335 1745 q0 49 35.5 84.5t84.5 35.5t84.5 -35.5t35.5 -84.5t-35.5 -84.5t-84.5 -35.5t-84.5 35.5t-35.5 84.5zM499 704h381l-118 321q-17 48 -36 118t-30 117l-10 46q-26 -180 -64 -278zM735 1745q0 49 35.5 84.5t84.5 35.5t84.5 -35.5t35.5 -84.5t-35.5 -84.5t-84.5 -35.5 t-84.5 35.5t-35.5 84.5z" />
<glyph unicode="&#xc5;" horiz-adv-x="1408" d="M0 0v125q76 0 104 12t48 63l441 1161q-171 52 -171 253q0 125 71 197t218 72t218 -72t71 -197q0 -204 -172 -254l428 -1160q10 -26 25.5 -42.5t39 -23t40.5 -8t47 -1.5v-125h-468v125q63 0 96 12t33 42q0 14 -5 28l-126 342h-497l-131 -342q-10 -28 -10 -41q0 -25 30 -33 t109 -8v-125h-439zM499 704h381l-118 321q-17 48 -36 118t-30 117l-10 46q-26 -180 -64 -278zM592 1614q0 -82 29.5 -110.5t89.5 -28.5t89.5 28.5t29.5 110.5t-29.5 110.5t-89.5 28.5t-89.5 -28.5t-29.5 -110.5z" />
<glyph unicode="&#xc6;" horiz-adv-x="1885" d="M0 0v125q76 0 104 12t48 63l406 1068q10 28 10 41q0 25 -30 33t-109 8v125h1331l25 -305h-125q0 87 -22.5 118.5t-77.5 31.5h-440v-491h395v-155h-395v-519h440q55 0 77.5 31.5t22.5 118.5h125l-25 -305h-970v125q50 0 80.5 6t45.5 20.5t19.5 30.5t4.5 43v324h-474 l-131 -342q-10 -28 -10 -41q0 -25 30 -33t109 -8v-125h-464zM524 704h416v616h-182z" />
<glyph unicode="&#xc7;" horiz-adv-x="1293" d="M100 736q0 129 21 240t65.5 205.5t111 161.5t161.5 104.5t212 37.5q119 0 234 -46.5t189.5 -127.5t74.5 -170q0 -27 -19.5 -48t-46.5 -32t-54.5 -18t-46.5 -9l-20 -1q-29 127 -105 205t-204 78q-86 0 -151 -29t-106 -79.5t-66.5 -125.5t-35.5 -158.5t-10 -188.5 q0 -104 10.5 -186.5t37.5 -157.5t71 -124.5t113.5 -78.5t162.5 -29q73 0 140.5 33t115 86t80 113t46.5 119q5 0 12.5 -1t26.5 -8t34 -17.5t27 -32t12 -49.5q0 -59 -41.5 -131t-107.5 -134.5t-158.5 -104.5t-185.5 -42h-15v-67q84 -1 136 -59.5t52 -133.5q0 -95 -73 -152 t-163 -57q-74 0 -128 25v123q32 -29 54.5 -36t73.5 -7q44 0 75 35t31 69q0 37 -24 62.5t-81 25.5q-22 0 -39 -4t-23 -8l-7 -4v199q-121 22 -212 87t-146.5 163t-83 219.5t-27.5 265.5z" />
<glyph unicode="&#xc8;" horiz-adv-x="1195" d="M100 0v125q50 0 80.5 6t45.5 20.5t19.5 30.5t4.5 43v1025q0 35 -8.5 54.5t-42.5 32.5t-99 13v125h970l25 -305h-125q0 87 -22.5 118.5t-77.5 31.5h-440v-491h395v-155h-395v-519h440q55 0 77.5 31.5t22.5 118.5h125l-25 -305h-970zM241 1983h236q60 -151 196 -358h-98 q-106 88 -189.5 177.5t-113.5 135.5z" />
<glyph unicode="&#xc9;" horiz-adv-x="1195" d="M100 0v125q50 0 80.5 6t45.5 20.5t19.5 30.5t4.5 43v1025q0 35 -8.5 54.5t-42.5 32.5t-99 13v125h970l25 -305h-125q0 87 -22.5 118.5t-77.5 31.5h-440v-491h395v-155h-395v-519h440q55 0 77.5 31.5t22.5 118.5h125l-25 -305h-970zM477 1625q60 92 109 181.5t68 133.5 l19 43h236q-4 -7 -12 -18.5t-37 -50t-64 -78t-94.5 -98t-126.5 -113.5h-98z" />
<glyph unicode="&#xca;" horiz-adv-x="1195" d="M100 0v125q50 0 80.5 6t45.5 20.5t19.5 30.5t4.5 43v1025q0 35 -8.5 54.5t-42.5 32.5t-99 13v125h970l25 -305h-125q0 87 -22.5 118.5t-77.5 31.5h-440v-491h395v-155h-395v-519h440q55 0 77.5 31.5t22.5 118.5h125l-25 -305h-970zM211 1625q72 92 133.5 181.5 t87.5 133.5l25 43h236q85 -151 246 -358h-98q-152 114 -266 228q-114 -114 -266 -228h-98z" />
<glyph unicode="&#xcb;" horiz-adv-x="1195" d="M100 0v125q50 0 80.5 6t45.5 20.5t19.5 30.5t4.5 43v1025q0 35 -8.5 54.5t-42.5 32.5t-99 13v125h970l25 -305h-125q0 87 -22.5 118.5t-77.5 31.5h-440v-491h395v-155h-395v-519h440q55 0 77.5 31.5t22.5 118.5h125l-25 -305h-970zM255 1745q0 49 35.5 84.5t84.5 35.5 t84.5 -35.5t35.5 -84.5t-35.5 -84.5t-84.5 -35.5t-84.5 35.5t-35.5 84.5zM655 1745q0 49 35.5 84.5t84.5 35.5t84.5 -35.5t35.5 -84.5t-35.5 -84.5t-84.5 -35.5t-84.5 35.5t-35.5 84.5z" />
<glyph unicode="&#xcc;" horiz-adv-x="680" d="M6 1983h236q60 -151 196 -358h-98q-106 88 -189.5 177.5t-114.5 135.5zM100 0v125q90 0 120 22t30 78v1025q0 58 -28 79t-122 21v125h480v-125q-66 0 -98.5 -11t-42 -30t-9.5 -59v-1025q0 -57 28 -78.5t122 -21.5v-125h-480z" />
<glyph unicode="&#xcd;" horiz-adv-x="680" d="M100 0v125q90 0 120 22t30 78v1025q0 58 -28 79t-122 21v125h480v-125q-66 0 -98.5 -11t-42 -30t-9.5 -59v-1025q0 -57 28 -78.5t122 -21.5v-125h-480zM242 1625q60 92 109 181.5t68 133.5l19 43h236q-4 -7 -12 -18.5t-37 -50t-64 -78t-94.5 -98t-126.5 -113.5h-98z" />
<glyph unicode="&#xce;" horiz-adv-x="680" d="M-24 1625q72 92 133.5 181.5t86.5 133.5l26 43h236q85 -151 246 -358h-98q-152 114 -266 228q-114 -114 -266 -228h-98zM100 0v125q90 0 120 22t30 78v1025q0 58 -28 79t-122 21v125h480v-125q-66 0 -98.5 -11t-42 -30t-9.5 -59v-1025q0 -57 28 -78.5t122 -21.5v-125 h-480z" />
<glyph unicode="&#xcf;" horiz-adv-x="680" d="M20 1745q0 49 35 84.5t85 35.5t85 -35.5t35 -84.5t-35 -84.5t-85 -35.5t-85 35.5t-35 84.5zM100 0v125q90 0 120 22t30 78v1025q0 58 -28 79t-122 21v125h480v-125q-66 0 -98.5 -11t-42 -30t-9.5 -59v-1025q0 -57 28 -78.5t122 -21.5v-125h-480zM420 1745q0 49 35 84.5 t85 35.5t85 -35.5t35 -84.5t-35 -84.5t-85 -35.5t-85 35.5t-35 84.5z" />
<glyph unicode="&#xd0;" horiz-adv-x="1322" d="M100 0v125q50 0 80.5 6t45.5 20.5t19.5 30.5t4.5 43v431h-150v130h150v464q0 35 -8.5 54.5t-42.5 32.5t-99 13v125h480q171 0 296.5 -53t200 -152.5t110 -231t35.5 -300.5q0 -166 -36 -298t-111.5 -232t-200.5 -154t-294 -54h-480zM430 154h150q110 0 192 29t133.5 78.5 t82.5 126t43 161.5t12 195q0 108 -12 191.5t-44 158t-83.5 122.5t-133 76t-190.5 28h-150v-534h293v-130h-293v-502z" />
<glyph unicode="&#xd1;" horiz-adv-x="1480" d="M100 0v125q150 0 150 100v1025q0 53 -32.5 76.5t-117.5 23.5v125h408l541 -979q18 -32 37 -79t29 -77l10 -31v941q0 52 -33 76t-117 24v125h455v-125q-86 0 -118 -23.5t-32 -76.5v-1250h-162l-655 1184q-15 26 -29.5 64.5t-21.5 64.5l-7 26v-1114q0 -51 35 -75.5 t115 -24.5v-125h-455zM295 1625q3 136 63.5 212t184.5 76q56 0 97 -15.5t66 -37.5t49 -44t59.5 -37.5t83.5 -15.5q42 0 68.5 43.5t29.5 105.5h139q-2 -136 -62 -211.5t-183 -75.5q-48 0 -85.5 11t-59.5 27.5t-45 35.5t-43 35.5t-52 27.5t-73 11q-42 0 -68.5 -43.5 t-29.5 -104.5h-139z" />
<glyph unicode="&#xd2;" horiz-adv-x="1439" d="M100 736q0 130 21 240.5t68.5 205.5t118.5 161.5t176 104t237 37.5t237 -38t175.5 -104.5t117.5 -162.5t67.5 -207t20.5 -242q0 -129 -21 -238.5t-68 -203t-117.5 -159.5t-174 -103t-233.5 -37q-132 0 -237 37.5t-177 103.5t-120 160.5t-69.5 205t-21.5 239.5zM279 735 q0 -103 13 -189.5t45 -164t82 -131t127.5 -85t177.5 -31.5q436 0 436 603q0 604 -437 604q-444 0 -444 -606zM387 1993h236q60 -151 196 -358h-98q-106 88 -189.5 177.5t-113.5 135.5z" />
<glyph unicode="&#xd3;" horiz-adv-x="1439" d="M100 736q0 130 21 240.5t68.5 205.5t118.5 161.5t176 104t237 37.5t237 -38t175.5 -104.5t117.5 -162.5t67.5 -207t20.5 -242q0 -129 -21 -238.5t-68 -203t-117.5 -159.5t-174 -103t-233.5 -37q-132 0 -237 37.5t-177 103.5t-120 160.5t-69.5 205t-21.5 239.5zM279 735 q0 -103 13 -189.5t45 -164t82 -131t127.5 -85t177.5 -31.5q436 0 436 603q0 604 -437 604q-444 0 -444 -606zM623 1635q60 92 109 181.5t68 133.5l19 43h236q-4 -7 -12 -18.5t-37 -50t-64 -78t-94.5 -98t-126.5 -113.5h-98z" />
<glyph unicode="&#xd4;" horiz-adv-x="1439" d="M100 736q0 130 21 240.5t68.5 205.5t118.5 161.5t176 104t237 37.5t237 -38t175.5 -104.5t117.5 -162.5t67.5 -207t20.5 -242q0 -129 -21 -238.5t-68 -203t-117.5 -159.5t-174 -103t-233.5 -37q-132 0 -237 37.5t-177 103.5t-120 160.5t-69.5 205t-21.5 239.5zM279 735 q0 -103 13 -189.5t45 -164t82 -131t127.5 -85t177.5 -31.5q436 0 436 603q0 604 -437 604q-444 0 -444 -606zM357 1635q72 92 133.5 181.5t87.5 133.5l25 43h236q85 -151 246 -358h-98q-152 114 -266 228q-114 -114 -266 -228h-98z" />
<glyph unicode="&#xd5;" horiz-adv-x="1439" d="M100 736q0 130 21 240.5t68.5 205.5t118.5 161.5t176 104t237 37.5t237 -38t175.5 -104.5t117.5 -162.5t67.5 -207t20.5 -242q0 -129 -21 -238.5t-68 -203t-117.5 -159.5t-174 -103t-233.5 -37q-132 0 -237 37.5t-177 103.5t-120 160.5t-69.5 205t-21.5 239.5zM279 735 q0 -103 13 -189.5t45 -164t82 -131t127.5 -85t177.5 -31.5q436 0 436 603q0 604 -437 604q-444 0 -444 -606zM301 1635q3 136 63.5 212t184.5 76q56 0 97 -15.5t66 -37.5t49 -44t59.5 -37.5t83.5 -15.5q42 0 68.5 43.5t29.5 105.5h139q-2 -136 -62 -211.5t-183 -75.5 q-48 0 -85.5 11t-59.5 27.5t-45 35.5t-43 35.5t-52 27.5t-73 11q-42 0 -68.5 -43.5t-29.5 -104.5h-139z" />
<glyph unicode="&#xd6;" horiz-adv-x="1439" d="M100 736q0 130 21 240.5t68.5 205.5t118.5 161.5t176 104t237 37.5t237 -38t175.5 -104.5t117.5 -162.5t67.5 -207t20.5 -242q0 -129 -21 -238.5t-68 -203t-117.5 -159.5t-174 -103t-233.5 -37q-132 0 -237 37.5t-177 103.5t-120 160.5t-69.5 205t-21.5 239.5zM279 735 q0 -103 13 -189.5t45 -164t82 -131t127.5 -85t177.5 -31.5q436 0 436 603q0 604 -437 604q-444 0 -444 -606zM401 1755q0 49 35.5 84.5t84.5 35.5t84.5 -35.5t35.5 -84.5t-35.5 -84.5t-84.5 -35.5t-84.5 35.5t-35.5 84.5zM801 1755q0 49 35.5 84.5t84.5 35.5t84.5 -35.5 t35.5 -84.5t-35.5 -84.5t-84.5 -35.5t-84.5 35.5t-35.5 84.5z" />
<glyph unicode="&#xd7;" horiz-adv-x="838" d="M100 443l217 217l-217 217l102 103l217 -218l217 218l102 -103l-217 -217l217 -217l-102 -103l-217 218l-217 -218z" />
<glyph unicode="&#xd8;" horiz-adv-x="1439" d="M100 736q0 130 21 240.5t68.5 205.5t118.5 161.5t176 104t237 37.5q147 0 259 -46l58 115h177l-99 -196q223 -189 223 -627q0 -129 -21 -238.5t-68 -203t-117.5 -159.5t-174 -103t-233.5 -37q-155 0 -274 51l-50 -99h-177l93 184q-217 190 -217 610zM279 735 q0 -304 116 -455l517 1024q-80 37 -189 37q-444 0 -444 -606zM520 177q86 -43 204 -43q436 0 436 603q0 317 -121 468z" />
<glyph unicode="&#xd9;" horiz-adv-x="1405" d="M50 1350v125h480v-125q-84 0 -117 -23t-33 -77v-685q0 -406 319 -406q86 0 148 16.5t101 47t62 80.5t31.5 108t8.5 139v700q0 52 -34 76t-116 24v125h455v-125q-150 0 -150 -100v-600q0 -97 -4.5 -169t-18 -144.5t-37 -123t-61 -95t-90.5 -71.5t-126.5 -42t-167.5 -15 q-84 0 -150.5 10.5t-117 33.5t-88 53t-63 75.5t-41.5 93t-25 114t-12 130.5t-3 150v600q0 55 -33.5 77.5t-116.5 22.5zM368 1983h236q60 -151 196 -358h-98q-106 88 -189.5 177.5t-114.5 135.5z" />
<glyph unicode="&#xda;" horiz-adv-x="1405" d="M50 1350v125h480v-125q-84 0 -117 -23t-33 -77v-685q0 -406 319 -406q86 0 148 16.5t101 47t62 80.5t31.5 108t8.5 139v700q0 52 -34 76t-116 24v125h455v-125q-150 0 -150 -100v-600q0 -97 -4.5 -169t-18 -144.5t-37 -123t-61 -95t-90.5 -71.5t-126.5 -42t-167.5 -15 q-84 0 -150.5 10.5t-117 33.5t-88 53t-63 75.5t-41.5 93t-25 114t-12 130.5t-3 150v600q0 55 -33.5 77.5t-116.5 22.5zM604 1625q60 92 109 181.5t68 133.5l19 43h236q-4 -7 -12 -18.5t-37 -50t-64 -78t-94.5 -98t-126.5 -113.5h-98z" />
<glyph unicode="&#xdb;" horiz-adv-x="1405" d="M50 1350v125h480v-125q-84 0 -117 -23t-33 -77v-685q0 -406 319 -406q86 0 148 16.5t101 47t62 80.5t31.5 108t8.5 139v700q0 52 -34 76t-116 24v125h455v-125q-150 0 -150 -100v-600q0 -97 -4.5 -169t-18 -144.5t-37 -123t-61 -95t-90.5 -71.5t-126.5 -42t-167.5 -15 q-84 0 -150.5 10.5t-117 33.5t-88 53t-63 75.5t-41.5 93t-25 114t-12 130.5t-3 150v600q0 55 -33.5 77.5t-116.5 22.5zM338 1625q72 92 133.5 181.5t86.5 133.5l26 43h236q85 -151 246 -358h-98q-152 114 -266 228q-114 -114 -266 -228h-98z" />
<glyph unicode="&#xdc;" horiz-adv-x="1405" d="M50 1350v125h480v-125q-84 0 -117 -23t-33 -77v-685q0 -406 319 -406q86 0 148 16.5t101 47t62 80.5t31.5 108t8.5 139v700q0 52 -34 76t-116 24v125h455v-125q-150 0 -150 -100v-600q0 -97 -4.5 -169t-18 -144.5t-37 -123t-61 -95t-90.5 -71.5t-126.5 -42t-167.5 -15 q-84 0 -150.5 10.5t-117 33.5t-88 53t-63 75.5t-41.5 93t-25 114t-12 130.5t-3 150v600q0 55 -33.5 77.5t-116.5 22.5zM382 1745q0 49 35 84.5t85 35.5t85 -35.5t35 -84.5t-35 -84.5t-85 -35.5t-85 35.5t-35 84.5zM782 1745q0 49 35 84.5t85 35.5t85 -35.5t35 -84.5 t-35 -84.5t-85 -35.5t-85 35.5t-35 84.5z" />
<glyph unicode="&#xdd;" horiz-adv-x="1358" d="M50 1350v125h476v-125q-63 0 -96 -12t-33 -42q0 -16 6 -28l207 -347q19 -31 38.5 -76.5t29.5 -75.5l11 -30q38 112 82 188l202 341q10 18 10 41q0 25 -30 33t-109 8v125h464v-125q-70 0 -96.5 -12.5t-55.5 -62.5l-387 -650v-400q0 -57 28 -78.5t122 -21.5v-125h-480v125 q90 0 120 22t30 78v400l-388 650q-30 50 -62.5 62.5t-88.5 12.5zM581 1625q60 92 109 181.5t68 133.5l19 43h236q-4 -7 -12 -18.5t-37 -50t-64 -78t-94.5 -98t-126.5 -113.5h-98z" />
<glyph unicode="&#xde;" horiz-adv-x="1222" d="M100 0v125q90 0 120 22t30 78v1025q0 58 -28 79t-122 21v125h480v-125q-66 0 -98.5 -11t-42 -30t-9.5 -59v-100h150q90 0 168.5 -13.5t148 -44.5t119 -76.5t78 -113t28.5 -151.5q0 -83 -29 -150.5t-79.5 -113.5t-119.5 -77.5t-147.5 -46t-166.5 -14.5h-150v-124 q0 -57 28 -78.5t122 -21.5v-125h-480zM430 504h150q363 0 363 252q0 69 -28 117.5t-80.5 74t-114 36.5t-140.5 11h-150v-491z" />
<glyph unicode="&#xdf;" horiz-adv-x="1754" d="M104 160q0 33 11.5 60t27.5 41.5t32 24.5t27 14l12 3q76 -157 228 -157q61 0 109 33t48 87q0 46 -49 88t-118.5 79t-139 80t-118.5 109t-49 147q0 120 92.5 193t220.5 73q119 0 228.5 -58.5t109.5 -131.5q0 -38 -38 -68.5t-76 -42.5l-39 -11q-28 83 -71 120t-118 37 q-50 0 -89.5 -31.5t-39.5 -76.5q0 -34 26 -65.5t68 -57.5t92.5 -53.5t101 -60t92.5 -69t68 -87.5t26 -110q0 -131 -100.5 -205t-238.5 -74q-65 0 -143 23t-135.5 63.5t-57.5 83.5zM979 160q0 33 11.5 60t27.5 41.5t32 24.5t28 14l11 3q76 -157 228 -157q61 0 109 33t48 87 q0 46 -49 88t-118.5 79t-139 80t-118.5 109t-49 147q0 120 92.5 193t220.5 73q119 0 228.5 -58.5t109.5 -131.5q0 -38 -38.5 -68.5t-76.5 -42.5l-38 -11q-28 83 -71 120t-118 37q-50 0 -89.5 -31.5t-39.5 -76.5q0 -34 26 -65.5t68 -57.5t92.5 -53.5t101 -60t92.5 -69 t68 -87.5t26 -110q0 -131 -100.5 -205t-238.5 -74q-65 0 -143 23t-135.5 63.5t-57.5 83.5z" />
<glyph unicode="&#xe0;" horiz-adv-x="1098" d="M0 0v125q73 0 101 12.5t51 62.5l261 618q10 20 10 41q0 25 -30 33t-109 8v125h342l320 -825q11 -26 26.5 -42t38.5 -23t40.5 -8.5t46.5 -1.5v-125h-443v125q63 0 96 12t33 42q0 16 -5 28l-41 117h-382l-46 -117q-10 -24 -10 -41q0 -25 30 -33t109 -8v-125h-439zM140 1533 h236q60 -151 196 -358h-98q-106 88 -189.5 177.5t-114.5 135.5zM414 479h266l-129 352z" />
<glyph unicode="&#xe1;" horiz-adv-x="1098" d="M0 0v125q73 0 101 12.5t51 62.5l261 618q10 20 10 41q0 25 -30 33t-109 8v125h342l320 -825q11 -26 26.5 -42t38.5 -23t40.5 -8.5t46.5 -1.5v-125h-443v125q63 0 96 12t33 42q0 16 -5 28l-41 117h-382l-46 -117q-10 -24 -10 -41q0 -25 30 -33t109 -8v-125h-439zM414 479 h266l-129 352zM422 1175q60 92 109 181.5t68 133.5l19 43h236q-4 -7 -12 -18.5t-37 -50t-64 -78t-94.5 -98t-126.5 -113.5h-98z" />
<glyph unicode="&#xe2;" horiz-adv-x="1098" d="M0 0v125q73 0 101 12.5t51 62.5l261 618q10 20 10 41q0 25 -30 33t-109 8v125h342l320 -825q11 -26 26.5 -42t38.5 -23t40.5 -8.5t46.5 -1.5v-125h-443v125q63 0 96 12t33 42q0 16 -5 28l-41 117h-382l-46 -117q-10 -24 -10 -41q0 -25 30 -33t109 -8v-125h-439zM156 1175 q72 92 133.5 181.5t86.5 133.5l26 43h236q85 -151 246 -358h-98q-152 114 -266 228q-114 -114 -266 -228h-98zM414 479h266l-129 352z" />
<glyph unicode="&#xe3;" horiz-adv-x="1098" d="M0 0v125q73 0 101 12.5t51 62.5l261 618q10 20 10 41q0 25 -30 33t-109 8v125h342l320 -825q11 -26 26.5 -42t38.5 -23t40.5 -8.5t46.5 -1.5v-125h-443v125q63 0 96 12t33 42q0 16 -5 28l-41 117h-382l-46 -117q-10 -24 -10 -41q0 -25 30 -33t109 -8v-125h-439zM100 1175 q3 136 63.5 212t184.5 76q56 0 97 -15.5t66 -37.5t49 -44t59.5 -37.5t83.5 -15.5q42 0 68.5 43.5t29.5 105.5h139q-2 -136 -62 -211.5t-183 -75.5q-48 0 -85.5 11t-59.5 27.5t-45 35.5t-43 35.5t-52 27.5t-73 11q-42 0 -68.5 -43.5t-29.5 -104.5h-139zM414 479h266l-129 352 z" />
<glyph unicode="&#xe4;" horiz-adv-x="1098" d="M0 0v125q73 0 101 12.5t51 62.5l261 618q10 20 10 41q0 25 -30 33t-109 8v125h342l320 -825q11 -26 26.5 -42t38.5 -23t40.5 -8.5t46.5 -1.5v-125h-443v125q63 0 96 12t33 42q0 16 -5 28l-41 117h-382l-46 -117q-10 -24 -10 -41q0 -25 30 -33t109 -8v-125h-439zM200 1295 q0 49 35 84.5t85 35.5t85 -35.5t35 -84.5t-35 -84.5t-85 -35.5t-85 35.5t-35 84.5zM414 479h266l-129 352zM600 1295q0 49 35 84.5t85 35.5t85 -35.5t35 -84.5t-35 -84.5t-85 -35.5t-85 35.5t-35 84.5z" />
<glyph unicode="&#xe5;" horiz-adv-x="1098" d="M0 0v125q73 0 101 12.5t51 62.5l276 653q-97 58 -97 191q0 91 53 155t161 64t161 -64t53 -155q0 -114 -73 -174l260 -670q10 -26 26 -42.5t39 -23t40 -8t47 -1.5v-125h-443v125q63 0 96 12t33 42q0 16 -5 28l-41 117h-382l-46 -117q-10 -24 -10 -41q0 -25 30 -33t109 -8 v-125h-439zM414 479h266l-129 352zM451 1044q0 -114 94 -114t94 114t-94 114t-94 -114z" />
<glyph unicode="&#xe6;" horiz-adv-x="1524" d="M100 0v125q73 0 101 12.5t51 62.5l261 618q10 20 10 41q0 25 -30 33t-109 8v125h1015l25 -305h-125q0 87 -22.5 118.5t-77.5 31.5h-265v-266h245v-155h-245v-294h265q55 0 77.5 31.5t22.5 118.5h125l-25 -305h-745v125q79 0 102 23t23 77v124h-309l-60 -142 q-10 -24 -10 -41q0 -25 24.5 -33t89.5 -8v-125h-414zM514 479h265v391h-103z" />
<glyph unicode="&#xe7;" horiz-adv-x="1019" d="M75 511q0 113 25 206.5t75 165.5t132 112t189 40q95 0 187 -33t151.5 -90.5t59.5 -120.5q0 -43 -47 -70t-93 -33l-47 -5q-20 82 -71 132.5t-138 50.5q-69 0 -117 -26.5t-74 -76.5t-37 -111t-11 -142q0 -80 12 -140t40.5 -109.5t82 -75.5t130.5 -26q95 0 165.5 78.5 t91.5 172.5q5 0 12.5 -1t26.5 -8t34 -17.5t27 -32t12 -49.5q0 -44 -30 -97.5t-77.5 -100t-115 -79t-135.5 -35.5v-67q84 -1 136 -59.5t52 -133.5q0 -95 -73 -152t-163 -57q-74 0 -128 25v123q32 -29 54.5 -36t73.5 -7q44 0 75 35t31 69q0 37 -24 62.5t-81 25.5q-22 0 -39 -4 t-23 -8l-7 -4v197q-174 33 -259 170t-85 342z" />
<glyph unicode="&#xe8;" horiz-adv-x="995" d="M100 0v125q50 0 80.5 6t45.5 20.5t19.5 30.5t4.5 43v575q0 35 -8.5 54.5t-42.5 32.5t-99 13v125h770l25 -305h-125q0 87 -22.5 118.5t-77.5 31.5h-265v-266h245v-155h-245v-294h265q55 0 77.5 31.5t22.5 118.5h125l-25 -305h-770zM145 1533h236q60 -151 196 -358h-98 q-106 88 -189.5 177.5t-113.5 135.5z" />
<glyph unicode="&#xe9;" horiz-adv-x="995" d="M100 0v125q50 0 80.5 6t45.5 20.5t19.5 30.5t4.5 43v575q0 35 -8.5 54.5t-42.5 32.5t-99 13v125h770l25 -305h-125q0 87 -22.5 118.5t-77.5 31.5h-265v-266h245v-155h-245v-294h265q55 0 77.5 31.5t22.5 118.5h125l-25 -305h-770zM427 1175q60 92 109 181.5t68 133.5 l19 43h236q-4 -7 -12 -18.5t-37 -50t-64 -78t-94.5 -98t-126.5 -113.5h-98z" />
<glyph unicode="&#xea;" horiz-adv-x="995" d="M100 0v125q50 0 80.5 6t45.5 20.5t19.5 30.5t4.5 43v575q0 35 -8.5 54.5t-42.5 32.5t-99 13v125h770l25 -305h-125q0 87 -22.5 118.5t-77.5 31.5h-265v-266h245v-155h-245v-294h265q55 0 77.5 31.5t22.5 118.5h125l-25 -305h-770zM161 1175q72 92 133.5 181.5t87.5 133.5 l25 43h236q85 -151 246 -358h-98q-152 114 -266 228q-114 -114 -266 -228h-98z" />
<glyph unicode="&#xeb;" horiz-adv-x="995" d="M100 0v125q50 0 80.5 6t45.5 20.5t19.5 30.5t4.5 43v575q0 35 -8.5 54.5t-42.5 32.5t-99 13v125h770l25 -305h-125q0 87 -22.5 118.5t-77.5 31.5h-265v-266h245v-155h-245v-294h265q55 0 77.5 31.5t22.5 118.5h125l-25 -305h-770zM205 1295q0 49 35.5 84.5t84.5 35.5 t84.5 -35.5t35.5 -84.5t-35.5 -84.5t-84.5 -35.5t-84.5 35.5t-35.5 84.5zM605 1295q0 49 35.5 84.5t84.5 35.5t84.5 -35.5t35.5 -84.5t-35.5 -84.5t-84.5 -35.5t-84.5 35.5t-35.5 84.5z" />
<glyph unicode="&#xec;" horiz-adv-x="610" d="M-53 1536h236q60 -151 196 -358h-98q-106 88 -189.5 177.5t-113.5 134.5zM100 0v125q90 0 120 22t30 78v575q0 58 -28 79t-122 21v125h460v-125q-66 0 -98.5 -11t-42 -30t-9.5 -59v-575q0 -57 28 -78.5t122 -21.5v-125h-460z" />
<glyph unicode="&#xed;" horiz-adv-x="610" d="M100 0v125q90 0 120 22t30 78v575q0 58 -28 79t-122 21v125h460v-125q-66 0 -98.5 -11t-42 -30t-9.5 -59v-575q0 -57 28 -78.5t122 -21.5v-125h-460zM281 1178q60 92 109 181.5t68 132.5l19 44h236q-4 -7 -12 -18.5t-37 -50t-64 -78t-94.5 -98t-126.5 -113.5h-98z" />
<glyph unicode="&#xee;" horiz-adv-x="610" d="M-34 1178q72 92 133.5 181.5t86.5 132.5l26 44h236q85 -151 246 -358h-98q-152 114 -266 228q-114 -114 -266 -228h-98zM100 0v125q90 0 120 22t30 78v575q0 58 -28 79t-122 21v125h460v-125q-66 0 -98.5 -11t-42 -30t-9.5 -59v-575q0 -57 28 -78.5t122 -21.5v-125h-460z " />
<glyph unicode="&#xef;" horiz-adv-x="610" d="M10 1298q0 50 35 85t85 35t85 -35t35 -85t-35 -85t-85 -35t-85 35t-35 85zM100 0v125q90 0 120 22t30 78v575q0 58 -28 79t-122 21v125h460v-125q-66 0 -98.5 -11t-42 -30t-9.5 -59v-575q0 -57 28 -78.5t122 -21.5v-125h-460zM410 1298q0 50 35 85t85 35t85 -35t35 -85 t-35 -85t-85 -35t-85 35t-35 85z" />
<glyph unicode="&#xf0;" horiz-adv-x="1072" d="M100 0v125q50 0 80.5 6t45.5 20.5t19.5 30.5t4.5 43v215h-150v129h150v231q0 35 -8.5 54.5t-42.5 32.5t-99 13v125h405q243 0 355 -135.5t112 -376.5q0 -115 -26.5 -206.5t-81 -161.5t-145.5 -107.5t-214 -37.5h-405zM405 154h100q88 0 148 26t92 77t45 113.5t13 148.5 q0 83 -13.5 143.5t-45.5 109t-92 73.5t-147 25h-100v-301h216v-129h-216v-286z" />
<glyph unicode="&#xf1;" horiz-adv-x="1305" d="M100 0v125q150 0 150 100v575q0 53 -32.5 76.5t-117.5 23.5v125h408l442 -716v491q0 52 -33 76t-117 24v125h455v-125q-86 0 -118 -23.5t-32 -76.5v-800h-162l-538 839v-614q0 -51 35 -75.5t115 -24.5v-125h-455zM284 1185q3 136 63.5 212t184.5 76q56 0 97 -15.5 t66 -37.5t49 -44t59.5 -37.5t83.5 -15.5q42 0 68.5 43.5t29.5 105.5h139q-2 -136 -62 -211.5t-183 -75.5q-48 0 -85.5 11t-59.5 27.5t-45 35.5t-43 35.5t-52 27.5t-73 11q-42 0 -68.5 -43.5t-29.5 -104.5h-139z" />
<glyph unicode="&#xf2;" horiz-adv-x="1139" d="M75 511q0 114 27.5 207t85 165t155 112t228.5 40t228 -40t154 -113t84 -166.5t27 -209.5q0 -113 -27.5 -204.5t-84 -162.5t-152.5 -110t-225 -39q-131 0 -229 39.5t-156.5 111t-86.5 164t-28 206.5zM200 1543h236q60 -151 196 -358h-98q-106 88 -189.5 177.5 t-114.5 135.5zM254 510q0 -376 320 -376q311 0 311 378q0 379 -312 379q-319 0 -319 -381z" />
<glyph unicode="&#xf3;" horiz-adv-x="1139" d="M75 511q0 114 27.5 207t85 165t155 112t228.5 40t228 -40t154 -113t84 -166.5t27 -209.5q0 -113 -27.5 -204.5t-84 -162.5t-152.5 -110t-225 -39q-131 0 -229 39.5t-156.5 111t-86.5 164t-28 206.5zM254 510q0 -376 320 -376q311 0 311 378q0 379 -312 379 q-319 0 -319 -381zM436 1185q60 92 109 181.5t68 133.5l19 43h236q-4 -7 -12 -18.5t-37 -50t-64 -78t-94.5 -98t-126.5 -113.5h-98z" />
<glyph unicode="&#xf4;" horiz-adv-x="1139" d="M75 511q0 114 27.5 207t85 165t155 112t228.5 40t228 -40t154 -113t84 -166.5t27 -209.5q0 -113 -27.5 -204.5t-84 -162.5t-152.5 -110t-225 -39q-131 0 -229 39.5t-156.5 111t-86.5 164t-28 206.5zM170 1185q72 92 133.5 181.5t86.5 133.5l26 43h236q85 -151 246 -358 h-98q-152 114 -266 228q-114 -114 -266 -228h-98zM254 510q0 -376 320 -376q311 0 311 378q0 379 -312 379q-319 0 -319 -381z" />
<glyph unicode="&#xf5;" horiz-adv-x="1139" d="M75 511q0 114 27.5 207t85 165t155 112t228.5 40t228 -40t154 -113t84 -166.5t27 -209.5q0 -113 -27.5 -204.5t-84 -162.5t-152.5 -110t-225 -39q-131 0 -229 39.5t-156.5 111t-86.5 164t-28 206.5zM114 1185q3 136 63.5 212t184.5 76q56 0 97 -15.5t66 -37.5t49 -44 t59.5 -37.5t83.5 -15.5q42 0 68.5 43.5t29.5 105.5h139q-2 -136 -62 -211.5t-183 -75.5q-48 0 -85.5 11t-59.5 27.5t-45 35.5t-43 35.5t-52 27.5t-73 11q-42 0 -68.5 -43.5t-29.5 -104.5h-139zM254 510q0 -376 320 -376q311 0 311 378q0 379 -312 379q-319 0 -319 -381z" />
<glyph unicode="&#xf6;" horiz-adv-x="1139" d="M75 511q0 114 27.5 207t85 165t155 112t228.5 40t228 -40t154 -113t84 -166.5t27 -209.5q0 -113 -27.5 -204.5t-84 -162.5t-152.5 -110t-225 -39q-131 0 -229 39.5t-156.5 111t-86.5 164t-28 206.5zM214 1305q0 49 35 84.5t85 35.5t85 -35.5t35 -84.5t-35 -84.5 t-85 -35.5t-85 35.5t-35 84.5zM254 510q0 -376 320 -376q311 0 311 378q0 379 -312 379q-319 0 -319 -381zM614 1305q0 49 35 84.5t85 35.5t85 -35.5t35 -84.5t-35 -84.5t-85 -35.5t-85 35.5t-35 84.5z" />
<glyph unicode="&#xf7;" horiz-adv-x="1024" d="M100 570v155h824v-155h-824zM392 235q0 49 35 84.5t85 35.5t85 -35.5t35 -84.5t-35 -84.5t-85 -35.5t-85 35.5t-35 84.5zM392 1060q0 50 35 85t85 35t85 -35t35 -85t-35 -85t-85 -35t-85 35t-35 85z" />
<glyph unicode="&#xf8;" horiz-adv-x="1189" d="M100 511q0 114 27.5 207t85 165t155 112t228.5 40q110 0 193 -27l59 100h192l-106 -181q155 -134 155 -421q0 -113 -27.5 -204.5t-84 -162.5t-152.5 -110t-225 -39q-112 0 -199 29l-72 -122h-192l119 202q-156 135 -156 412zM279 510q0 -167 65 -261l367 626 q-53 16 -113 16q-319 0 -319 -381zM478 151q54 -17 121 -17q311 0 311 378q0 171 -64 265z" />
<glyph unicode="&#xf9;" horiz-adv-x="1205" d="M50 900v125h470v-125q-84 0 -117 -23t-33 -77v-235q0 -421 229 -421q64 0 110 17.5t75 48.5t46 83t23.5 112.5t6.5 144.5v250q0 52 -28.5 76t-96.5 24v125h420v-125q-150 0 -150 -100v-150q0 -97 -4 -169t-14.5 -144.5t-29 -123t-49 -95t-73 -71.5t-101.5 -42t-134 -15 q-67 0 -120.5 10.5t-94 34t-70.5 53t-50 75t-33 92.5t-20 114t-9.5 131t-2.5 150v150q0 55 -33.5 77.5t-116.5 22.5zM222 1533h236q60 -151 196 -358h-98q-106 88 -189.5 177.5t-114.5 135.5z" />
<glyph unicode="&#xfa;" horiz-adv-x="1205" d="M50 900v125h470v-125q-84 0 -117 -23t-33 -77v-235q0 -421 229 -421q64 0 110 17.5t75 48.5t46 83t23.5 112.5t6.5 144.5v250q0 52 -28.5 76t-96.5 24v125h420v-125q-150 0 -150 -100v-150q0 -97 -4 -169t-14.5 -144.5t-29 -123t-49 -95t-73 -71.5t-101.5 -42t-134 -15 q-67 0 -120.5 10.5t-94 34t-70.5 53t-50 75t-33 92.5t-20 114t-9.5 131t-2.5 150v150q0 55 -33.5 77.5t-116.5 22.5zM504 1175q60 92 109 181.5t68 133.5l19 43h236q-4 -7 -12 -18.5t-37 -50t-64 -78t-94.5 -98t-126.5 -113.5h-98z" />
<glyph unicode="&#xfb;" horiz-adv-x="1205" d="M50 900v125h470v-125q-84 0 -117 -23t-33 -77v-235q0 -421 229 -421q64 0 110 17.5t75 48.5t46 83t23.5 112.5t6.5 144.5v250q0 52 -28.5 76t-96.5 24v125h420v-125q-150 0 -150 -100v-150q0 -97 -4 -169t-14.5 -144.5t-29 -123t-49 -95t-73 -71.5t-101.5 -42t-134 -15 q-67 0 -120.5 10.5t-94 34t-70.5 53t-50 75t-33 92.5t-20 114t-9.5 131t-2.5 150v150q0 55 -33.5 77.5t-116.5 22.5zM238 1175q72 92 133.5 181.5t86.5 133.5l26 43h236q85 -151 246 -358h-98q-152 114 -266 228q-114 -114 -266 -228h-98z" />
<glyph unicode="&#xfc;" horiz-adv-x="1205" d="M50 900v125h470v-125q-84 0 -117 -23t-33 -77v-235q0 -421 229 -421q64 0 110 17.5t75 48.5t46 83t23.5 112.5t6.5 144.5v250q0 52 -28.5 76t-96.5 24v125h420v-125q-150 0 -150 -100v-150q0 -97 -4 -169t-14.5 -144.5t-29 -123t-49 -95t-73 -71.5t-101.5 -42t-134 -15 q-67 0 -120.5 10.5t-94 34t-70.5 53t-50 75t-33 92.5t-20 114t-9.5 131t-2.5 150v150q0 55 -33.5 77.5t-116.5 22.5zM282 1295q0 49 35 84.5t85 35.5t85 -35.5t35 -84.5t-35 -84.5t-85 -35.5t-85 35.5t-35 84.5zM682 1295q0 49 35 84.5t85 35.5t85 -35.5t35 -84.5t-35 -84.5 t-85 -35.5t-85 35.5t-35 84.5z" />
<glyph unicode="&#xfd;" horiz-adv-x="1108" d="M50 900v125h451v-125q-51 0 -77.5 -12t-26.5 -42q0 -18 6 -28l109 -172q16 -25 29 -58t18 -54l5 -20q18 79 47 125l112 179q10 18 10 41q0 25 -24.5 33t-89.5 8v125h439v-125q-70 0 -96 -12.5t-56 -62.5l-262 -425v-175q0 -57 28 -78.5t122 -21.5v-125h-480v125 q90 0 120 22t30 78v175l-263 425q-30 50 -62.5 62.5t-88.5 12.5zM456 1175q60 92 109 181.5t68 133.5l19 43h236q-4 -7 -12 -18.5t-37 -50t-64 -78t-94.5 -98t-126.5 -113.5h-98z" />
<glyph unicode="&#xfe;" horiz-adv-x="947" d="M100 0v125q90 0 120 22t30 78v575q0 58 -28 79t-122 21v125h455v-125q-66 0 -98.5 -11t-42 -30t-9.5 -59v-25h100q150 0 246 -67.5t96 -206.5q0 -85 -49 -143.5t-124 -83.5t-169 -25h-100v-24q0 -57 28 -78.5t122 -21.5v-125h-455zM405 404h100q163 0 163 102 q0 114 -163 114h-100v-216z" />
<glyph unicode="&#xff;" horiz-adv-x="1108" d="M50 900v125h451v-125q-51 0 -77.5 -12t-26.5 -42q0 -18 6 -28l109 -172q16 -25 29 -58t18 -54l5 -20q18 79 47 125l112 179q10 18 10 41q0 25 -24.5 33t-89.5 8v125h439v-125q-70 0 -96 -12.5t-56 -62.5l-262 -425v-175q0 -57 28 -78.5t122 -21.5v-125h-480v125 q90 0 120 22t30 78v175l-263 425q-30 50 -62.5 62.5t-88.5 12.5zM234 1295q0 49 35 84.5t85 35.5t85 -35.5t35 -84.5t-35 -84.5t-85 -35.5t-85 35.5t-35 84.5zM634 1295q0 49 35 84.5t85 35.5t85 -35.5t35 -84.5t-35 -84.5t-85 -35.5t-85 35.5t-35 84.5z" />
<glyph unicode="&#x152;" horiz-adv-x="1859" d="M100 736q0 130 21.5 240.5t69 205.5t119.5 161.5t177 104t237 37.5l370 -10h640l25 -305h-125q0 87 -22.5 118.5t-77.5 31.5h-440v-491h395v-155h-395v-519h440q55 0 77.5 31.5t22.5 118.5h125l-25 -305h-640q-275 -10 -369 -10q-132 0 -237 37.5t-177 103.5t-120 160.5 t-69.5 205t-21.5 239.5zM279 735q0 -103 13.5 -189.5t45.5 -164t82 -131t127.5 -85t177.5 -31.5h189v1186h-191q-125 0 -213.5 -44t-137.5 -125.5t-71 -183t-22 -232.5z" />
<glyph unicode="&#x153;" horiz-adv-x="1534" d="M100 511q0 114 28 207t86 165t156 112t229 40l295 -10h515l25 -305h-125q0 87 -22.5 118.5t-77.5 31.5h-315v-266h270v-155h-270v-294h315q55 0 77.5 31.5t22.5 118.5h125l-25 -305h-515q-219 -10 -294 -10q-131 0 -229 39.5t-156.5 111t-86.5 164t-28 206.5zM279 510 q0 -376 321 -376h114v736h-116q-90 0 -153.5 -27t-99 -77.5t-51 -112.5t-15.5 -143z" />
<glyph unicode="&#x178;" horiz-adv-x="1358" d="M50 1350v125h476v-125q-63 0 -96 -12t-33 -42q0 -16 6 -28l207 -347q19 -31 38.5 -76.5t29.5 -75.5l11 -30q38 112 82 188l202 341q10 18 10 41q0 25 -30 33t-109 8v125h464v-125q-70 0 -96.5 -12.5t-55.5 -62.5l-387 -650v-400q0 -57 28 -78.5t122 -21.5v-125h-480v125 q90 0 120 22t30 78v400l-388 650q-30 50 -62.5 62.5t-88.5 12.5zM359 1745q0 49 35.5 84.5t84.5 35.5t84.5 -35.5t35.5 -84.5t-35.5 -84.5t-84.5 -35.5t-84.5 35.5t-35.5 84.5zM759 1745q0 49 35.5 84.5t84.5 35.5t84.5 -35.5t35.5 -84.5t-35.5 -84.5t-84.5 -35.5 t-84.5 35.5t-35.5 84.5z" />
<glyph unicode="&#x2c6;" horiz-adv-x="928" d="M100 1175q72 92 133.5 181.5t86.5 133.5l26 43h236q85 -151 246 -358h-98q-152 114 -266 228q-114 -114 -266 -228h-98z" />
<glyph unicode="&#x2dc;" horiz-adv-x="1040" d="M100 1175q3 136 63.5 212t184.5 76q56 0 97 -15.5t66 -37.5t49 -44t59.5 -37.5t83.5 -15.5q42 0 68.5 43.5t29.5 105.5h139q-2 -136 -62 -211.5t-183 -75.5q-48 0 -85.5 11t-59.5 27.5t-45 35.5t-43 35.5t-52 27.5t-73 11q-42 0 -68.5 -43.5t-29.5 -104.5h-139z" />
<glyph unicode="&#x2000;" horiz-adv-x="996" />
<glyph unicode="&#x2001;" horiz-adv-x="1993" />
<glyph unicode="&#x2002;" horiz-adv-x="996" />
<glyph unicode="&#x2003;" horiz-adv-x="1993" />
<glyph unicode="&#x2004;" horiz-adv-x="664" />
<glyph unicode="&#x2005;" horiz-adv-x="498" />
<glyph unicode="&#x2006;" horiz-adv-x="332" />
<glyph unicode="&#x2007;" horiz-adv-x="332" />
<glyph unicode="&#x2008;" horiz-adv-x="249" />
<glyph unicode="&#x2009;" horiz-adv-x="398" />
<glyph unicode="&#x200a;" horiz-adv-x="110" />
<glyph unicode="&#x2010;" d="M100 545v180h724v-180h-724z" />
<glyph unicode="&#x2011;" d="M100 545v180h724v-180h-724z" />
<glyph unicode="&#x2012;" d="M100 545v180h724v-180h-724z" />
<glyph unicode="&#x2013;" horiz-adv-x="1224" d="M100 545v180h1024v-180h-1024z" />
<glyph unicode="&#x2014;" horiz-adv-x="2048" d="M100 545v180h1848v-180h-1848z" />
<glyph unicode="&#x2018;" horiz-adv-x="390" d="M100 1266q0 72 42.5 144.5t126.5 119.5l41 -66q-93 -83 -97 -128q54 -4 90.5 -32t36.5 -88q0 -50 -35 -85t-85 -35q-52 0 -86 44.5t-34 125.5z" />
<glyph unicode="&#x2019;" horiz-adv-x="390" d="M50 1410q0 50 35 85t85 35q52 0 86 -44.5t34 -125.5q0 -72 -42.5 -144.5t-126.5 -119.5l-41 66q93 83 97 128q-54 4 -90.5 32t-36.5 88z" />
<glyph unicode="&#x201a;" horiz-adv-x="390" d="M50 110q0 50 35 85t85 35q52 0 86 -44.5t34 -125.5q0 -72 -42.5 -144.5t-126.5 -119.5l-41 66q93 83 97 128q-54 4 -90.5 32t-36.5 88z" />
<glyph unicode="&#x201c;" horiz-adv-x="740" d="M100 1266q0 72 42.5 144.5t126.5 119.5l41 -66q-93 -83 -97 -128q54 -4 90.5 -32t36.5 -88q0 -50 -35 -85t-85 -35q-52 0 -86 44.5t-34 125.5zM450 1266q0 72 42.5 144.5t126.5 119.5l41 -66q-93 -83 -97 -128q54 -4 90.5 -32t36.5 -88q0 -50 -35 -85t-85 -35 q-52 0 -86 44.5t-34 125.5z" />
<glyph unicode="&#x201d;" horiz-adv-x="740" d="M50 1410q0 50 35 85t85 35q52 0 86 -44.5t34 -125.5q0 -72 -42.5 -144.5t-126.5 -119.5l-41 66q93 83 97 128q-54 4 -90.5 32t-36.5 88zM400 1410q0 50 35 85t85 35q52 0 86 -44.5t34 -125.5q0 -72 -42.5 -144.5t-126.5 -119.5l-41 66q93 83 97 128q-54 4 -90.5 32 t-36.5 88z" />
<glyph unicode="&#x201e;" horiz-adv-x="740" d="M50 110q0 50 35 85t85 35q52 0 86 -44.5t34 -125.5q0 -72 -42.5 -144.5t-126.5 -119.5l-41 66q93 83 97 128q-54 4 -90.5 32t-36.5 88zM400 110q0 50 35 85t85 35q52 0 86 -44.5t34 -125.5q0 -72 -42.5 -144.5t-126.5 -119.5l-41 66q93 83 97 128q-54 4 -90.5 32 t-36.5 88z" />
<glyph unicode="&#x2022;" horiz-adv-x="640" d="M100 653q0 91 64.5 155.5t155.5 64.5t155.5 -64.5t64.5 -155.5t-64.5 -155.5t-155.5 -64.5t-155.5 64.5t-64.5 155.5z" />
<glyph unicode="&#x2026;" horiz-adv-x="1170" d="M50 110q0 50 35 85t85 35t85 -35t35 -85t-35 -85t-85 -35t-85 35t-35 85zM440 110q0 50 35 85t85 35t85 -35t35 -85t-35 -85t-85 -35t-85 35t-35 85zM830 110q0 50 35 85t85 35t85 -35t35 -85t-35 -85t-85 -35t-85 35t-35 85z" />
<glyph unicode="&#x202f;" horiz-adv-x="398" />
<glyph unicode="&#x2039;" horiz-adv-x="580" d="M100 578v61l299 391h131l-214 -421l214 -421h-132z" />
<glyph unicode="&#x203a;" horiz-adv-x="580" d="M50 188l214 421l-214 421h131l299 -391v-61l-298 -390h-132z" />
<glyph unicode="&#x205f;" horiz-adv-x="498" />
<glyph unicode="&#x20ac;" horiz-adv-x="1393" d="M100 474v130h106q-6 64 -6 132q0 43 1 64h-101v130h113q15 99 44.5 182.5t76.5 153t109.5 118t145.5 75t182 26.5q103 0 198.5 -26.5t159.5 -67t102 -87t38 -88.5q0 -27 -19.5 -48t-46.5 -32t-54.5 -18t-46.5 -8l-20 -2q-13 39 -23.5 62.5t-33.5 55t-53 48.5t-81 29.5 t-118 12.5q-165 0 -249.5 -101t-108.5 -285h497l-26 -130h-481q-1 -21 -1 -65q0 -79 5 -131h439l-26 -130h-395q32 -147 120 -218.5t252 -71.5q313 0 382 251l12.5 -2.5t26.5 -10.5t34 -22t27 -39t12 -59q0 -51 -34.5 -105.5t-95.5 -101t-156.5 -76t-206.5 -29.5 q-239 0 -381.5 129t-192.5 355h-126z" />
<glyph unicode="&#x2122;" horiz-adv-x="2230" d="M100 1270l19 213h706l18 -213h-94q0 57 -14.5 77t-51.5 20h-144v-708q0 -35 18.5 -49.5t81.5 -14.5v-95h-335v94q63 0 81.5 15t18.5 50v708h-143q-37 0 -52 -20t-15 -77h-94zM934 500v94q4 0 11 0.5t24 3t30 7t24 14.5t11 24v697q0 22 -25 34t-50 14l-25 1v94h269 l332 -795l333 795h262v-94q-4 0 -11 -0.5t-24 -3t-30 -7t-24 -14.5t-11 -24v-697q0 -22 25 -34t50 -13l25 -2v-94h-310v94q3 0 8 0.5t18 3t23 7t18 14.5t8 23v646l-331 -788h-98l-334 801v-658q0 -22 28 -34t56 -13l28 -2v-94h-310z" />
<glyph unicode="&#x25fc;" horiz-adv-x="1025" d="M0 0v1025h1025v-1025h-1025z" />
<glyph unicode="&#xfb01;" horiz-adv-x="1605" d="M100 0v125q50 0 80.5 6t45.5 20.5t19.5 30.5t4.5 43v575q0 35 -8.5 54.5t-42.5 32.5t-99 13v125h770l25 -305h-125q0 87 -22.5 118.5t-77.5 31.5h-265v-266h245v-155h-245v-224q0 -27 4.5 -43t19.5 -30.5t45.5 -20.5t80.5 -6v-125h-455zM1095 0v125q90 0 120 22t30 78 v575q0 58 -28 79t-122 21v125h460v-125q-66 0 -98.5 -11t-42 -30t-9.5 -59v-575q0 -57 28 -78.5t122 -21.5v-125h-460z" />
<glyph unicode="&#xfb02;" horiz-adv-x="2015" d="M100 0v125q50 0 80.5 6t45.5 20.5t19.5 30.5t4.5 43v575q0 35 -8.5 54.5t-42.5 32.5t-99 13v125h770l25 -305h-125q0 87 -22.5 118.5t-77.5 31.5h-265v-266h245v-155h-245v-224q0 -27 4.5 -43t19.5 -30.5t45.5 -20.5t80.5 -6v-125h-455zM1095 0v125q50 0 80.5 6 t45.5 20.5t19.5 30.5t4.5 43v575q0 35 -8.5 54.5t-42.5 32.5t-99 13v125h480v-125q-50 0 -81.5 -6.5t-45.5 -21.5t-18.5 -30.5t-4.5 -41.5v-645h265q55 0 77.5 31.5t22.5 118.5h125l-25 -305h-795z" />
</font>
</defs>
</svg>
