<?xml version="1.0" standalone="no"?>
<!DOCTYPE svg PUBLIC "-//W3C//DTD SVG 1.1//EN" "http://www.w3.org/Graphics/SVG/1.1/DTD/svg11.dtd" >
<svg xmlns="http://www.w3.org/2000/svg" xmlns:xlink="http://www.w3.org/1999/xlink" version="1.1">
<metadata></metadata>
<defs>
<font id="youreinvitedregular" horiz-adv-x="681" >
<font-face units-per-em="2048" ascent="1638" descent="-410" />
<missing-glyph horiz-adv-x="512" />
<glyph horiz-adv-x="0" />
<glyph horiz-adv-x="0" />
<glyph horiz-adv-x="682" />
<glyph unicode="&#xd;" horiz-adv-x="512" />
<glyph unicode=" "  horiz-adv-x="512" />
<glyph unicode="&#x09;" horiz-adv-x="512" />
<glyph unicode="&#xa0;" horiz-adv-x="512" />
<glyph unicode="!" d="M6 76q0 31 22.5 53.5t53.5 22.5t53.5 -22.5t22.5 -53.5t-22.5 -53.5t-53.5 -22.5t-53.5 22.5t-22.5 53.5zM190 293q18 29 190.5 317t327.5 542.5t177 279.5q18 21 45 15.5t38 -27t-1 -48.5q-13 -23 -371 -527.5t-393 -559.5q-1 -2 -5 -1.5t-7 3t-1 6.5z" />
<glyph unicode="&#x22;" d="M440.5 1350q1.5 29 7 55.5t20.5 39.5t38 13t37.5 -13t20 -40t7 -55.5t-3 -72.5t-9 -78t-12 -85.5t-11.5 -81.5q-3 -28 -16 -39.5t-26 0t-16 39.5q-4 30 -11.5 81t-12.5 85.5t-9.5 78.5t-3 73zM704.5 1350q1.5 29 7 55.5t20.5 39.5t38 13t37.5 -13t20 -40t7 -55.5 t-3 -72.5t-9 -78t-12 -85.5t-11.5 -81.5q-3 -28 -16 -39.5t-26 0t-16 39.5q-4 30 -11.5 81t-12.5 85.5t-9.5 78.5t-3 73z" />
<glyph unicode="#" horiz-adv-x="1024" d="M311 362l23 58h184l96 256h-178l23 57h178l133 352h68l-133 -352h225l133 352h67l-133 -352h150l-25 -57h-145l-98 -256h143l-25 -58h-139l-137 -362h-68l138 362h-226l-137 -362h-68l138 362h-187zM586 420h225l98 256h-227z" />
<glyph unicode="$" horiz-adv-x="1320" d="M125 343q0 65 22.5 118.5t64.5 92t97 48.5q37 7 51 -12q8 -11 -4 -12q-60 -7 -104 -45.5t-60 -95t-10 -118.5t47.5 -123t110.5 -102q18 -11 47 -22l322 600q-76 88 -117 166.5t-37 165.5q3 76 36.5 136.5t85.5 96t114.5 55.5t127 19t121.5 -19l95 176l22 -36l-82 -152 q42 -19 76 -53q52 -55 70 -119t4.5 -116t-42 -93.5t-67.5 -60t-72 -7.5q-16 5 -20 23q0 8 4 8q58 -10 109 37q15 15 29.5 44t23.5 69t-4 88.5t-51 89.5q-34 37 -78 55l-291 -545q43 -44 72 -76.5t66.5 -80.5t58.5 -87t33 -84.5t5 -84.5q-26 -146 -164 -243t-288 -85 q-91 9 -162 33l-65 -123l-23 37l53 100q-78 35 -131 91.5t-74.5 118.5t-21.5 127zM422 57q66 -22 135.5 -24.5t132 15t114.5 49.5t86 81.5t42 108.5q6 41 -4.5 82t-38.5 84t-53 73.5t-69 80.5q-21 24 -32 36zM593 1009.5q-3 -45.5 17 -99.5t64 -107q3 -3 26 -30.5t39 -43.5 l283 531q-45 15 -94.5 15.5t-96 -11.5t-89 -36t-75.5 -56.5t-52 -74.5t-22 -87.5zM709 672q14 -14 26 -29l31 57l-27 29z" />
<glyph unicode="%" horiz-adv-x="1447" d="M140 588q-41 102 11 240q51 135 154 212q83 62 174 62q55 0 95 -21t63 -51.5t43.5 -60.5t49.5 -51t67 -21q44 0 86 17t71.5 44t48 48.5t29.5 40.5q42 75 80 75q24 -1 27 -32q1 -6 -23 -43.5t-62.5 -90.5t-75 -102t-71.5 -95t-41 -54q-95 -127 -247 -335.5t-242.5 -331 t-93.5 -122.5q-2 0 -3.5 2.5t-1.5 6v7.5t0.5 8t0.5 5q-1 3 72.5 108t260 369.5t363.5 519.5l-4 4q-82 -74 -178 -74q-19 0 -47 7t-41 7t-13 -14q0 -98 -46 -190t-129 -151.5t-181 -59.5q-150 1 -196 117zM180 737q-8 -102 39.5 -169.5t130.5 -67.5q96 0 173 79.5t102 200.5 q23 117 -25 199t-139 82q-61 0 -113.5 -29.5t-87 -76.5t-55 -103.5t-25.5 -114.5zM759 119q-40 102 11 240q51 135 154 212q83 62 174 62q101 0 158 -62.5t57 -167.5q1 -97 -45.5 -189.5t-131 -152t-182.5 -59.5q-149 1 -195 117zM807 266q-8 -101 39.5 -169t128.5 -68 q96 0 173.5 80t100.5 202q23 116 -24 198.5t-138 82.5q-81 0 -144.5 -51t-96.5 -123.5t-39 -151.5z" />
<glyph unicode="&#x26;" horiz-adv-x="1294" d="M0 446q0 97 33.5 187.5t81 153.5t95.5 114t81.5 89t34.5 59q0 22 -19.5 85.5t-19.5 102.5q0 84 65 153.5t168 69.5q59 0 98 -26.5t50 -63t2.5 -74t-35.5 -59.5q-18 -16 -26 -11q-2 1 -1 5q5 10 5.5 39t-7 65t-41 63t-88.5 27q-48 0 -82.5 -36t-34.5 -80q0 -37 19 -105.5 t18 -85.5q0 -56 -59 -125q-16 -20 -51.5 -60t-57.5 -66.5t-52 -72t-47.5 -87t-30.5 -99.5t-13 -121q0 -220 134.5 -336t365.5 -116q99 0 176.5 31.5t124 81t76 116t40.5 129.5t11 129q0 58 -16.5 115t-47 106t-80.5 79t-112 30q-104 0 -180 -73.5t-76 -180.5q0 -127 94 -166 q13 -5 27.5 -9t23.5 -5t16.5 -2.5t10 -3.5t0.5 -6q-7 -13 -34 -25t-62 -12q-74 0 -114.5 56t-35.5 126q3 58 26.5 113t57.5 99t89 90.5t107 80.5t127 76t133 70.5t141 70.5t136 70q101 54 191 117t175.5 142t136 170.5t50.5 180.5q0 111 -68 178.5t-165 67.5 q-39 0 -77.5 -10.5t-57.5 -20.5t-27 -16q-10 -8 -18 -3q-4 4 4 11q90 90 227 90q95 0 165 -71.5t62 -192.5q-30 -419 -610 -740q-102 -57 -292 -132.5t-236 -96.5q-38 -17 -37 -31q0 -7 8 -4q19 9 57.5 16t59.5 7q24 0 57 -6.5t80.5 -30t86 -60t66 -105.5t27.5 -159 q0 -98 -35 -186t-94.5 -153t-136 -112.5t-161.5 -71.5t-169 -24q-104 0 -195.5 29.5t-163.5 86t-113.5 148t-41.5 207.5z" />
<glyph unicode="'" horiz-adv-x="454" d="M434 1349q1 30 6.5 56t20 39.5t37.5 13.5t37.5 -13.5t20 -39.5t6.5 -56t-3.5 -73t-9.5 -78.5t-12.5 -84.5t-10.5 -81q-3 -28 -16 -39t-25.5 0t-15.5 39q-3 32 -10.5 81t-12 84.5t-9 78.5t-3.5 73z" />
<glyph unicode="(" horiz-adv-x="716" d="M0 -248q3 467 141.5 849.5t424.5 680.5t710 481v-30q-260 -132 -489 -349t-394.5 -477t-261.5 -561.5t-96 -593.5h-35z" />
<glyph unicode=")" horiz-adv-x="796" d="M-16 -217q260 133 489 349.5t394.5 476.5t261.5 561t96 593h35q-3 -466 -141 -848.5t-424.5 -681t-710.5 -481.5v31z" />
<glyph unicode="*" d="M470 1029.5q6 24.5 42 47.5q17 11 39.5 22t39.5 18t44.5 17.5t40.5 16.5q-12 5 -40.5 16.5t-45 18t-39 18t-39.5 23.5q-27 17 -37.5 35.5t-2.5 29t27 12.5t50 -14q19 -10 40 -24t35 -25t37.5 -29t34.5 -26q-1 8 -6 41.5t-7 48.5t-4 41t-1 47q2 43 19.5 60t35 0t19.5 -60 q2 -46 -17 -178q10 8 43.5 34t56.5 42t46 28q39 18 62 13t17 -29.5t-42 -46.5q-17 -12 -39.5 -23.5t-39 -18t-45 -18t-40.5 -16.5q13 -6 40.5 -16.5t44.5 -17.5t39.5 -18t39.5 -22q27 -17 37.5 -36.5t2.5 -30.5t-27 -13t-50 15q-23 12 -46 28t-56.5 42t-43.5 34 q19 -132 17 -178q-2 -43 -19.5 -60t-35 0t-19.5 60q-1 21 1 47t4 41t7 48.5t6 41.5q-11 -8 -34.5 -26t-37.5 -29t-35 -25t-40 -24q-39 -17 -62 -12t-17 29.5z" />
<glyph unicode="+" d="M152 324l22 57h207l76 194h67l-75 -194h198l-24 -57h-195l-78 -199h-67l77 199h-208z" />
<glyph unicode="," horiz-adv-x="512" d="M128 -177l11 23q29 25 57.5 70t32.5 88q-59 -23 -85 21q-22 37 -2 81q21 46 73 46q36 0 58 -28.5t22 -66.5q0 -71 -42.5 -132.5t-113.5 -104.5q-15 -9 -11 3z" />
<glyph unicode="-" d="M152 324l22 57h473l-24 -57h-471z" />
<glyph unicode="." horiz-adv-x="512" d="M135 76q0 31 22.5 53.5t53.5 22.5t53.5 -22.5t22.5 -53.5t-22.5 -53.5t-53.5 -22.5t-53.5 22.5t-22.5 53.5z" />
<glyph unicode="/" horiz-adv-x="569" d="M168 -33l696 1491h66l-697 -1491h-65z" />
<glyph unicode="0" horiz-adv-x="1390" d="M114.5 436.5q-9.5 166.5 67.5 378.5q41 112 94.5 209.5t127.5 184.5t158.5 145t192.5 84t224 8q97 -15 170 -84.5t109 -172t31.5 -236.5t-54.5 -271q-137 -380 -362 -560.5t-476 -107.5q-123 37 -198 146.5t-84.5 276zM163.5 375q1.5 -59 18.5 -118t52.5 -102t96 -77.5 t144.5 -52.5q43 -7 87 -6t92.5 19t96 46.5t97.5 77t97 109.5t94 144t89 181q57 133 80.5 258t13 224.5t-47 176.5t-100 122t-144.5 53q-95 9 -185.5 -22t-163.5 -91t-137.5 -145.5t-112 -180.5t-83.5 -200q-27 -79 -44.5 -144t-29.5 -139t-10.5 -133z" />
<glyph unicode="1" horiz-adv-x="675" d="M104 6q20 49 106 255.5t229 534.5t223 486q-78 -78 -170 -108q-68 -20 -118.5 -18t-87.5 24.5t-58 49t-29 54.5q-11 38 -1 61q8 20 24 -11q0 -2 1 -3q14 -30 38 -56t63 -48.5t88.5 -25t113.5 15.5q97 34 172 135q9 16 35 55q30 38 44 30q9 -4 -1 -18 q-41 -61 -116.5 -226.5t-154 -359.5t-151 -377.5t-121 -310.5t-49.5 -129q-11 -19 -54 -21q-28 1 -26 11z" />
<glyph unicode="2" horiz-adv-x="1316" d="M88.5 76q23.5 40 104.5 51q81 9 223 -39q84 42 168.5 102t175.5 145.5t177 204t153 255.5q52 106 78 197.5t26.5 155.5t-15.5 115.5t-43.5 83t-62.5 52.5t-67 29t-62 8q-39 0 -80.5 -14t-82.5 -41t-74 -75.5t-48 -109.5q-10 -40 -3 -67.5t20.5 -46t29 -29t22.5 -16 t1 -7.5q-55 -19 -92 3.5t-48.5 64.5t-4.5 88q9 49 38.5 97t76.5 89.5t118 67.5t152 26q130 0 204 -60t86.5 -161.5t-18.5 -228.5t-104 -266q-67 -129 -154.5 -240.5t-180 -193t-177.5 -139.5t-172 -101q201 -64 362 -53q72 4 127 44t70 95t-13 114q-7 15 11 14q23 -2 51 -18 q39 -24 31 -85q-12 -76 -90 -135q-98 -72 -257 -72q-63 0 -131.5 13t-106.5 25t-104 35q-108 -47 -184 -61q-74 -15 -114 14.5t-16.5 69.5zM125 62q-16 -27 11.5 -41.5t86.5 -2.5q70 14 144 48q-112 37 -170 32q-53 -4 -72 -36z" />
<glyph unicode="3" horiz-adv-x="1236" d="M96 332q-3 119 67 190t183 68q37 0 53 -21v-1v-2t-0.5 -2.5t-2.5 -2.5t-4.5 -2.5t-7.5 -2.5t-11 -1q-67 -6 -111 -43q-60 -51 -81 -119t-4.5 -138.5t65.5 -135.5q81 -109 260 -109q84 0 163.5 43t138 112t100.5 157.5t57.5 176.5t1.5 172t-60 142q-4 6 -16 18 q-70 -24 -144 -24t-107 21t-30 51q1 19 22.5 33t63.5 18t103 -15q49 -13 98 -47q71 38 118.5 95.5t65 118t9 121.5t-40.5 108.5t-92 77.5t-138 30q-119 0 -200 -55t-78 -152q1 -57 35 -88t67 -10q5 4 8.5 4.5t5.5 -0.5t2 -2q5 -5 -4 -10q-25 -17 -60.5 -21t-67.5 5.5 t-55 34.5t-24 61q-2 81 56 143t140 90.5t169 28.5q94 0 165 -26.5t108.5 -70.5t55 -99t7 -115t-37 -115t-75.5 -102t-110 -74q63 -56 93 -143.5t26 -183t-43 -192.5t-104.5 -173.5t-170 -125t-229.5 -48.5q-170 0 -281.5 106t-116.5 246zM643 879q-5 -18 23 -35t73 -17 q59 0 123 27q-64 46 -137 49q-37 3 -58 -4.5t-24 -19.5z" />
<glyph unicode="4" horiz-adv-x="1302" d="M64.5 524q15.5 35 85.5 51q77 18 215 -10q79 60 166.5 150.5t178 207t147 193t139 196t87.5 126.5q10 14 76 10q55 -3 50 -16q0 -1 -1 -2q-44 -48 -147 -176.5t-196 -243.5t-222.5 -246t-241.5 -207q50 -13 177 -51t198 -55q264 612 332 700q25 30 35 22q6 -4 -2 -14 q-78 -117 -303 -723q165 -32 303 -10q40 7 46 -11q3 -13 -13 -18q-182 -44 -357 -14q-36 -97 -70.5 -192t-49.5 -138.5t-17 -46.5q-10 -18 -63 -21q-39 0 -37 11q1 3 20.5 47.5t65.5 150.5t88 203q-84 21 -214 75.5t-167 66.5q-99 -64 -189 -82q-60 -13 -97.5 9.5t-22 57.5z M108.5 507q0.5 -15 18.5 -25t49 -7q67 5 166 72q-97 26 -178 10q-27 -6 -41.5 -20.5t-14 -29.5z" />
<glyph unicode="5" horiz-adv-x="1423" d="M98 258q0 47 16 87t40 65.5t52.5 42.5t54 24t44.5 6q33 -2 33 -8q0 -5 -23 -10q-121 -30 -138.5 -152.5t76.5 -231t251 -101.5q82 3 153.5 20.5t142.5 59.5t123 105t89 163t47 229q7 95 -26 168.5t-91.5 115.5t-134 63.5t-154 20t-149.5 -21.5q-59 -135 -96 -182 q-61 -77 -116 -76q-37 0 -43 37q-7 45 36 104q67 91 188 136q81 224 125 311q31 61 61 100q39 51 107 76.5t141 26t130.5 -7t99.5 -19.5q22 -6 42.5 -8t36.5 -0.5t31 5.5t26 9t20.5 10.5t16 9.5t11 6.5t6.5 1t2 -6.5q0 -25 -73.5 -56.5t-172 -44.5t-196.5 13 q-165 50 -244 -111q-29 -62 -127 -303q67 19 138.5 21.5t140.5 -9.5t130.5 -44t108 -78t74 -115t27.5 -152q0 -136 -53.5 -251t-143 -190.5t-206 -118t-243.5 -42.5q-174 0 -282.5 84.5t-108.5 218.5zM288.5 712.5q0.5 -23.5 14.5 -32.5q23 -11 59.5 25t67.5 100q8 18 33 84 q-63 -23 -101 -55q-33 -27 -53.5 -62.5t-20 -59z" />
<glyph unicode="6" horiz-adv-x="1335" d="M113 391q0 142 35.5 281.5t96 254t141.5 213.5t171 166.5t186.5 105.5t186.5 38q76 0 132 -17.5t83 -39.5t42.5 -52.5t18 -47.5t2.5 -33q0 -57 -34 -119.5t-70 -77.5q-34 -13 -42 -4q-3 3 3 8q18 13 40.5 72t22.5 100q0 92 -45 141.5t-157 49.5q-95 0 -191 -48.5 t-177 -131t-152.5 -193t-121 -231.5t-78 -250.5t-28.5 -247.5q0 -132 79.5 -222t184.5 -90q107 0 203.5 59.5t163 156t106 221t39.5 252.5q0 38 -12.5 77.5t-37 75.5t-67.5 59t-96 23q-15 0 -32 -1.5t-49 -8.5t-62.5 -19t-68.5 -36.5t-70.5 -57.5t-65.5 -84.5t-57 -114.5 q-3 -7 -8 -9t-8.5 2t-2.5 10q5 43 35.5 98.5t82 111.5t133.5 94t175 38q134 0 210.5 -91.5t76.5 -224.5q0 -80 -28 -171t-82.5 -176.5t-125.5 -155t-165 -112t-193 -42.5q-141 0 -232 120.5t-91 280.5z" />
<glyph unicode="7" horiz-adv-x="1005" d="M147 1174q63 198 66 210q5 22 24 27q10 2 11 -6q0 -10 10 -18t23 -1q38 21 98 26.5t154.5 -15.5t197.5 -72q103 -50 182 -63q82 119 140 139q48 17 79 12t43.5 -24t4.5 -43q-28 -91 -242 -123q-37 -68 -61 -125q-81 -187 -189.5 -455.5t-179.5 -450.5l-70 -182 q-10 -18 -52 -21q-30 0 -28 11q0 1 15.5 41.5t42 109t60.5 156.5t76.5 191.5t86 205.5t91.5 207.5t91 188.5q13 24 35.5 65.5t30.5 55.5q-52 1 -117 21.5t-118.5 43.5t-127 42.5t-141.5 19.5q-45 0 -85 -21.5t-65.5 -53t-41 -59t-21.5 -49.5q-5 -18 -17 -7q-9 8 -6 16z M956 1255q89 -4 158 50q46 37 29 66q-16 24 -59 14q-29 -6 -56 -29q-29 -26 -72 -101z" />
<glyph unicode="8" horiz-adv-x="1236" d="M111 262q-24 134 56.5 265t254.5 206q30 13 131.5 56t144.5 63q90 43 149.5 115.5t73.5 148.5t0 144.5t-68 112.5t-134 44q-71 0 -131 -56t-89 -131t-21.5 -154.5t59.5 -121.5q16 -12 31.5 -21.5t27.5 -13.5t23 -7t17.5 -3.5t12 -1.5t6 -1.5t-1.5 -4.5q-6 -6 -25 -7 t-51.5 8.5t-62.5 31.5q-53 38 -74 102.5t-7 133.5t50 131.5t100.5 103.5t139.5 43q89 2 154.5 -42.5t88 -117.5t11 -155t-81 -166t-184.5 -140q-81 -37 -103 -45q-109 -41 -192 -100t-128.5 -117t-72 -119t-32 -106.5t0.5 -79.5q24 -124 101 -191t209 -67q88 0 172.5 45.5 t142 113.5t90 149t25.5 151q-10 90 -49 150t-93 85q-38 18 -69 18t-68 -14q-4 -4 -6 4q-1 4 0 9q0 14 13.5 31t45.5 24q72 15 150.5 -44t113.5 -164t-12 -245q-54 -140 -174 -236.5t-282 -96.5q-95 0 -173 28.5t-135 93t-75 158.5z" />
<glyph unicode="9" horiz-adv-x="1224" d="M92 268q0 37 25.5 88.5t62.5 71.5q30 19 58 10q15 -5 8 -12q-26 -22 -47 -73.5t-21 -119.5q0 -103 70.5 -160t191.5 -57q99 0 190.5 53.5t159.5 141t124.5 197.5t91.5 226t54 223t19 192q0 52 -5 97.5t-21.5 98.5t-43 90.5t-74.5 62.5t-112 25q-104 0 -200.5 -69.5 t-158 -169t-94.5 -206.5t-24 -185q9 -82 64 -147.5t145 -65.5q59 0 110.5 21.5t90 59t67 80.5t49.5 93q1 3 4.5 3.5t4.5 -1.5q9 -5 4 -21q-8 -23 -23 -54.5t-45.5 -75.5t-67 -79.5t-90 -60.5t-110.5 -25q-76 0 -140.5 51t-98.5 124.5t-34 146.5q0 120 52.5 234t133.5 194 t178 129t185 49q89 0 156 -40t102 -104t51.5 -130t16.5 -132q0 -127 -28.5 -257t-78 -245.5t-119.5 -217t-151 -174.5t-174.5 -115.5t-187.5 -42.5q-37 0 -87.5 16t-104.5 47t-91 87.5t-37 127.5z" />
<glyph unicode=":" horiz-adv-x="512" d="M135 78q0 34 21.5 56t56.5 22q29 0 51.5 -24t22.5 -54q0 -29 -23.5 -51.5t-52.5 -22.5q-32 0 -54 21t-22 53zM483 608q0 33 23.5 54.5t56.5 21.5q30 0 51 -24t21 -54q0 -32 -22.5 -53t-53.5 -21q-34 0 -55 21t-21 55z" />
<glyph unicode=";" horiz-adv-x="512" d="M128 -177l11 23q29 25 57.5 70t32.5 88q-59 -23 -85 21q-22 37 -2 81q21 46 73 46q36 0 58 -28.5t22 -66.5q0 -71 -42.5 -132.5t-113.5 -104.5q-15 -9 -11 3zM483 608q0 32 23.5 54t56.5 22q26 0 49 -22t23 -48q0 -32 -22.5 -57t-53.5 -25q-34 0 -55 21t-21 55z" />
<glyph unicode="&#x3c;" horiz-adv-x="1232" d="M391 338q167 41 379 113t348 129l23 -15q-102 -55 -261 -123.5t-270 -101.5q113 -34 273 -102.5t258 -122.5l-23 -15q-126 54 -339 124.5t-388 113.5z" />
<glyph unicode="=" horiz-adv-x="1228" d="M434 182v70h705v-70h-705zM434 453v69h705v-69h-705z" />
<glyph unicode="&#x3e;" horiz-adv-x="1228" d="M483 115q98 54 258 122.5t273 102.5q-111 33 -270 101.5t-261 123.5l23 15q136 -57 348 -129t379 -113q-175 -43 -388 -113.5t-339 -124.5z" />
<glyph unicode="?" horiz-adv-x="909" d="M143 76q0 31 22.5 53.5t53.5 22.5t53.5 -22.5t22.5 -53.5t-22.5 -53.5t-53.5 -22.5t-53.5 22.5t-22.5 53.5zM285 1016q0 102 52.5 193.5t134 151.5t179.5 95t191 35q175 0 275 -104t100 -265q0 -142 -110 -292t-280 -228q-206 -96 -281 -139q-174 -101 -222 -197 q-5 -11 -22 -2q-9 5 -5 10q39 66 99.5 119.5t129.5 92t137.5 71t143 73.5t125.5 83q217 180 217 432q0 143 -89 227t-231 84q-78 0 -164.5 -35t-158.5 -92t-119 -139t-47 -168q0 -96 57.5 -170t163.5 -74q27 0 27 -9q0 -10 -22 -14q-5 -1 -11 -1q-108 0 -189 71t-81 191z " />
<glyph unicode="@" horiz-adv-x="1638" d="M229 680q0 170 61.5 317t167 247t247.5 157t301 57q156 0 289.5 -50t225 -135.5t143.5 -202.5t52 -249q0 -218 -124 -375q-88 -112 -198 -142q-108 -30 -170 37q-82 90 -34 306l-26.5 -53t-28.5 -52.5t-35 -54t-38.5 -47t-46.5 -42.5t-53.5 -30.5t-64 -19.5t-72.5 -2 q-113 9 -155 123t4 268q49 165 171 266q113 94 257 97q80 1 126.5 -28t57.5 -60q13 39 19 49q6 20 43 6q19 -8 18 -14q-6 -6 -47 -150.5t-62 -236.5q-45 -199 29 -276q52 -55 139 -22q92 35 158 144q80 132 80 307q0 176 -89 314.5t-238 213t-330 74.5q-137 0 -261.5 -51 t-221.5 -145t-154.5 -238.5t-57.5 -318.5q0 -115 55 -232.5t148 -211.5t228.5 -153t283.5 -59q64 0 123 9.5t120 31.5t91.5 35.5t93.5 42.5q7 3 18 -3t12.5 -15t-14.5 -19q-89 -48 -208.5 -87.5t-233.5 -39.5q-162 0 -298.5 46.5t-227 120.5t-154 169.5t-91.5 190.5t-28 186 zM744 741q-32 -127 11 -227q37 -90 114 -96q53 -4 114 35q82 54 153.5 192.5t118.5 300.5q11 35 -37.5 66.5t-137 29t-171.5 -58.5q-127 -86 -165 -242z" />
<glyph unicode="A" horiz-adv-x="1775" d="M10 375q1 86 26.5 154t63.5 107.5t87 65t90.5 34.5t80.5 9q60 0 96 -30t46 -62q10 -30 -4 -44q-7 -8 -15 3q-5 12 -8.5 18.5t-18.5 22t-33.5 24t-54.5 15.5q-32 6 -72 6h-11q-26 -1 -56 -10t-64 -32.5t-60 -57.5q-25 -34 -41 -89q-13 -46 -13 -101v-21q3 -73 42.5 -151 t118 -145t177.5 -89q65 -14 127 -14q60 0 116 14q114 26 191 96q63 59 131.5 135t146.5 177t135.5 178t153 208t144.5 197q90 118 177 211t150.5 143.5t105 77t65.5 33.5q14 4 13 -4q0 -7 -11 -27q-37 -56 -148 -333q-24 -56 -117.5 -308t-186 -507t-97.5 -267 q-5 -21 -47 -27q-40 -6 -43 10q-1 4 2 9q31 46 258 649q-83 -9 -316 -12q-52 -79 -123 -178q-86 -123 -165.5 -212.5t-169 -160t-186.5 -106t-201 -35.5q-222 0 -352 108t-130 318zM491 1121q8 84 48 154.5t87.5 117t98.5 73.5q44 23 82.5 37.5t102.5 26.5q54 10 111 9h19 q68 -2 164.5 -21t206.5 -58q64 -22 118.5 -39t91.5 -27t68 -15.5t48 -8t33 -0.5t21 2.5t14 4t10 3.5q16 6 15 0q-3 -9 -20 -20q-5 -4 -23.5 -10t-57.5 -11t-87 -5t-117.5 13t-142.5 39q-58 21 -101.5 35t-109 31t-117.5 24.5t-115 8.5h-10q-57 -1 -103 -11 q-50 -12 -100.5 -38.5t-88.5 -69.5q-57 -66 -81 -145q-16 -54 -17 -104q0 -23 4 -46q11 -71 41 -135t75.5 -108.5t94.5 -61.5q63 -21 105 -21q21 0 36 5q16 7 18 -1q2 -10 -30 -21l-4 -1q-8 -2 -26.5 -2t-46.5 2q-187 14 -265 139q-20 32 -31 70q-21 78 -21 146q0 20 2 39z M1354 664q111 0 307 8q195 537 217 577q54 110 55 122q0 4 -4 3q-122 -50 -575 -710z" />
<glyph unicode="B" horiz-adv-x="1808" d="M0 238v6q0 55 17 106q18 54 32 70q21 24 25 19q1 -2 0 -5q-8 -16 -14 -46q-7 -32 -7 -75q0 -39 7 -81q8 -44 33.5 -87t66 -77t110 -55t160.5 -21q79 0 146 15.5t113 33.5t88.5 62t65 69t51.5 88t37.5 86.5t33.5 94.5q16 45 24 67q218 585 361 924q-121 59 -314 59 q-158 0 -288.5 -36.5t-220.5 -99.5t-152 -148.5t-90.5 -181.5t-28.5 -200q0 -85 20 -154t51.5 -112t72 -73t79 -43t76.5 -15q18 0 21 -11q2 -5 -5 -7h-2q-25 -1 -52.5 1t-73.5 11.5t-92.5 37.5t-82.5 72q-54 64 -75 152q-14 59 -14 119q0 28 3 56q10 87 38.5 168t72.5 144 q68 98 163.5 169t200.5 108q105 36 207 52q85 13 170 13h33q119 -3 216 -23t172.5 -58.5t117.5 -101.5t43 -146v-6q0 -68 -22 -128q-23 -62 -59.5 -103.5t-69 -67t-62.5 -39.5q22 -2 57 -15q256 -101 256 -395q0 -93 -34 -179.5t-96 -154.5t-156 -108q-92 -39 -202 -39h-5 q-205 3 -248 138q-10 30 -10 77q0 40 23.5 79.5t45.5 51.5q2 -1 0.5 -1.5t-5 -9t-7 -19t-6 -31t-2.5 -44.5q0 -69 59.5 -134.5t149.5 -65.5q212 0 313.5 116t101.5 326q0 149 -97 250.5t-238 103.5q-47 0 -134 -6q-85 -248 -166 -408.5t-175.5 -255.5t-197.5 -132 q-98 -35 -227 -35h-14q-97 1 -171 24.5t-113.5 56t-64.5 75t-32 73.5t-8 60zM1194 852q27 1 53 1q68 0 129 -9q66 26 116 110.5t50 186.5q0 158 -129 252q-72 -123 -219 -541z" />
<glyph unicode="C" horiz-adv-x="1386" d="M-14 620q0 6 -1 12q1 112 27 208q28 100 60 175t71 134q27 40 64 81.5t97 88.5t128.5 83.5t161 61.5t190.5 27h23q284 0 450 -164q132 -131 150 -321q3 -28 2 -55q0 -151 -79 -277q-100 -162 -288 -207q-64 -16 -135 -16q-229 0 -331 143q-60 85 -60 191q0 28 4 57 q17 125 98 199q47 43 105 53q17 3 21 -5q2 -4 -5 -5q-1 -1 -2 -1q-39 -10 -71.5 -47t-49.5 -90q-16 -52 -21 -114q-1 -13 -1 -26q0 -48 15 -96q19 -60 54.5 -110t103.5 -82t157 -35h10q73 1 136 29q67 30 111 80t76 114.5t46.5 127t17.5 122.5v21q-1 56 -13 113 q-16 68 -54 136.5t-95.5 121t-149.5 85.5t-204 33q-152 0 -277 -50.5t-208 -133.5t-140 -193.5t-82.5 -227.5t-25.5 -238q0 -176 88.5 -320t243.5 -225q153 -80 339 -80h5q135 0 228 26.5t179 73.5q11 7 10 -1q-3 -15 -22 -27q-23 -14 -52 -27.5t-88.5 -35t-147.5 -34.5 t-189 -14h-4q-226 0 -404 121q-180 122 -235 303q-35 117 -37 237z" />
<glyph unicode="D" horiz-adv-x="1660" d="M-69 -9q1 11 16 23q48 36 134 56t175 20h10q84 0 170 -8l19 -2q30 19 57 53t54.5 93.5t44.5 102.5t49.5 133t48.5 132q136 361 206 500q29 60 64 107t63 71t55 39.5t41 19.5t21 4q11 0 3 -6q-3 -2 -5 -4q-64 -51 -114.5 -139t-124.5 -285q-49 -128 -83.5 -214 t-88.5 -209.5t-101.5 -206.5t-85.5 -119q-34 -34 -84 -74q71 -8 177.5 -24t174 -25t146.5 -13q16 -1 31 -1q61 0 111 12q63 14 114 47q95 61 167 192q72 132 104 266q28 119 28 216v24q-12 333 -193.5 511t-531.5 190h-13q-26 0 -61 -3q-44 -4 -113.5 -19.5t-138 -41.5 t-141.5 -76t-130 -115t-97.5 -165.5t-49.5 -221.5q-1 -17 -1 -34q0 -45 8 -91q10 -66 43 -125t84 -73q21 -6 22 -14q1 -11 -31 -4l-8 2q-18 5 -31.5 10t-47 28t-56 52.5t-43 87t-23.5 129.5v17q1 52 11 108q12 64 42.5 133t76 132.5t113.5 120t151 98.5t195 66 q107 23 227 23h10q47 -1 98 -5t137 -21.5t161.5 -46.5t157 -84.5t137.5 -129.5q58 -73 92 -187q29 -97 29 -212q0 -20 -1 -41q-6 -151 -56.5 -298.5t-137.5 -264t-193 -172.5q-101 -53 -245 -66q-72 -6 -138 -6.5t-126 6.5q-118 13 -284 36t-248 28q-24 2 -46 2 q-122 0 -199 -47q-8 -4 -8 3z" />
<glyph unicode="E" horiz-adv-x="1220" d="M-2 381q2 49 14 106q24 95 70 178.5t95.5 138.5t110.5 104t105.5 74.5t89.5 50t54 30.5q25 18 39 48t17 54.5t6.5 75t6.5 78.5q10 73 58 128t110 77q40 14 78 14q21 0 41 -4q38 -8 64.5 -26.5t38.5 -38.5t17 -43t4 -37.5t-3 -24.5q-19 -73 -72 -104q-23 -13 -26 -5 q-2 2 2 7q19 24 30 60q10 33 10 68v6q-1 38 -26.5 70.5t-75.5 42.5q-11 2 -22 2q-44 1 -85 -29q-51 -36 -69 -108q-12 -48 -13.5 -115t-2.5 -73q-20 -88 -119 -150q-177 -112 -280 -230t-140 -267q-14 -65 -16 -133q0 -5 -1 -11q0 -62 22 -124q24 -67 63.5 -122t109.5 -96 t160 -57q44 -8 86 -8q76 0 150 25q115 39 207.5 145.5t133.5 265.5q18 68 18 125q0 79 -34 135q-58 98 -180 121q-24 4 -48 4q-84 -1 -160 -55q-98 -70 -140 -201q-11 -36 -11 -70q0 -20 4 -39q10 -52 39 -90t62 -45q5 -2 7 -4.5t-0.5 -4.5t-10.5 -3t-15 -1q-82 0 -129 80 q-31 53 -31 119q0 43 13 93q31 118 165 188q98 52 202 52q38 0 77 -7q96 -18 164.5 -84t93.5 -156q13 -47 13 -94q0 -43 -11 -86q-37 -145 -146 -255q-108 -110 -250 -158q-94 -32 -186 -31q-46 0 -91 8q-17 3 -39 8.5t-54.5 16t-64.5 24.5t-69 33.5t-68 43t-62.5 54 t-51.5 66t-34 78.5q-13 39 -14 83v9z" />
<glyph unicode="F" horiz-adv-x="1552" d="M0 948q0 82 22 160.5t68.5 149t113 123.5t162.5 84q93 30 202 30h7q103 -1 213 -30.5t200 -72t170.5 -85.5t150 -74t112.5 -33q15 -1 29 0q42 0 76 6q46 9 56 14.5t32 18.5q32 19 38 10q2 -4 -1 -10q-29 -58 -59.5 -127t-52 -120.5t-50 -126.5t-39.5 -105.5t-36 -99.5 t-25 -70h81q48 1 80.5 19.5t46.5 39.5q12 17 13 3q0 -6 -2 -13q-7 -18 -41 -61t-56 -43l-51 1q-50 1 -92 1q-5 -10 -22 -51t-33 -77.5t-44.5 -90.5t-57 -99t-68.5 -94t-82 -83.5t-95.5 -59t-109.5 -29.5q-32 -3 -61 -3q-65 0 -117 14q-76 20 -114 59q-40 39 -60 89 q-19 46 -18 92v10q2 52 15 95.5t34 71.5q31 40 68 47q8 0 7 -2q-61 -67 -61 -197v-12q3 -98 73 -170t197 -72q50 0 97 18.5t83.5 47.5t71.5 72.5t59.5 84t49 93.5t39 89t30.5 81q16 40 29 78q-36 0 -75 0.5t-64.5 1t-28.5 0.5q-15 0 -39 -25.5t-27 -26.5q-7 -3 1 13 q15 28 45 69q6 8 11.5 13t9 7.5t9.5 3.5t8.5 1.5t10.5 0t12 -0.5q9 0 145 -4q179 474 281 608q2 2 -3 1q-3 -1 -13 -7q-84 -41 -139 -41h-9q-97 9 -190.5 41t-170.5 71.5t-157 78t-182 66.5t-213 32h-18q-92 0 -165 -28q-80 -30 -126.5 -80.5t-76.5 -119.5q-28 -70 -38 -134 q-8 -53 -8 -108v-24q1 -38 12.5 -85.5t38.5 -103t65 -99.5q40 -46 100 -74q55 -26 118 -25h14t14.5 0.5t12 1l9 1t7 0.5h4.5t3 -1t1 -2q0 -6 -16 -15.5t-47 -17.5t-64 -8h-3q-95 0 -174 63q-80 64 -121.5 161.5t-41.5 203.5z" />
<glyph unicode="G" horiz-adv-x="1241" d="M10 575q3 211 92 390q68 135 178 236t227 153t235 76q89 17 165 17q25 0 49 -2q96 -8 154 -38q60 -31 97 -79t46 -96q8 -42 8 -76v-8q-1 -36 -10 -56q-5 -10 -7.5 -14t-5 -1t-3.5 17q-2 24 -13.5 57t-41 76.5t-71 79t-112.5 61t-157 27.5h-21q-312 0 -495 -203 q-190 -210 -215 -592q-2 -24 -2 -49q0 -59 11 -119q14 -85 52.5 -166t96.5 -144t146.5 -101.5t196.5 -38.5q77 0 142.5 15.5t108.5 39.5t76 56.5t51 61.5t28 60q39 124 98 365q6 22 6.5 40t-1 26.5t-8.5 18t-9 10.5t-10 7q-6 5 1 5q4 0 19 -3q20 -4 27 -4q4 0 24 5t35 5 q19 -1 19 -15q0 -21 -46 -153q-26 -70 -61 -190.5t-66 -216.5t-75.5 -204t-111 -199.5t-152.5 -155.5q-41 -32 -75 -36q-5 -1 -5 0q-1 2 6 5q175 96 338 547q-122 -113 -383 -113q-128 0 -228.5 33t-166 89t-108 135.5t-59.5 167.5q-14 79 -14 169v22z" />
<glyph unicode="H" horiz-adv-x="1779" d="M-10 256q0 46 23 118t59 85q3 1 1 -5q-2 -2 -6 -11q-40 -76 -40 -136q0 -111 92.5 -211t222.5 -106q19 -1 36 -1q38 1 70 5q46 6 96.5 28.5t95.5 67.5t95.5 117.5t104 180.5t114.5 255q25 62 82 221.5t102 288.5l44 129q-59 -28 -145 -30h-23q-74 0 -136 11 q-72 13 -155 27.5t-123 14.5q-106 0 -194 -23.5t-156 -71.5t-103 -126q-29 -65 -29 -147q0 -16 1 -34q11 -163 112 -274t244 -111q59 0 100 41q21 18 18 9q-1 -4 -5 -11q-7 -16 -14 -26t-21 -23.5t-38.5 -22t-57.5 -10.5q-16 -1 -39.5 0t-62.5 9t-77 23t-78 44.5t-70 70 t-49.5 104.5t-19.5 142q0 88 25 162t66.5 124.5t97 90t113.5 62t119.5 36t111.5 17.5q27 2 53 1q21 0 41 -1q108 -6 249 -40q133 -32 176 -32h5q30 1 55.5 6.5t36.5 10.5t23 13l12 7q19 13 17 -6q-1 -11 -9 -31q-1 -3 -14 -40.5t-33.5 -97t-46 -130t-56.5 -155.5t-59 -158 q59 -7 284 -7h32q254 0 342 13q25 58 76 179t67 159q82 194 181 327.5t196 192.5q78 47 166 54q16 1 32 1q67 0 113 -25q57 -31 58 -85v-12q0 -39 -12 -54q-9 -11 -15 12q-12 55 -63.5 92t-116.5 37q-175 0 -316 -216q-89 -137 -212 -449q-13 -35 -40 -105q-35 -90 -53 -135 q-268 -677 -297 -680q-4 0 -21 -2q-51 -4 -51 2q0 1 1 2q14 16 32 49t47.5 101t54 128t76.5 187.5t91 222.5q-154 -9 -473 -9q-87 0 -187 1q-67 -172 -118 -272q-44 -83 -82.5 -145t-93 -125.5t-111 -103.5t-132 -65.5t-161.5 -25.5q-93 0 -164 31t-109 79t-56.5 98 t-18.5 97z" />
<glyph unicode="I" horiz-adv-x="915" d="M-12 954q4 122 54.5 221t130.5 160q81 61 179 92q93 29 190 29h13q35 -1 157.5 -7.5t166.5 -6.5q75 0 152 19.5t116 43.5q23 15 23 11q1 -3 -3 -11q-122 -228 -348 -811q-72 -193 -116 -287q-195 -416 -402 -453q-23 -4 -45 -3q-84 3 -130 41q-46 37 -46 105q0 69 46 100 q16 10 17 4q-12 -32 -12 -62q0 -48 30 -90q45 -63 121 -66h9q99 0 179 107q6 9 13 19q25 37 53 89.5t57 121.5t47 114t46.5 119.5t32.5 85.5q200 501 354 821l-13 -6q-14 -7 -34 -15t-51 -18t-73.5 -18t-93 -13.5t-117 -5.5t-138.5 7q-42 4 -80 4q-193 -1 -306 -97 q-120 -103 -120 -296q0 -24 2 -50q1 -24 8 -51.5t25.5 -63.5t45 -65t72.5 -51.5t103 -28.5q10 -1 44 -1l26 -1q-53 -35 -125 -35q-110 2 -188 86q-73 78 -72 195v18z" />
<glyph unicode="J" horiz-adv-x="985" d="M-153 -289q-1 4 6 2q74 -24 159 -24q20 0 40 1q108 7 194 50q96 49 183.5 150t146 209t104.5 231q18 46 130.5 329t207.5 523q90 229 90 237l-124 -53q-69 -21 -122.5 -25t-103.5 -5q-16 -1 -29 -1q-26 0 -37 2q-72 4 -133 4q-110 0 -183 -13q-331 -57 -331 -359 q0 -52 15.5 -106.5t45.5 -104.5t82.5 -81.5t118.5 -31.5q21 0 60 12t45 21q10 15 17 13q3 -1 -1 -11q-7 -21 -46.5 -46.5t-102.5 -25.5q-136 0 -221 100q-72 85 -72 204q0 19 2 40q7 73 31 135.5t59.5 106.5t81.5 80t96.5 57.5t104 39t104 23.5t96.5 12q32 3 58 3 q12 0 23 -1q36 -2 60 -1q61 -3 115 -3q280 0 363 91q25 28 23 8q0 -3 -1 -8q-7 -21 -101.5 -269t-210.5 -546.5t-159 -398.5q-35 -80 -80.5 -159t-105.5 -159t-135.5 -146t-155.5 -102q-68 -31 -146 -41q-45 -6 -85 -6q-28 0 -53 3q-61 7 -107 26q-16 6 -16 14z" />
<glyph unicode="K" horiz-adv-x="1970" d="M162 248q0 24 3.5 45.5t7 34.5t11.5 29t11.5 21.5t13 19t10.5 14.5q7 9 5 -1q0 -2 -3 -18q-13 -45 -12 -93q-1 -44 9 -86q10 -44 35 -83.5t61 -69.5t89.5 -47.5t118.5 -17.5q92 0 153.5 16.5t125.5 69t123.5 143.5t138.5 246q20 39 74.5 167.5t131 312.5t95.5 229 q23 55 54.5 127t43.5 101t8 28q-74 -32 -148 -36q-15 -1 -30 0q-54 0 -96 10q-52 14 -131 28q-73 14 -138 14h-9q-69 -1 -122.5 -9t-109.5 -30.5t-92.5 -59t-60 -99.5t-23.5 -148q0 -126 72.5 -204t167.5 -81h24q0 -7 -24 -18t-56 -11h-3q-29 0 -61 9q-34 9 -65.5 31.5 t-57 55t-41 82t-15.5 109.5q0 73 21.5 136t57 106.5t82.5 78t95.5 55.5t99.5 35t91 18.5t73 4.5q108 -1 221 -29t149 -28q85 0 126.5 7.5t54.5 29.5q6 10 36 8q16 -2 15 -8q-1 -2 -28 -69t-70.5 -173t-92.5 -224.5t-101 -241t-89 -203.5q23 8 50 25t61 47t62.5 56.5 t72.5 72.5t72 76t79.5 86.5t77.5 84.5q304 328 539 328q77 0 122 -33q42 -31 42 -74v-6q-4 -53 -43 -89q-20 -18 -22 -7q0 2 1 6q10 33 10 61q0 40 -20 70q-34 50 -101 49q-64 0 -137.5 -42t-150 -114t-148 -148t-159.5 -164.5t-156 -143.5q-61 -50 -90 -68 q163 -635 364 -635q30 0 53.5 4t38 11.5t23 13.5t15 13t7.5 8q8 6 8 -3q-1 -13 -18 -30q-44 -49 -124 -49h-9q-29 1 -53.5 5t-61 20t-67 44t-64 80.5t-59.5 124.5q-68 190 -115 350q-63 -42 -114 -65l-17 -33q-151 -302 -325 -442q-153 -123 -327 -123q-24 0 -48 2 q-136 11 -219 87q-80 73 -80 201v9z" />
<glyph unicode="L" horiz-adv-x="1757" d="M-10 135q-1 3 40 5q31 1 69 2h27q55 0 101 -3q6 -1 18.5 -2t18.5 -2q38 18 77.5 67.5t71 107.5t70 150.5t64.5 162.5t66 180t63 170q106 275 230 403q120 125 272 125h10q111 -3 172.5 -53t62.5 -150q0 -50 -18.5 -92.5t-40.5 -66.5q-9 -9 -14.5 -11.5t-7 2.5t3.5 21 q8 24 12 62q1 12 2 25q0 28 -6 60q-8 46 -27 86t-62.5 67.5t-105.5 27.5q-83 0 -160.5 -70t-135 -177t-115.5 -245.5t-102 -265.5t-95.5 -248t-93.5 -182q-74 -107 -170 -158q157 -13 354.5 -50.5t345 -68t201.5 -32.5q13 0 25 -1q81 0 149 18q78 20 124.5 54t77.5 79 t42.5 87t11.5 84q0 74 -44 126t-124 52q-37 0 -61 -22.5t-32.5 -56.5t-11 -52t-2.5 -31q0 -9 -13 -7q-23 4 -25 42v2v6q1 88 91 124q44 18 89 19q49 -1 99 -23q96 -42 99 -146v-6q1 -108 -107 -224q-110 -120 -243 -147q-78 -17 -178 -17q-201 0 -489 68q-310 73 -650 78 q-10 1 -18 19.5t-8 27.5z" />
<glyph unicode="M" horiz-adv-x="2369" d="M16 385q31 108 68 112q12 1 13 -7q0 -2 -1 -3q-9 -9 -14 -16.5t-13 -48.5t-8 -107q0 -81 63 -152.5t162.5 -112t205.5 -40.5q83 0 159.5 21.5t134.5 53.5t114 85t93.5 99t78 113t62.5 109t52 105q56 115 139 311t139 337q52 132 52 138l-176 -42h-24q-90 0 -170 18 q-90 20 -208 40.5t-197 20.5q-108 0 -188.5 -27.5t-129.5 -72.5t-79 -113.5t-40.5 -140t-10.5 -162.5q0 -113 68.5 -196t160.5 -107q20 -5 52 -5q25 0 57 3h4q-1 0 -6 -5t-14 -10.5t-23.5 -11t-40.5 -9t-59 -3.5q-65 0 -118 33.5t-84.5 86.5t-48 112t-16.5 116 q0 106 27.5 195t75 151t108 108t130.5 73q72 26 140 38q63 11 126 11h10q76 -1 212 -31t250 -54q86 -18 132 -18q15 0 26 2q17 3 31.5 7.5t23 8.5t16 9t10 7.5l7.5 7.5l4 5q10 8 19 2.5t15 -16t3 -14.5q-26 -33 -46 -131q-16 -79 -16 -185q0 -26 1 -55q2 -64 9 -175.5 t13 -208.5q6 -98 10 -198q3 -75 4 -138v-40q-2 -78 -10 -118q-3 -12 1 -10q7 2 40 67q13 27 50.5 98t113 206.5t150.5 258.5q90 150 173.5 270t175.5 228q92 106 181 164q82 53 152 53h12q39 -3 60 -23.5t17.5 -36.5t-5.5 -18q-1 0 -22.5 9.5t-52 15t-62.5 0.5 q-137 -26 -242 -161t-159 -337q-52 -195 -52 -419v-17q1 -92 15.5 -192t48.5 -205t82.5 -188t124 -136t165.5 -53q31 0 57.5 5.5t43.5 14t28.5 16t19.5 15t9 8.5q7 5 10 -3t-4 -16q-37 -53 -113 -69q-32 -7 -66 -7q-46 0 -96 14q-86 22 -172 96t-137 186q-61 134 -75 316 q-5 68 -6 134q0 110 16 212q24 164 65 299t86 198q-36 -35 -132.5 -191.5t-207.5 -355.5q-109 -196 -203.5 -355.5t-115.5 -187.5q-33 -48 -69 -61q-15 -5 -14 3q0 1 1 3q27 50 30 194q1 27 1 57q0 128 -11 304q-3 69 -3 159q0 168 10 408l2 94q-3 -5 -48 -120.5 t-100 -252.5t-78 -186l-15 -35q-16 -35 -29.5 -64.5t-42 -82t-56.5 -96t-70.5 -99.5t-86 -100t-101 -88.5t-117 -74t-132.5 -48t-150 -18.5q-133 0 -245 58t-168 160q-35 64 -34 133q0 42 12 85z" />
<glyph unicode="N" horiz-adv-x="1763" d="M8 252q9 38 29 65q14 17 22 17q7 -8 2 -15.5t-13.5 -37t-6.5 -60.5q2 -35 16.5 -70t42 -67.5t76 -53t109.5 -20.5q79 0 145.5 24t119 70.5t91 97.5t78.5 122q59 103 155 331q35 84 75 184t73 184.5t60.5 156.5t44.5 116t18 47q9 18 1 21q-4 0 -7 -4q-48 -47 -130 -71 t-158 -27t-187.5 -7t-178.5 -14q-157 -22 -245 -120q-76 -84 -76 -209q0 -21 2 -44q7 -68 33.5 -122.5t61 -85.5t74.5 -50t73 -24.5t57 -1.5q32 5 33 -6q0 -7 -19 -13q-57 -18 -105 -18q-29 1 -54 7q-68 18 -113 71.5t-67.5 118.5t-22.5 130q0 54 17.5 111t59 117t101.5 108 t153 81t205 38q346 18 367 20q77 8 112 34q11 8 31 26t24 -9q2 -12 -1 -30q-5 -47 -6 -129v-13q0 -80 10 -196q12 -126 33 -225q22 -103 102.5 -395t85.5 -342q3 -18 16 11l17 48q21 65 167.5 414t229.5 512q154 307 332 469q90 78 195 122q100 42 193 42h9q22 0 43 -4 t37 -9t31.5 -12.5t25.5 -14.5t20.5 -15.5t15 -13t10.5 -11.5l6 -6q10 -14 -2 -20q-11 -3 -27 7q-20 14 -73.5 28.5t-112.5 14.5q-39 0 -81 -7.5t-99.5 -27.5t-121 -63.5t-122.5 -106.5q-80 -85 -174 -252t-177 -354.5t-157.5 -366t-136.5 -324t-91 -191.5q-13 -24 -24 23 q-1 3 -2 7q-11 50 -141 512q-37 134 -68 318.5t-39 347.5q0 6 -1 12.5t-3 12t-6 0.5t-10 -23q-33 -109 -160 -443t-205 -448q-37 -55 -60 -86t-57 -71t-63.5 -61.5t-69 -42.5t-85.5 -30.5t-101 -9.5q-158 0 -234 100q-36 48 -46 102q-5 28 -5 53q0 22 4 40z" />
<glyph unicode="O" horiz-adv-x="1327" d="M-1 589q2 29 2 50q0 16 -1 27q12 171 82 319.5t179 250.5t251 160t295 58q69 0 140.5 -21t143 -68t125.5 -115q55 -68 88 -170q31 -97 31 -210v-14q-2 -89 -26.5 -188.5t-69.5 -200t-114 -191.5t-152 -161t-191.5 -112t-226.5 -42q-115 0 -207.5 32.5t-148.5 86 t-99.5 121t-60.5 137t-31 135.5q-10 51 -10 92q0 13 1 24zM90 641q0 -14 -1 -29q0 -44 5 -88q6 -60 22 -123.5t41 -122t64 -111t87.5 -91t115.5 -61.5t145 -23h4q107 0 208 46q103 48 184 130.5t142.5 188t95.5 226.5t36 240v29q0 557 -463 557q-133 0 -253.5 -51.5 t-215 -147t-153 -243t-64.5 -326.5z" />
<glyph unicode="P" horiz-adv-x="1214" d="M-14 240q-1 8 -1 17q0 33 10 62q12 37 30 58.5t33 34t22 14.5q4 1 3 -4q-1 -3 -6 -14q-28 -60 -29 -111q0 -5 1 -10q1 -28 11 -63t35 -75t61.5 -72.5t95.5 -54.5t131 -22q185 0 305.5 139t233.5 467q24 67 154.5 409.5t160.5 418.5q-108 47 -270 53h-23q-164 0 -302 -54 q-148 -58 -242 -156.5t-146 -222.5q-50 -120 -49 -247v-10q1 -90 22.5 -160t51.5 -108t67 -62t65 -31t50 -6q16 0 36 5q9 2 9 0q0 -1 -2 -3q-19 -29 -69 -29h-7q-29 1 -63 12t-78 40.5t-78 73.5t-58 120.5t-24 171.5q0 102 31.5 200t99.5 188t163.5 158t234.5 108.5 t302 40.5q109 0 200 -23t152 -61t103.5 -87t61.5 -100t20 -102q0 -140 -102 -225q-83 -69 -195 -69q-48 0 -102 13l-170 -440q-27 -71 -75.5 -145.5t-118 -148.5t-165.5 -121.5t-198 -47.5q-87 0 -155 18t-109 45.5t-68 66t-37.5 74.5t-13.5 77zM1118 920q66 -26 118 -25 q1 -1 2 -1q53 0 83 18t51.5 49t29 55.5t11.5 50.5q5 29 6 58v9q-1 27 -5 71q-6 51 -35 101.5t-79 88.5z" />
<glyph unicode="Q" horiz-adv-x="1400" d="M6 700q57 358 253 559t525 201q185 0 323 -97.5t199 -272.5q40 -112 40 -240q0 -73 -13 -152q-31 -194 -140 -364.5t-265 -272.5q42 -12 82.5 -25.5t95.5 -35.5t78.5 -32t96 -41t83.5 -36q163 -70 343 -116.5t278 -46.5q134 0 235 59q8 5 8.5 -2.5t-8.5 -13.5l-12 -11 q-13 -10 -32.5 -20t-52 -22t-87 -19.5t-121.5 -7.5q-88 0 -183 17t-212 56t-185.5 65t-204.5 81q-224 92 -272 110q-135 -69 -279 -69h-12q-188 5 -328.5 106t-202.5 271q-41 112 -41 237q0 66 11 135zM84 643q-2 -28 -2 -56q0 -73 12 -138q16 -90 46.5 -155t74.5 -118 t91 -86.5t99 -57.5t95 -34.5t82 -13.5q17 -1 33 -1q114 0 216 48q-134 46 -231 49q-104 0 -154 -27q-16 -10 -15 0q0 9 13 17q59 39 192 39h13q111 0 250 -39q89 61 160 160.5t111.5 206t61.5 207t21 181.5q0 93 -17.5 178.5t-57 163.5t-97 134.5t-143.5 88.5 q-80 31 -176 31h-12q-28 -1 -49.5 -2t-71 -9t-89 -21t-95.5 -41t-99.5 -65.5t-91 -98t-80.5 -134.5t-58 -179t-32 -228z" />
<glyph unicode="R" horiz-adv-x="1818" d="M0 283q1 21 3.5 40t5 33t6 27.5t6.5 21.5t7.5 17.5t6.5 13.5t6.5 11t5.5 8q13 22 22 21q4 -1 -1 -13q-25 -48 -25 -129q0 -58 24 -115t69 -104.5t118 -77t162 -29.5q70 0 132 15.5t109.5 40t92.5 65.5t77 80.5t66 97.5t56.5 104t51.5 111q99 221 207 493.5t129 360.5 q-118 80 -368 80q-105 0 -204.5 -18t-198 -63t-173 -112t-123 -172.5t-53.5 -238.5v-11q0 -43 13 -93q15 -58 44 -113t80 -96t113 -50q21 -3 40 -3q26 0 50 6q12 5 13 -1q1 -3 -3 -6q-44 -22 -92 -22q-73 0 -132 28t-95 70.5t-60 97t-33.5 103.5t-9.5 94q0 34 6.5 75.5 t29 104.5t58.5 121.5t103.5 120t155.5 107t222 74.5t296 30h7q149 0 267 -44q122 -45 192 -133q67 -83 67 -190q0 -6 -1 -12q-3 -105 -65 -189t-172 -118q56 -113 73 -414q5 -81 18.5 -146.5t30 -108t38 -74t41 -47.5t41 -26t35 -12t26.5 -2q57 0 119 37q26 16 34 8 q2 -2 -2 -8q-10 -15 -60.5 -37t-98.5 -22q-62 0 -110.5 20.5t-78.5 57.5t-50.5 81t-31 97t-15.5 98.5t-9 93.5q-1 21 -2 31q-5 66 -10.5 118t-12 92t-10 60.5t-11 53t-8.5 39.5q-35 -7 -65 -7q-70 -185 -184 -403q-30 -58 -64.5 -112t-93.5 -119.5t-124 -111.5t-155 -74 q-72 -22 -148 -22q-19 0 -38 1q-95 7 -167.5 35.5t-113 65.5t-65.5 83t-33 83q-7 33 -6 63v8zM1217 854q10 -1 20 -1q60 0 110 22q58 25 92 67t50 97q12 40 12 80q0 15 -2 29q-6 54 -33.5 106t-74.5 85q-115 -317 -131 -362q-4 -14 -43 -123z" />
<glyph unicode="S" horiz-adv-x="1263" d="M0 451q0 101 29.5 184.5t74.5 136t101.5 88.5t108 51t96.5 15q40 0 84.5 -29.5t50.5 -54.5q9 -29 -7 -44q-8 -9 -14 1q-59 78 -166 78q-39 0 -75.5 -10t-74.5 -36.5t-65.5 -67.5t-45 -109.5t-17.5 -155.5q0 -232 140.5 -373t379.5 -141q83 0 152.5 24.5t118 68t85 96.5 t58.5 115.5t34 119.5t15 114q4 57 13 211t13 207t14 148.5t22 150t30 98.5q19 46 51.5 79t68.5 48t65 21t55 6q49 0 81 -20q32 -21 40 -61q2 -9 1 -19q0 -35 -22 -82q-12 -26 -28 -27q-14 -1 -13 21v10q0 53 -30 94q-32 45 -95 45q-41 0 -70.5 -28t-45.5 -67t-26 -104.5 t-13 -114t-5 -122.5q-4 -109 -6.5 -172.5t-6.5 -142.5t-9 -124t-12.5 -101t-18 -89.5t-24 -73.5t-32 -70.5t-41 -62t-52.5 -65.5q-21 -23 -52 -47.5t-83 -55.5q-50 -30 -122 -48q-68 -17 -141 -17h-8q-274 6 -417.5 144t-143.5 360z" />
<glyph unicode="T" horiz-adv-x="1275" d="M0 891q0 129 45.5 243.5t129.5 200.5t212 136q125 49 277 49h6q78 0 173 -22.5t167 -50.5t149.5 -56.5t116.5 -36.5q41 -8 79 -8q11 0 22 1q48 3 63 17q14 14 27 6q5 -5 3 -12q-58 -136 -124 -301q-2 -4 -24 -61.5t-38 -97.5t-45.5 -111.5t-56 -129.5t-58.5 -124 t-64.5 -123t-62.5 -99q-87 -120 -206 -211.5t-240 -119.5q-64 -14 -122 -14q-38 0 -73 6q-89 15 -154 57t-102 101.5t-39 125.5q-1 18 -1 35q0 139 60 173l1 1q6 6 15 2q4 -2 1 -8q-6 -13 -12 -55t-6 -82q1 -23 9 -55.5t32 -79t60.5 -84t102 -64.5t148.5 -27q376 0 616 609 q220 545 273 659q20 49 1 50q-2 0 -5 -1q-56 -23 -114 -24h-7q-55 1 -103 15q-52 16 -118.5 38t-129 45t-147.5 39t-170 16q-237 0 -363 -136t-126 -382q0 -70 21.5 -143.5t61.5 -138t105.5 -108t143.5 -48.5q11 -1 21 -1q43 0 71 11q15 5 19 -3q3 -6 -5 -11q-1 0 -5 -3 t-7.5 -5t-10.5 -5t-15 -5t-19 -4.5t-26 -3.5t-32 -1q-102 0 -193.5 52t-149.5 149.5t-58 218.5z" />
<glyph unicode="U" horiz-adv-x="1923" d="M23 938q8 82 34.5 150.5t63 115t84.5 83t91.5 57.5t92 35.5t79.5 20t58 7.5q10 1 112 4t188 12.5t130 26.5q17 7 42 2q22 -3 10 -18q-133 -151 -259 -462.5t-126 -529.5q0 -187 69 -284t226 -97q54 0 102 13.5t92.5 43.5t81 63t78.5 87.5t73.5 100t77.5 116.5 q222 346 504 967q2 7 46 7q37 -2 34 -13q-56 -124 -145 -342q-90 -218 -190 -508q-104 -299 -103 -398q0 -74 45 -122q46 -49 117 -49q62 0 94 16q23 8 23 0q0 -3 -3 -6q-11 -13 -58 -32t-93 -19q-21 0 -44 4t-52.5 18t-52 36t-38.5 62.5t-16 92.5q0 40 9.5 95.5t26 115.5 t34.5 119.5t39 117.5t36.5 99.5t28.5 76t14 35.5q10 24 1 25q-8 1 -15 -13q-10 -16 -39 -72.5t-61.5 -118.5t-81.5 -144.5t-99 -157t-114 -149.5t-127 -129t-136.5 -88t-144.5 -34q-103 0 -178.5 65.5t-111 168t-35.5 225.5q0 121 38.5 268t95.5 274.5t115.5 230.5 t106.5 161q16 20 6 29q-4 4 -10 0q-132 -66 -434 -70q-74 -2 -137.5 -21t-116 -56.5t-83 -102.5t-30.5 -150q0 -122 73.5 -208t164.5 -86q21 0 48 5t36 11q13 9 17 -1q2 -3 -1 -7q-3 -5 -22 -16.5t-53.5 -23t-67.5 -11.5q-117 0 -193 86q-68 77 -68 168q0 11 1 22z" />
<glyph unicode="V" horiz-adv-x="1509" d="M2 903q0 94 25.5 171.5t65 129t94 91.5t107.5 62t109.5 36t95 18t70.5 4q30 0 92 -9.5t113 -18.5t102.5 -12t61.5 9q17 13 27 6q6 -5 -2 -16q-11 -18 -27 -69t-33.5 -165t-17.5 -241q0 -148 17.5 -320t35.5 -300t18 -170t11 -42q3 1 8 5q106 93 238 271t244 371.5 t188.5 386t76.5 306.5q0 81 -26 131t-68 59q-17 3 -12 13q4 8 22 8q13 0 29.5 -5t39 -21t40.5 -41t30.5 -69.5t12.5 -101.5q0 -46 -13 -103t-32 -109.5t-50 -117.5t-56.5 -112.5t-64 -111.5t-59.5 -96.5t-55.5 -85.5t-40.5 -62q-85 -135 -150 -217q-140 -176 -360 -375 q-10 -10 -18.5 -13.5t-13.5 2t-5 21.5v17q0 101 -30 393q-33 318 -33 460q0 141 15.5 252.5t28.5 150t21 50.5q5 7 4.5 14t-5 9.5t-11.5 -0.5q-30 -20 -92 -24q-28 -2 -63 -2q-43 0 -95 4q-94 6 -110 5q-69 0 -126 -7.5t-119.5 -32t-105 -64.5t-70.5 -111t-28 -166 q0 -113 62.5 -215.5t158.5 -146.5q44 -20 96 -26q13 -1 25 -1q37 0 62 14q9 7 17 0q3 -3 1 -6q-3 -6 -14 -15t-40.5 -18.5t-68.5 -9.5q-82 0 -150.5 34t-111 89.5t-65.5 122t-23 133.5z" />
<glyph unicode="W" horiz-adv-x="1941" d="M-12 924q5 90 28 164.5t56 123.5t78 86.5t88 58t93.5 33t88 16t76.5 3.5q28 0 80 -6t94.5 -11t85.5 -5t63 10q39 19 36 0q-1 -3 -3 -8q-10 -23 -23.5 -144t-13.5 -219q-1 -79 41 -466q41 -378 41 -407q0 -52 15 -47l8 5q1 1 372 677q-6 108 -7 215v14q-1 101 13 223 q14 130 48 190q4 8 36 7q20 -2 19 -10q-39 -137 -39 -311q0 -72 25 -326t50 -478.5t25 -227.5q0 -8 3 -13.5t7.5 -5.5t8.5 7q12 19 38 58q56 86 87.5 134t88.5 142.5t90.5 160.5t77.5 162t68 174.5t41 171t17 176.5q0 224 -115 224q-6 0 -8 2.5t0 5.5t6 4q16 5 32 5 q49 0 97 -50q63 -68 63 -189q0 -184 -69 -377.5t-144 -308.5q-39 -60 -216 -308.5t-201 -287.5q-27 -43 -32 -27q-1 3 -1 7q-10 157 -31.5 315.5t-43.5 283.5t-26 157q-3 15 -6 45q-68 -157 -172 -339t-167.5 -278t-88.5 -129q-15 -22 -24 -13l-2 7q-2 80 -52.5 481.5 t-50.5 534.5q0 75 13 191t20 126q4 6 3 10.5t-5 5.5t-8 -1q-28 -22 -76 -24q-11 -1 -21 0q-37 0 -74 6q-47 8 -107 18q-49 7 -82 6h-15q-45 -3 -88.5 -13.5t-93 -39t-85.5 -69.5q-34 -42 -56 -113q-17 -58 -18 -128q0 -16 1 -33q6 -90 55.5 -166t114 -115.5t121.5 -39.5 q61 0 74 10q3 3 8.5 3t9 -4t0.5 -9q-28 -37 -149 -37q-127 0 -213 91q-78 82 -79 207q0 13 1 26z" />
<glyph unicode="X" horiz-adv-x="1783" d="M4 100q-1 8 -1 16q0 43 24 72q17 17 23 12q2 -1 1 -3q-12 -30 -12 -58q2 -44 51 -82.5t113 -38.5q32 0 68 13.5t69 33.5t73.5 55.5t72 66.5t73.5 82t69.5 85.5t70 92.5t63.5 88.5t61 88t54 76.5q-14 42 -33.5 106t-34 109t-34 104.5t-36 101t-37 88.5t-40.5 78.5 t-43 58.5t-48.5 40.5t-52.5 14.5h-2q-34 -1 -62 -27q-29 -28 -36 -55q-3 -8 -9.5 -6.5t-5.5 10.5q2 13 9.5 29t23.5 38t48 36.5t75 15.5h5q36 0 68 -14q34 -14 60 -37t51.5 -64.5t43.5 -79.5t40 -99t36.5 -107t37.5 -120t39 -122l2 -6q199 277 287 382q228 275 393 312 q31 7 61 6q41 -1 71 -18.5t44 -44t20 -51.5t5 -48q-2 -42 -13 -40q-3 1 -6 9q-35 115 -162 119h-6q-40 -1 -88 -23q-52 -24 -101.5 -62t-109 -98t-107 -114.5t-105 -127t-93 -120.5t-80.5 -110q11 -34 34.5 -110t39 -125t43.5 -124t52.5 -124t60.5 -106t72 -90.5t84 -56 t100 -22.5q46 0 81.5 13.5t54.5 32.5t31.5 44t16 42t4.5 32q1 12 1 22q0 71 -40 105q-10 7 -7 13t15 3q11 -3 22.5 -10t26.5 -30t19 -56q3 -29 -2 -60.5t-24 -66.5t-49.5 -62.5t-84.5 -45.5t-123 -19q-145 0 -256.5 163t-238.5 546q-38 -52 -165 -234.5t-200 -269.5 q-66 -79 -159.5 -144.5t-170.5 -66.5q-74 0 -128 37.5t-58 105.5z" />
<glyph unicode="Y" horiz-adv-x="1484" d="M6 -201q0 66 26 124.5t62.5 94.5t69.5 57.5t53 24.5q16 3 14 -6q0 -7 -12 -12q-23 -8 -43.5 -23t-43.5 -42.5t-36.5 -74.5t-13.5 -108q0 -62 23.5 -115t62 -89t88.5 -61.5t102.5 -37.5t104.5 -12q145 0 268 108t197 273q83 190 83 431q0 29 -1 58q-6 160 -19 273 t-55.5 262t-116.5 303q-77 158 -176 236.5t-190 78.5q-81 0 -132 -66t-51 -161q0 -39 8.5 -71.5t20.5 -50.5t24 -31t19 -18.5t6 -6.5q-11 -11 -29 -11q-44 0 -78 42t-34 128q0 62 24 113.5t61 83.5t83 54t87.5 31t76.5 9q87 0 165 -57t134.5 -150t102.5 -208.5t74 -236.5 t43 -229t15 -192q0 -71 -6 -143t-15.5 -128.5t-18 -98.5t-16.5 -75t-9 -36q-7 -29 3 -32q5 -1 9 7q17 31 39 75t39.5 80.5t46.5 101t44 98.5t50 113t47 106q42 94 69 151t71.5 147.5t84 155t89 139.5t105 137t114.5 113q86 74 170 119t147 45q57 0 57 -55q0 -27 -16 -38 q-11 -5 -18 7q-6 11 -11.5 18t-23.5 13.5t-45 5.5q-37 -1 -78 -22t-81 -54.5t-85.5 -87.5t-85.5 -108.5t-89 -132t-88 -144.5t-89 -158.5t-86.5 -160.5t-85.5 -164q-28 -55 -90.5 -179t-103.5 -200.5t-85 -148.5q-82 -137 -109 -175q-232 -337 -522 -337q-91 0 -167 27.5 t-125 74t-76 106t-27 123.5z" />
<glyph unicode="Z" horiz-adv-x="1386" d="M4 4.5q-2 4.5 1.5 9t8.5 4.5q127 17 310 275q84 117 208 305.5t209 318t191.5 263.5t193.5 204q39 33 27 46q-5 6 -20 4l-44 -4q-44 -3 -78 -6t-96.5 -9.5t-113 -12.5t-112.5 -15t-109.5 -18t-91 -21t-68.5 -25q-104 -51 -148 -129q-6 -11 -17 -8q-6 2 -3 10q1 1 7 13 l11 22t14.5 27t18 30t19.5 29.5t21.5 28.5t22.5 22.5t23 15.5q25 12 100.5 23.5t165.5 20.5t202 17.5t194 13.5t158 9.5t79 4.5q22 1 20 -10q-3 -10 -20 -21q-95 -60 -269 -281t-310 -436q-21 -33 -82 -130.5t-88 -140t-80.5 -120t-88 -118.5t-79.5 -84t-84 -64 q-24 -13 -15 -26q11 -14 41 -5q90 31 324 31q43 0 153 -14q87 -11 162 -11q20 -1 38 1q90 4 167 40q30 14 55.5 29t42 28t30.5 28.5t21 25.5t13 24t7.5 20t3.5 17l3 12q5 16 17 3q19 -20 6 -60q-57 -168 -313 -199q-47 -6 -137.5 -9.5t-190 -4.5t-211.5 -1t-195.5 0.5 t-148.5 1.5l-66 1q-8 0 -10 4.5z" />
<glyph unicode="[" horiz-adv-x="933" d="M-123 -213l1237 1935h387l-10 -34h-295l-1208 -1866h303l-8 -35h-406z" />
<glyph unicode="\" horiz-adv-x="950" d="M229 1458h66l696 -1491h-65z" />
<glyph unicode="]" horiz-adv-x="796" d="M-246 -213l10 35h295l1209 1866h-303l8 34h405l-1237 -1935h-387z" />
<glyph unicode="_" horiz-adv-x="1024" d="M0 -123h1024v-82h-1024v82z" />
<glyph unicode="`" horiz-adv-x="454" d="M200 1101q18 23 44 9q15 -8 24 -27q15 -34 15 -88q0 -34 8.5 -56.5t19 -29.5l21 -14t12.5 -14q0 -2 -3 -6t-7 -3q-25 6 -62 37t-61 78q-40 77 -11 114z" />
<glyph unicode="a" horiz-adv-x="761" d="M-2 226q-1 -16 -1 -32q0 -48 11 -90q14 -54 50 -86.5t87 -35.5h11q181 0 327 280q-24 -106 -24 -151v-7q0 -64 28 -94t60 -30q33 0 62.5 8t50 20t34 23t23.5 21l10 11q6 6 -2 17q-5 7 -10 2q-62 -62 -113 -62q-74 0 -74 102q0 59 25 152q13 51 48 155t61.5 175.5 t31.5 85.5q3 8 -10 10q-25 5 -46 -9q-7 -5 -9 -11q-8 -19 -15 -43q-23 63 -153 63h-8q-46 -1 -100.5 -17t-121 -58.5t-112.5 -104.5q-54 -72 -85.5 -150t-35.5 -144zM72 186q-3 27 -3 54q1 44 9 88q14 70 43 123t64.5 92.5t74.5 64.5q78 53 161 55h10q77 0 119 -28 q37 -24 36 -50q0 -6 -2 -12q-53 -157 -130.5 -302t-158.5 -199q-48 -32 -95 -34h-5q-45 0 -79 36q-36 38 -44 112z" />
<glyph unicode="b" horiz-adv-x="811" d="M31 -6q278 751 385 1012q58 143 122.5 255.5t125.5 183.5t119 119.5t114 71.5q55 24 97 33q37 8 75 8h8q56 -1 97 -19.5t59.5 -44.5t26 -45.5t8.5 -35.5q2 -37 -12 -52q-8 -9 -13 13q-4 19 -19 43t-40 50t-66 44q-39 17 -83 17h-5q-57 0 -117 -35t-110.5 -88t-102.5 -129 t-90.5 -146t-78 -152.5t-61 -134.5t-42.5 -106l-22 -53q-39 -88 -118 -300.5t-91 -291.5q-2 -14 -2 -27q-1 -66 49 -117q60 -61 114 -63h10q133 0 221 133q76 115 85 266q1 19 1 36q0 116 -52 174q-35 40 -88 40q-38 0 -77 -25.5t-56 -45.5t-29 -37q-4 -5 -6.5 -2.5 t2.5 12.5q25 58 89 103q60 42 129 42h9q94 -3 135 -110q23 -60 22 -131q0 -61 -16 -132q-41 -168 -152 -263q-96 -82 -221 -82h-12q-64 1 -108 26t-66 53q-7 7 -17 20q-12 17 -17 12q-1 -1 -3 -5q-28 -75 -32 -84q-10 -19 -51 -21q-29 0 -27 11z" />
<glyph unicode="c" horiz-adv-x="626" d="M0 250q0 53 16.5 114t51.5 122.5t83.5 110t120.5 77.5q65 26 139 26h15q17 -1 39.5 -6.5t51.5 -19t48.5 -35t31.5 -55.5q6 -16 6 -34q0 -20 -7 -44q-3 -14 -10 -22.5t-15 -4.5t-12 23q-11 62 -69.5 111t-141.5 49q-118 0 -192 -114t-74 -267q0 -76 33 -132.5t84.5 -84 t109.5 -35.5q19 -3 38 -3q39 0 75 12q54 16 88 52q14 15 16 -2q2 -13 -4 -18q-42 -35 -98 -57q-55 -23 -113 -29q-19 -2 -37 -2q-39 0 -77 10q-56 14 -99.5 43.5t-70.5 85t-27 129.5z" />
<glyph unicode="d" horiz-adv-x="665" d="M4 190q15 117 62 215.5t112 162t139 98.5t146 36q53 0 95 -25q37 -22 37 -65q0 -5 -1 -10q-2 -30 -19 -48q-11 -11 -14 3q-8 37 -41 71t-90 38h-10q-65 0 -135 -60q-75 -66 -128.5 -168.5t-68.5 -206.5q-4 -27 -4 -51q0 -40 10 -71q16 -51 52 -69q30 -16 67 -15q7 1 13 1 q44 4 95 36.5t93 87.5q110 143 179 336t85 378q6 67 6 127q0 185 -58 301q-78 154 -216 154q-66 0 -124 -43t-86 -101q-27 -55 -28 -112v-6q2 -62 43 -97q9 -7 24 -16q14 -10 9 -12q-31 -10 -51 -8q-42 3 -68 28.5t-31 65.5q-2 14 -2 28q0 27 6 57q10 44 39 90t72 79 q95 74 213 76h7q114 0 194 -72q86 -79 119 -219q21 -88 21 -183q1 -57 -7 -115q-20 -158 -70.5 -315.5t-131.5 -290.5t-171 -206q-40 -32 -87 -54q-46 -22 -92 -32q-26 -5 -51 -5q-17 0 -35 3q-40 7 -70 29t-43 67q-8 28 -8 63q0 21 3 45z" />
<glyph unicode="e" horiz-adv-x="620" d="M6 215q3 99 60 210.5t155.5 193t204.5 83.5q46 0 76 -26q29 -25 28 -67q0 -51 -38 -108q-36 -55 -87 -98t-117 -85t-113 -66.5t-87 -42.5q16 -85 82 -139t129 -54q134 0 246 97q19 17 33 10q6 -3 2 -10q-8 -9 -29 -26t-60 -43t-97 -44t-118 -18q-79 0 -136 21.5t-85 57.5 q-27 36 -39 74q-10 32 -10 68v12zM84 262q0 -21 2 -31q53 25 103.5 55.5t109.5 74t97 96t42 104.5q1 8 1 16q-1 55 -39 72q-14 6 -29 6q-32 0 -70 -26q-87 -58 -150 -156t-67 -211z" />
<glyph unicode="f" horiz-adv-x="442" d="M-316 -542q-1 9 11 16q56 29 122 133t133 258.5t121 294t114.5 306t84.5 226.5q53 135 90.5 226.5t83.5 195.5t83 171.5t82 137.5t87.5 112t92.5 77t104.5 50t116.5 15q109 0 172 -69q34 -39 41 -90q3 -19 3 -35q0 -27 -8 -47q-11 -32 -26 -31q-7 0 -9 9.5t-3 27 t-4.5 38.5t-19 48.5t-42.5 52.5q-64 57 -162 57q-55 0 -106.5 -28.5t-90 -70t-79 -107t-66 -118.5t-57.5 -126q-7 -14 -195 -500q29 -12 68 -12h16q27 3 54.5 22.5t38.5 32.5q12 9 12 1q0 -7 -12 -27q-6 -9 -18.5 -31.5t-22 -37.5t-15.5 -18q-12 -4 -149 -4 q-273 -702 -398 -909q-123 -202 -235 -250q-12 -7 -13 3z" />
<glyph unicode="g" horiz-adv-x="714" d="M-1122 -504q-2 25 -2 48q0 101 46 182q56 98 130 122q25 9 32 -3q5 -9 -14 -15q-21 -7 -45 -26.5t-48 -51.5t-38 -83q-11 -40 -11 -84q0 -12 1 -25q4 -54 24.5 -108t61 -107t97 -94t140.5 -66t183 -25q104 0 201.5 25t176 63.5t153.5 101t131 122.5t113 143.5t94 147.5 t78 151.5t63 138.5t51 125q40 96 43 138q1 7 -2 7l-2 -1q-4 -3 -13 -18.5t-24.5 -44t-28.5 -50.5q-80 -132 -156 -182q-30 -20 -69 -33q-35 -11 -73 -11h-7q-41 1 -75.5 16.5t-57 56.5t-23.5 102v9q0 89 38 181q39 98 105.5 175.5t160 127t190.5 49.5q30 0 56 -8.5 t40.5 -18.5t27 -19.5t15.5 -10.5q8 -1 12.5 2t13.5 12.5t21 18.5q31 19 54 11q16 -5 8 -23q-2 -6 -41 -120t-72.5 -206t-96.5 -239.5t-128 -272.5q-95 -184 -214.5 -322t-248.5 -220t-261 -121.5t-268 -39.5q-235 0 -380 102t-162 271zM74 217q6 -91 44.5 -141.5 t100.5 -50.5q69 0 123 52t109 148q103 185 147 303q4 11 4 22q0 33 -34 66q-46 46 -115 46q-56 0 -124.5 -39.5t-127 -100.5t-95.5 -144q-33 -72 -33 -139q0 -11 1 -22z" />
<glyph unicode="h" horiz-adv-x="823" d="M4 -6q44 112 140 371t151 395q93 229 186.5 400.5t170 269t152.5 156.5t131 77q50 16 98 16h11q106 -4 165 -56.5t61 -109.5q2 -25 -13 -46q-16 -23 -27 11l-1 3q-24 73 -80 119.5t-143 46.5q-54 0 -109.5 -30t-103 -77.5t-97.5 -121t-90 -145t-83.5 -165.5t-74 -166 t-65.5 -162q-18 -44 -51.5 -132t-48.5 -122q-63 -147 -90 -237l46 69t52.5 74t63 80.5t66.5 70.5t74.5 62.5t76.5 38.5t81 16q52 0 81 -28q30 -28 32 -70v-15q0 -35 -10 -75q-1 -5 -48.5 -119t-78.5 -217q-20 -65 -20 -99q0 -19 7 -28q19 -25 53.5 -31.5t61 -1.5t35.5 13 q14 12 25 6q4 -3 0 -8q-45 -45 -123 -45q-64 0 -101 35t-37 89q0 48 25.5 123t61.5 156t42 98q21 58 21 97q0 45 -27 66q-18 14 -43 14q-37 0 -89 -31q-71 -42 -142 -129q-32 -39 -65 -87t-68.5 -110.5t-56 -99t-59.5 -111.5t-46 -88q-9 -20 -52 -21q-30 0 -28 11z" />
<glyph unicode="i" horiz-adv-x="354" d="M51 84q0 15 3.5 35t11 46.5t14.5 48.5t19.5 55.5t20.5 53.5t23 55.5t20.5 48t20 46t15.5 35.5q23 57 23 98q0 14 -2 26q-10 48 -48 48q-31 0 -49.5 -21t-20.5 -45q-2 -23 -17.5 -23t-14.5 25q3 36 41 62q35 24 77 24h7q45 -2 77 -25t33 -67q0 -19 -6 -41t-20 -58.5 t-19 -51.5q-10 -27 -30.5 -82.5t-35 -94t-30 -83t-23.5 -75.5t-8 -46q0 -46 24.5 -63.5t56 -8t56.5 34.5q15 15 23 7q3 -3 0 -7q-18 -30 -55 -45q-27 -12 -59.5 -13t-61 8t-47.5 33t-19 60zM343 938q7 31 32 43q11 4 22 2q27 -5 21 -38t-32 -44q-10 -4 -21 -2q-28 6 -22 39z " />
<glyph unicode="j" horiz-adv-x="282" d="M-487 -660q-9 10 14 20l2 1q146 58 255 200.5t210 377.5q97 227 244 641q14 38 14 57q0 15 -9 19q-3 1 -7 -1q-7 -5 -69.5 -43t-78.5 -47q-14 -7 -22 21q-10 36 7 52q4 4 9 5q128 27 205 55q25 9 50 1.5t17 -29.5q-1 -2 -37 -100.5t-75.5 -205.5t-85.5 -222.5t-70 -164.5 q-47 -97 -76 -154t-70.5 -128.5t-77 -115.5t-83 -91.5t-102.5 -82.5t-123 -64q-30 -12 -41 -1zM343 938q7 31 32 43q11 4 22 2q27 -5 21 -38t-32 -44q-10 -4 -21 -2q-28 6 -22 39z" />
<glyph unicode="k" horiz-adv-x="903" d="M-12 -6q3 5 78.5 203.5t160 419t97.5 255.5q154 402 324 619t345 217q201 0 201 -188v-13q-2 -25 -14 -25q-8 0 -11 17q-6 24 -18.5 48.5t-33.5 51.5t-57 45.5t-81 22.5q-11 1 -22 1q-57 0 -111 -26q-64 -32 -123.5 -109.5t-103.5 -145t-98 -195.5t-79.5 -194t-75.5 -202 q-22 -59 -32 -87q-12 -34 -115 -306q92 136 175.5 216.5t158.5 80.5q55 0 80 -34q21 -29 21 -63q0 -7 -1 -13q-1 -15 -11.5 -39.5t-36 -61.5t-81 -71t-131.5 -51q-2 0 16 -42.5t49.5 -107.5t59.5 -115q34 -59 109 -77q23 -6 44 -6q46 0 81 28q38 31 54 85q8 29 9 53 q0 20 -6 36q-7 19 9 19q21 0 35 -28q7 -12 9 -26q2 -13 2 -26q0 -70 -62 -120q-72 -58 -179 -58q-33 0 -61.5 7.5t-49 16t-41.5 30t-32 33.5t-27 43.5t-21.5 43.5t-21 49.5t-19.5 46.5q-25 58 -38.5 80t-30.5 26q-23 6 -1 11q10 3 27 4q76 4 166 59q81 51 92 124q2 11 2 20 q0 40 -30 60q-17 12 -39 12q-36 0 -82 -34q-27 -19 -54 -49q-59 -66 -119.5 -166.5t-103.5 -210.5q-17 -43 -34.5 -88.5t-26.5 -70t-10 -25.5q-10 -18 -52 -21q-30 0 -28 11z" />
<glyph unicode="l" horiz-adv-x="354" d="M-12 -6q4 9 156.5 409t177.5 469q43 115 90.5 216.5t118 211.5t146.5 188.5t175 129.5t205 51q66 0 116.5 -21t77.5 -53t40 -64.5t14 -62.5q0 -37 -15 -56t-22 20q-5 33 -21.5 65t-46 62.5t-79 49.5t-111.5 19q-165 0 -297 -162q-34 -42 -70 -98t-68 -118t-59.5 -117.5 t-55 -120t-42.5 -101.5t-34 -84.5t-19 -48.5q-57 -146 -130.5 -338t-118.5 -312t-48 -126q-10 -18 -52 -20q-30 1 -28 12z" />
<glyph unicode="m" horiz-adv-x="1212" d="M-9 -9q0 2 1 3q0 1 5.5 14.5t17.5 43t24 59.5q84 207 123 325q22 70 26 128q1 11 1 22q1 44 -11 68q-14 32 -43 30q-51 -2 -75 -38q-20 -30 -19 -62v-13q3 -26 -14 -26q-15 -1 -23 19q-1 3 -2 7q-1 7 -1 14q0 39 42 75q50 42 115 42q48 0 78 -25t30 -73q-2 -74 -57 -237 q-19 -61 -19 -76q0 -4 2 -4h1q2 1 6 8q11 23 65 104.5t94 128.5q55 66 133 120q77 54 142 54h2q33 0 50 -25q12 -17 12 -48q0 -15 -3 -33q-8 -57 -31.5 -124t-37.5 -95q-41 -96 -47 -139q102 173 197.5 287t168.5 151q48 23 87 23q22 1 41 -7q50 -21 50 -79q0 -21 -9 -59 q-8 -33 -15.5 -55.5t-26 -73t-24.5 -67.5q-3 -10 -16.5 -43t-22.5 -60t-20.5 -64.5t-12.5 -66t3 -54.5t24.5 -40t54.5 -14q45 0 84 39q17 17 27 9q4 -4 1 -9q-14 -24 -52 -48t-87 -25h-12q-56 0 -90 24q-38 28 -41 84v7q0 62 63 222q66 167 79 218q7 31 7 55q0 65 -57 65h-8 q-39 -3 -85.5 -46t-113.5 -126q-66 -82 -170.5 -250t-140.5 -233q-11 -20 -44 -20q-28 0 -27 17q0 2 1 5t43 105.5t83.5 207t53.5 142.5q25 79 25 125q0 51 -31 60q-6 2 -13 2q-58 0 -171 -128q-43 -48 -104 -146t-101 -171t-106 -197q-9 -20 -52 -21q-28 -2 -27 8z" />
<glyph unicode="n" horiz-adv-x="774" d="M-12 -6q1 1 6 14.5t16.5 43.5t22.5 59q98 253 123 327q26 72 34 128q4 26 4 48q0 24 -6 40q-10 32 -36 30q-51 0 -74 -34q-20 -29 -19 -61v-11q3 -24 -14 -24q-15 0 -21 19q-1 2 -1 5q-1 7 -1 13q0 37 40 71q47 40 112 40q48 0 77 -25q28 -24 29 -70q0 -27 -24 -93 q-20 -60 -52 -137.5t-42 -106.5q-19 -60 -19 -73q0 -4 2 -5q1 0 1 1q2 1 6 8q25 43 41.5 70.5t51 83t66.5 96.5t71.5 88t82 82.5t84.5 56.5q48 23 87 23q22 1 41 -7q50 -21 50 -79q0 -21 -9 -59q-8 -32 -17.5 -59t-26.5 -73t-25 -70q-58 -172 -70 -251q-4 -23 -3 -40 q0 -41 20 -47q18 -7 35 -7q37 0 69 32q15 15 23 7q3 -3 0 -7q-11 -17 -42 -37.5t-67 -21.5h-12q-41 0 -68 19q-31 22 -34 67v6q0 34 21 104q23 76 50 152t47 150q13 48 13 86q1 20 -3 36q-10 48 -61 49h-2q-46 -1 -126 -83q-82 -84 -157.5 -192.5t-136.5 -215.5 q-18 -31 -44.5 -87t-32.5 -69q-9 -20 -52 -21q-30 0 -28 11z" />
<glyph unicode="o" d="M0 221q1 86 29.5 170.5t78.5 153.5t127 112t166 43q120 0 191.5 -72.5t71.5 -197.5q0 -112 -54 -214q-55 -104 -154 -170q-98 -65 -211 -64h-3q-242 0 -242 239zM68 293q0 -119 61 -198t156 -79q112 0 190.5 86t97.5 226q4 29 4 56q0 99 -49 175q-62 96 -168 96 q-72 0 -129 -31.5t-91.5 -84.5t-52.5 -116t-19 -130z" />
<glyph unicode="p" horiz-adv-x="743" d="M-399 -828q1 12 14 21q84 54 156 229q65 160 199 497.5t141 356.5q96 241 102 353q3 38 -20 56t-51.5 3t-39.5 -59q-2 -8 -3 -17.5t-1 -14.5t-2.5 -8.5t-7.5 -4.5q-13 0 -18 17.5t-2 39.5q6 33 45.5 55.5t83.5 22.5q37 1 60 -16.5t30 -60.5q2 -9 2 -20q0 -38 -19 -94 q-13 -48 -96 -270q24 43 37.5 66.5t45.5 76.5t56 86.5t59.5 78t65.5 70.5t65 45t66 19q37 0 64 -14.5t41 -36t22.5 -53.5t10.5 -57t2 -58q0 -62 -19 -131.5t-56 -135.5t-86 -118.5t-115 -83.5q-62 -30 -129 -30h-9q-68 1 -112.5 42t-57.5 97q-229 -595 -311 -754 q-34 -63 -84.5 -116.5t-106.5 -81.5q-24 -12 -22 3zM152 143q-1 -3 3.5 -15.5t16 -31.5t29 -37t47 -30.5t65.5 -12.5q73 0 136.5 46.5t102 114.5t60 137.5t21.5 123.5t-10 93.5t-23 59.5t-31 31.5t-29 14t-22 2.5q-16 0 -32.5 -6t-48 -27.5t-75.5 -78t-94 -142.5 q-32 -54 -60.5 -113.5t-41 -90.5t-14.5 -38z" />
<glyph unicode="q" horiz-adv-x="755" d="M0 172q0 53 21 121t64 140t100.5 132t139.5 98.5t173 38.5q38 0 69.5 -8.5t46.5 -19.5t29 -21.5t17.5 -13t11.5 5.5q4 6 13.5 23t14.5 24q6 6 41 8q32 2 29 -12q0 -3 -2 -6q-44 -79 -127.5 -284.5t-162.5 -413t-93 -240.5q-207 -479 -207 -613v-10q7 -59 -4 -61 q-7 0 -17.5 13.5t-15.5 37.5q-5 26 -5 53q0 21 3 43q16 84 74 255t118 328t179 460q34 85 34 102q0 3 -1 4t-4 -4q-112 -189 -224 -282q-106 -88 -199 -88h-10q-106 8 -106 190zM70 215q0 -83 36 -133q35 -47 80 -47h4q47 2 97.5 36t95 88.5t83.5 111t71 118t48 94.5t25 54 q10 20 10 38q0 42 -57 70q-55 27 -110 27q-60 0 -121 -31q-45 -24 -89 -63t-84 -92t-64.5 -124.5t-24.5 -146.5z" />
<glyph unicode="r" horiz-adv-x="618" d="M-2 -6q13 27 71.5 177t90.5 243q25 70 32 131q3 26 3 47q1 28 -5 48q-10 34 -32 32q-40 -1 -57.5 -21.5t-14.5 -48.5q1 -14 -5.5 -18t-14 1.5t-9.5 16.5q-1 4 -1 9q0 29 36 57q41 32 92 32q80 0 80 -77v-9q-1 -45 -44.5 -190.5t-78.5 -241.5q-19 -53 -9 -52q8 2 18 24 q7 13 30.5 63.5t39.5 83.5t45.5 88t53.5 92.5t58 82.5t64 72t66.5 45.5t70.5 18.5q35 0 53 -21t18 -50t-9 -59t-24 -50q-3 -3 -7.5 -3.5t-8.5 5.5t-4 17q0 32 -18 57t-66 25q-22 0 -47 -15.5t-52 -47.5t-51 -65t-53.5 -84.5t-50.5 -89.5t-51 -94q-15 -29 -23 -43 q-47 -90 -90 -176q-10 -18 -60 -23q-38 -1 -36 11z" />
<glyph unicode="s" horiz-adv-x="645" d="M2 184q6 52 35 95q27 40 39 40q4 0 7 -5q7 -13 -3 -29q-14 -22 -14 -57q0 -32 13 -67q13 -36 35 -68t56.5 -52.5t73.5 -20.5q76 0 122 57t46 124q0 21 -18.5 126.5t-18.5 143.5q0 69 23 118t59 71t67 31t60 9q102 0 102 -84q0 -61 -29 -87q-18 -17 -26 2q-3 9 -2 24 q1 7 1 13q0 38 -30 60q-35 26 -88 27q-70 0 -70 -100q0 -44 23.5 -158.5t23.5 -138.5q0 -115 -96 -195.5t-203 -80.5q-69 0 -115.5 30t-62.5 75q-12 33 -12 69q0 14 2 28z" />
<glyph unicode="t" horiz-adv-x="413" d="M2 111q0 55 48 193q49 140 95 249.5t52 118.5q4 4 -38 2q-23 -2 -40 -4q-21 -3 -23.5 8.5t17.5 23.5q38 25 103.5 77t84.5 71q33 33 45 26q5 -2 2 -10q-2 -5 -15.5 -39t-32.5 -82t-32 -81h121q19 2 68 51q7 7 10 -4q0 -9 -4 -17q-4 -6 -14.5 -20t-23.5 -29.5t-17 -21.5 q-19 -19 -52 -19h-114q-83 -196 -140 -373q-24 -77 -27 -104.5t13 -58.5q28 -42 78 -52q12 -3 24 -3q38 0 80 24q17 10 23 1q5 -8 -12 -24q-40 -32 -125 -32q-12 0 -30.5 3.5t-49.5 14t-52 38.5q-22 30 -22 73z" />
<glyph unicode="u" horiz-adv-x="727" d="M-2 85q4 41 14 89q13 50 57 158.5t56 142.5q20 58 30.5 93t13.5 60.5t-4 35.5t-24 10q-36 -1 -61.5 -27t-22.5 -55q1 -15 -6 -21t-15.5 -0.5t-10.5 17.5q-1 6 -1 11q0 35 44 67q51 36 100 36q74 0 74 -82v-6q-1 -24 -18 -76.5t-35 -99t-51.5 -130.5t-47.5 -120t-16 -76 v-6q0 -36 16 -65q16 -31 51 -31q108 2 265 246q30 47 87.5 151.5t96 177t47.5 91.5q10 18 60 24q38 2 36 -10q-8 -14 -194 -534q-14 -42 -14 -72q0 -64 65 -74q7 -1 13 -1q35 0 67 32q15 15 22 8q3 -3 0 -8q-8 -13 -30.5 -30t-49.5 -25q-20 -3 -45 -4t-54.5 10.5t-45.5 34.5 q-11 15 -16 33.5t-3 42.5t5 43.5t13 51t16 48.5t19.5 52t18.5 48l70 195q-15 -23 -47 -82t-62.5 -117.5t-75.5 -126.5t-89 -118.5t-100 -82.5q-51 -30 -101 -30h-9q-60 4 -86 32q-23 25 -23 60q1 4 1 9z" />
<glyph unicode="v" horiz-adv-x="657" d="M-2 530q-1 5 -1 11q0 27 32 59q19 18 46.5 29t58.5 13q3 0 6 1l56 -19q31 -22 50 -67q49 -108 49 -358q0 -15 -10 -116q-3 -34 3 -34q1 0 3 2q332 283 332 492q0 14 -2 31.5t-8 43t-21 42.5t-37 18q-15 0 -19 10q-3 7 8 9q2 1 3 1q13 3 26 3q37 1 67 -25q42 -34 42 -113 q0 -185 -272 -434q-83 -77 -135 -121q-41 -35 -50 -36q-2 0 -2 3q0 1 1.5 28.5t2.5 65.5q1 37 1 83q0 8 1 16q-1 38 -3 80q-2 50 -7 86q-7 50 -10.5 71.5t-11 61.5t-16 59t-21.5 41.5t-30.5 31.5t-39.5 9q-21 0 -42.5 -23t-18.5 -48q2 -15 -5 -21.5t-15.5 -2t-10.5 16.5z " />
<glyph unicode="w" horiz-adv-x="954" d="M2 616q-1 8 -1 15q0 28 21 45q26 22 70 24h30q30 0 60 -2q21 -3 41 -3q26 0 49 5q10 0 1 -21q-8 -18 -29 -36q-51 -43 -99.5 -179t-48.5 -241q0 -95 40.5 -153t105.5 -58q31 0 70.5 31t47.5 49l2 2q-22 48 -22 96q0 188 44.5 318t96.5 178q22 18 57 16q20 -2 19 -11 q-1 -5 -8 -11q-50 -43 -96.5 -181.5t-46.5 -262.5q0 -92 38.5 -156t106.5 -64q33 0 73 23.5t79.5 67.5t72.5 100.5t53.5 130t20.5 147.5q0 56 -14 113.5t-37 67.5q-14 6 -18.5 14t-2 13.5t7.5 6.5q4 1 24.5 -6t37.5 -2q32 9 62 9l20 -1q41 -4 47 -18q5 -11 2.5 -22 t-13.5 -10.5t-22 16.5q-9 13 -28 16.5t-33 -1.5t-13 -11q0 -3 9 -24t18.5 -55t9.5 -67q0 -90 -29 -185t-78.5 -175t-124 -131t-157.5 -51q-88 0 -141 86q-26 -32 -73 -59t-109 -27q-32 0 -60 10t-55.5 35.5t-43.5 79t-16 129.5q0 104 46 217.5t96 177.5q6 8 17 21 q18 23 13 26q-3 3 -20 4q-3 0 -21 0.5t-31 0.5t-30.5 -2t-28.5 -7q-31 -14 -26 -53q2 -15 -5.5 -21.5t-16.5 -1.5t-11 18z" />
<glyph unicode="x" horiz-adv-x="864" d="M-10 53q-4 39 11 47q11 6 22 -16q1 -1 5 -11.5t6 -13.5t7.5 -11.5t11 -11.5t14.5 -7.5t21 -5.5t27 0q54 4 128 81t177 213q-11 50 -19.5 86.5t-21 82.5t-24 77.5t-25 60t-29 42.5t-31.5 14q-34 -1 -51 -19t-17 -42t1 -48q2 -18 -7 -24t-20 1t-14 21q-1 9 -1 17 q0 40 31 74q38 42 101 42q90 0 141 -122q28 -70 49 -177q124 165 189 228q42 39 86 57q30 12 50 13q9 0 17 -3q21 -7 8 -34q-10 -20 -19 -15q-2 0 -3 2q-11 11 -33 11q-71 0 -289 -287q31 -169 43 -207q53 -164 142 -164q48 0 72 48q15 30 15 53q0 13 -5 24q-7 17 -4 23.5 t13 3t19 -14.5q17 -21 17 -44q0 -29 -25 -59q-45 -56 -123 -56q-93 0 -144.5 62.5t-78.5 221.5l-4 25q-8 -10 -23.5 -31t-23.5 -31q-47 -62 -78.5 -99.5t-70.5 -75.5t-77 -55t-77 -17q-45 0 -63.5 19t-22.5 52z" />
<glyph unicode="y" horiz-adv-x="612" d="M-1239 -481v12q0 123 61 217q64 98 140 123q22 8 30 -1t-14 -17q-21 -7 -46 -26.5t-52 -52t-44.5 -83.5t-17.5 -109q0 -54 16 -107.5t52.5 -106.5t90 -93t135.5 -65t181 -25q181 0 363 81t316.5 205.5t221 278.5t93.5 297q1 28 1 55q0 111 -20 215q-24 130 -78 213 q-48 75 -110 75q-6 0 -12 -1q-37 -4 -37 -45q0 -18 6 -41q7 -20 -8.5 -21.5t-22.5 14.5q-1 3 -2 7q-2 14 -2 27q0 43 26 76q33 43 85 43q87 0 146.5 -111.5t78.5 -262.5q10 -79 10 -154q0 -68 -8 -132q-2 -17 9 -13q25 9 67 84q78 138 98 310q3 32 3 62q0 85 -27 145 q-38 81 -109 84q-15 0 -21 11q-3 7 7 9q19 5 37 5q28 0 52 -11q40 -19 62.5 -57t34.5 -82t12 -88q0 -63 -21.5 -151t-62 -193t-104.5 -217t-143 -220.5t-183.5 -205.5t-220 -170.5t-259 -116.5t-294.5 -43q-235 0 -373 102t-143 271z" />
<glyph unicode="z" horiz-adv-x="927" d="M-2 -5q-1 7 20 17q44 24 85.5 78t127.5 185q5 8 7.5 12.5t7 11t8.5 12.5q68 102 146 204.5t98 119.5q36 31 18 31q-1 0 -30 1q-28 1 -60 1h-34h-37q-39 0 -62 -2q-46 -4 -89.5 -35.5t-60.5 -59.5q-15 -26 -25 -22q-5 3 1 16q6 10 24.5 52.5t26.5 58.5q7 13 17 19.5t17 6 t9 -5.5q3 -10 19.5 -11t62.5 1q13 0 95.5 1t138.5 3.5t67 7.5q16 8 28 -2q7 -8 -3 -18q-157 -193 -285 -375q-165 -237 -174 -250q-19 -31 -8 -28l108 9q108 9 148 9q32 -1 126 -9q84 -8 108 -7h5t23.5 1t42 3t46.5 6t49 12.5t38 20.5q27 19 30 7q0 -2 -1 -5 q-6 -14 -33 -30.5t-82 -33.5q-54 -18 -134 -23q-26 -2 -57 -2q-60 0 -135 7q-56 6 -180 6h-56q-168 -2 -186 -6q-16 -2 -16 5z" />
<glyph unicode="|" horiz-adv-x="411" d="M340 -492v1987h70v-1987h-70z" />
<glyph unicode="~" horiz-adv-x="1228" d="M555 283q17 60 42 89.5t59.5 31.5t65 -6t77.5 -23.5t78 -20.5q29 -4 49.5 -0.5t34 16.5t18 20.5t14.5 25.5q2 4 8 -3q4 -5 3 -10q-18 -50 -41.5 -78t-46 -36t-53 -4.5t-56 13.5t-62 22t-63.5 16q-14 2 -26.5 2.5t-22.5 -2.5t-17 -4.5t-14.5 -9.5t-11 -10t-9.5 -13 t-6.5 -12l-6.5 -13l-3 -6q-1 -1 -4 0.5t-5 5.5t-1 9z" />
<glyph unicode="&#xa1;" d="M149.5 28q-11.5 21 0.5 48q12 20 369 524.5t394 562.5q2 2 6.5 1.5t6.5 -3t0 -6.5q-9 -15 -91.5 -153t-170 -283.5t-184 -306t-165 -270.5t-82.5 -126q-18 -20 -45 -14.5t-38.5 26.5zM958 1372q0 31 22.5 53.5t53.5 22.5t53.5 -22.5t22.5 -53.5t-22.5 -53.5t-53.5 -22.5 t-53.5 22.5t-22.5 53.5z" />
<glyph unicode="&#xa2;" horiz-adv-x="1024" d="M254 -258q41 72 154 276q-66 27 -97.5 85.5t-15.5 150.5q11 64 50 136.5t99 140t148 111t184 42.5l142 254l16 -4l-139 -250q19 -2 39.5 -8.5t45 -20t38.5 -34.5t18.5 -51.5t-14.5 -71.5q-5 -13 -13.5 -21t-15.5 -4t-8 23q-2 45 -32 85t-83 56l-311 -559 q67 -43 157 -36.5t150 58.5q17 15 20 3q2 -12 -12 -23q-75 -54 -173.5 -73.5t-176.5 5.5q-83 -148 -154 -274zM381 285q-22 -132 65 -199l308 555q-28 4 -49 4q-116 0 -208 -108t-116 -252z" />
<glyph unicode="&#xa3;" horiz-adv-x="1540" d="M166 82q-3 17 76 14q41 23 82 77t81 140t71.5 165.5t72.5 195.5h-182l20 35h176q43 129 90 249q52 139 105 233t113 150t124 81t146 28q110 3 171.5 -43.5t61.5 -146.5q0 -51 -18.5 -95.5t-40.5 -68.5q-13 -15 -19.5 -12.5t0.5 24.5q9 24 12.5 62t-3.5 84t-26 85.5 t-62.5 64t-106.5 21.5q-37 -2 -72.5 -18t-66 -38.5t-61.5 -62t-55.5 -75t-52.5 -92t-47.5 -99t-46 -109t-42.5 -109.5t-41 -113h530l-20 -35h-523q-108 -305 -178 -410q-72 -111 -170 -168q129 -3 451.5 -55.5t478.5 -42.5q69 5 106 50.5t27 105.5t-65 104q-6 7 7 17 q18 14 48 -9q40 -30 49.5 -78t-9 -94t-63.5 -84t-104 -49q-53 -11 -115 -12.5t-134 5t-140.5 16.5t-157.5 26q-137 24 -212 33.5t-124.5 9.5t-113.5 -2q-10 0 -18.5 18t-8.5 27z" />
<glyph unicode="&#xa8;" horiz-adv-x="454" d="M231 991q0 34 22.5 56t57.5 22q23 0 37 -23.5t14 -48.5q0 -31 -22 -53t-55 -22q-25 0 -39.5 21t-14.5 48zM526 991q0 34 22.5 56t57.5 22q23 0 37 -23.5t14 -48.5q0 -31 -22 -53t-55 -22q-25 0 -39.5 21t-14.5 48z" />
<glyph unicode="&#xaa;" horiz-adv-x="544" d="M325.5 740.5q-5.5 34.5 2.5 77t33 91t63 92.5q50 57 115 85t112 28q77 3 97 -33l8 19q10 14 30 14q7 1 12.5 -1t8 -5t0.5 -6q-1 -3 -24 -52t-52 -112t-41 -94q-56 -150 10 -150q13 0 30 9t26.5 16.5t13.5 11.5q10 10 16 -4q5 -10 -2 -14l-4 -4l-6 -7q-43 -43 -112 -43 q-23 0 -40.5 20.5t-13.5 63.5q1 7 3 16.5t6 23t6 22.5q-102 -150 -213 -143q-35 2 -57 23t-27.5 55.5zM381 793q0 -65 40.5 -82t84.5 14q56 33 113 121.5t102 187.5q5 10 -8.5 23.5t-40.5 19.5q-70 16 -146 -28q-56 -35 -100.5 -103t-44.5 -153z" />
<glyph unicode="&#xab;" horiz-adv-x="909" d="M139 338q75 40 169 110.5t153 126.5l10 -14q-46 -56 -116 -124t-119 -101q47 -74 124 -236l-14 -6q-31 50 -89 118.5t-118 125.5zM381 338q74 40 167.5 110.5t153.5 126.5l11 -14q-46 -55 -116.5 -123.5t-119.5 -101.5q51 -80 125 -236l-14 -6q-31 50 -89 118.5 t-118 125.5z" />
<glyph unicode="&#xad;" d="M152 324l22 57h473l-24 -57h-471z" />
<glyph unicode="&#xaf;" horiz-adv-x="454" d="M178 965q0 18 23 29.5t67 11.5h373q30 0 39.5 -2.5t9.5 -12.5q0 -39 -76 -39h-409q-27 0 -27 13z" />
<glyph unicode="&#xb0;" horiz-adv-x="819" d="M481 811q0 95 65.5 160t160.5 65q97 0 162 -65t65 -160q0 -96 -65.5 -161.5t-161.5 -65.5q-95 0 -160.5 66t-65.5 161zM551 811q0 -68 45.5 -118t112.5 -50q65 0 110 50t45 118t-45 118t-110 50q-67 0 -112.5 -50t-45.5 -118z" />
<glyph unicode="&#xb4;" horiz-adv-x="454" d="M449 881q2 7 12.5 14l21 14t19 29.5t8.5 56.5q0 57 14 88q17 35 46 32q27 -4 33 -39q6 -37 -21 -89q-24 -47 -61 -78t-62 -37q-4 -1 -7 3t-3 6z" />
<glyph unicode="&#xb7;" horiz-adv-x="512" d="M342 352q0 31 22.5 53.5t53.5 22.5t53.5 -22.5t22.5 -53.5t-22.5 -53.5t-53.5 -22.5t-53.5 22.5t-22.5 53.5z" />
<glyph unicode="&#xb8;" horiz-adv-x="454" d="M-149 -261q-2 8 6 7h2q81 -21 137 14q40 24 29 53q-17 42 -129 44l67 112q-7 0 -1 8q8 10 22 7q10 -2 11.5 -6t-1.5 -8l-4 -3l-47 -80q115 -6 133 -57q13 -39 -32 -75q-60 -48 -151 -36q-14 2 -28 5q-11 4 -14 15z" />
<glyph unicode="&#xba;" horiz-adv-x="544" d="M332 809q0 112 71 203.5t183 91.5q75 0 120.5 -46t45.5 -120q2 -107 -77.5 -192t-187.5 -84q-155 0 -155 147zM385 852q0 -69 36 -115.5t91 -46.5q68 0 115 50t57 134q10 79 -26.5 135t-98.5 56q-83 0 -127.5 -63t-46.5 -150z" />
<glyph unicode="&#xbb;" horiz-adv-x="909" d="M190 109q49 56 118.5 123.5t117.5 99.5q-54 88 -125 237l14 6q68 -109 207 -245q-75 -40 -168.5 -110t-152.5 -126zM432 109q49 56 118.5 123.5t117.5 99.5q-54 88 -125 237l14 6q68 -109 207 -245q-75 -40 -169 -110.5t-153 -125.5z" />
<glyph unicode="&#xbf;" horiz-adv-x="1064" d="M0 369q0 142 109.5 292t279.5 230q4 2 57.5 26.5t67 31t63 30.5t69 36.5t60.5 36t62 41t49.5 41t46 46.5t29.5 47q4 5 11 5t13 -5t3 -10q-48 -81 -133 -146t-165 -101.5t-179 -88t-160 -101.5q-215 -181 -215 -434q0 -143 87.5 -226t229.5 -83q79 0 165.5 35t158 92 t118.5 138.5t47 166.5q0 96 -57 170t-162 74q-29 0 -29 10q0 11 22 15q5 1 11 1q110 0 191.5 -71t81.5 -191q0 -83 -34.5 -159t-91.5 -132.5t-129 -99t-150.5 -64.5t-151.5 -22q-175 0 -275 105t-100 264zM922 1415q0 31 22 53.5t53 22.5t53.5 -22.5t22.5 -53.5t-22.5 -53.5 t-53.5 -22.5t-53 22.5t-22 53.5z" />
<glyph unicode="&#xc0;" horiz-adv-x="1775" d="M10 375q1 86 26.5 154t63.5 107.5t87 65t90.5 34.5t80.5 9q60 0 96 -30t46 -62q10 -30 -4 -44q-7 -8 -15 3q-5 12 -8.5 18.5t-18.5 22t-33.5 24t-55 15.5t-82.5 6q-26 -1 -56 -10t-64 -32.5t-60 -57.5t-41.5 -89t-12.5 -122q3 -73 42.5 -151t118 -145t177.5 -89 q129 -27 243.5 -0.5t190.5 96.5q63 59 131.5 135t146.5 177t135.5 178t153 208t144.5 197q90 118 177 211t150.5 143.5t105 77t65.5 33.5q14 4 13 -4q0 -7 -11 -27q-37 -56 -148 -333q-24 -56 -117.5 -308t-186 -507t-97.5 -267q-5 -21 -47 -27q-40 -6 -43 10q-1 4 2 9 q31 46 258 649q-83 -9 -316 -12q-52 -79 -123 -178q-86 -123 -165.5 -212.5t-169 -160t-186.5 -106t-201 -35.5q-222 0 -352 108t-130 318zM491 1121q8 84 48 154.5t87.5 117t98.5 73.5q44 23 82.5 37.5t102 26t131 9.5t164 -21t206.5 -58q64 -22 118.5 -39t91.5 -27 t68 -15.5t48 -8t33 -1t21 2.5t14 4.5t10 3.5q16 6 15 0q-3 -9 -20 -20q-5 -4 -23.5 -10t-57.5 -11t-87 -5t-117.5 13t-142.5 39q-58 21 -101.5 35t-109 31t-117.5 24.5t-115 8.5t-113 -10.5t-100.5 -38.5t-88.5 -70q-58 -66 -81.5 -145t-12.5 -150t41 -135t75.5 -108.5 t94.5 -61.5q95 -32 141 -16q16 7 18 -1q2 -10 -30 -21l-4 -1q-16 -4 -73 0q-187 14 -265 139q-20 32 -31 70q-27 101 -19 185zM1354 664q111 0 307 8q195 537 217 577q54 110 55 122q0 4 -4 3q-122 -50 -575 -710zM1551 1707q18 24 45 10q15 -9 24 -27q14 -31 14 -88 q0 -44 13.5 -67t30 -32t18.5 -16q0 -2 -3 -5.5t-7 -2.5q-25 6 -62 36.5t-61 77.5q-39 76 -12 114z" />
<glyph unicode="&#xc1;" horiz-adv-x="1775" d="M10 375q1 86 26.5 154t63.5 107.5t87 65t90.5 34.5t80.5 9q60 0 96 -30t46 -62q10 -30 -4 -44q-7 -8 -15 3q-5 12 -8.5 18.5t-18.5 22t-33.5 24t-55 15.5t-82.5 6q-26 -1 -56 -10t-64 -32.5t-60 -57.5t-41.5 -89t-12.5 -122q3 -73 42.5 -151t118 -145t177.5 -89 q129 -27 243.5 -0.5t190.5 96.5q63 59 131.5 135t146.5 177t135.5 178t153 208t144.5 197q90 118 177 211t150.5 143.5t105 77t65.5 33.5q14 4 13 -4q0 -7 -11 -27q-37 -56 -148 -333q-24 -56 -117.5 -308t-186 -507t-97.5 -267q-5 -21 -47 -27q-40 -6 -43 10q-1 4 2 9 q31 46 258 649q-83 -9 -316 -12q-52 -79 -123 -178q-86 -123 -165.5 -212.5t-169 -160t-186.5 -106t-201 -35.5q-222 0 -352 108t-130 318zM491 1121q8 84 48 154.5t87.5 117t98.5 73.5q44 23 82.5 37.5t102 26t131 9.5t164 -21t206.5 -58q64 -22 118.5 -39t91.5 -27 t68 -15.5t48 -8t33 -1t21 2.5t14 4.5t10 3.5q16 6 15 0q-3 -9 -20 -20q-5 -4 -23.5 -10t-57.5 -11t-87 -5t-117.5 13t-142.5 39q-58 21 -101.5 35t-109 31t-117.5 24.5t-115 8.5t-113 -10.5t-100.5 -38.5t-88.5 -70q-58 -66 -81.5 -145t-12.5 -150t41 -135t75.5 -108.5 t94.5 -61.5q95 -32 141 -16q16 7 18 -1q2 -10 -30 -21l-4 -1q-16 -4 -73 0q-187 14 -265 139q-20 32 -31 70q-27 101 -19 185zM1354 664q111 0 307 8q195 537 217 577q54 110 55 122q0 4 -4 3q-122 -50 -575 -710zM1761 1487q2 7 18.5 16t30 32t13.5 67q0 56 14 88 q16 35 45 31q27 -3 33 -37q6 -39 -21 -91q-24 -47 -60.5 -77.5t-61.5 -36.5q-4 -1 -7.5 2.5t-3.5 5.5z" />
<glyph unicode="&#xc2;" horiz-adv-x="1775" d="M10 375q1 86 26.5 154t63.5 107.5t87 65t90.5 34.5t80.5 9q60 0 96 -30t46 -62q10 -30 -4 -44q-7 -8 -15 3q-5 12 -8.5 18.5t-18.5 22t-33.5 24t-55 15.5t-82.5 6q-26 -1 -56 -10t-64 -32.5t-60 -57.5t-41.5 -89t-12.5 -122q3 -73 42.5 -151t118 -145t177.5 -89 q129 -27 243.5 -0.5t190.5 96.5q63 59 131.5 135t146.5 177t135.5 178t153 208t144.5 197q90 118 177 211t150.5 143.5t105 77t65.5 33.5q14 4 13 -4q0 -7 -11 -27q-37 -56 -148 -333q-24 -56 -117.5 -308t-186 -507t-97.5 -267q-5 -21 -47 -27q-40 -6 -43 10q-1 4 2 9 q31 46 258 649q-83 -9 -316 -12q-52 -79 -123 -178q-86 -123 -165.5 -212.5t-169 -160t-186.5 -106t-201 -35.5q-222 0 -352 108t-130 318zM491 1121q8 84 48 154.5t87.5 117t98.5 73.5q44 23 82.5 37.5t102 26t131 9.5t164 -21t206.5 -58q64 -22 118.5 -39t91.5 -27 t68 -15.5t48 -8t33 -1t21 2.5t14 4.5t10 3.5q16 6 15 0q-3 -9 -20 -20q-5 -4 -23.5 -10t-57.5 -11t-87 -5t-117.5 13t-142.5 39q-58 21 -101.5 35t-109 31t-117.5 24.5t-115 8.5t-113 -10.5t-100.5 -38.5t-88.5 -70q-58 -66 -81.5 -145t-12.5 -150t41 -135t75.5 -108.5 t94.5 -61.5q95 -32 141 -16q16 7 18 -1q2 -10 -30 -21l-4 -1q-16 -4 -73 0q-187 14 -265 139q-20 32 -31 70q-27 101 -19 185zM1354 664q111 0 307 8q195 537 217 577q54 110 55 122q0 4 -4 3q-122 -50 -575 -710zM1591 1493q78 74 122 127t81 119h33q7 -156 65 -258 l-16 -11q-77 85 -107 148q-16 -15 -39 -37.5t-29.5 -28.5t-23 -19.5t-33 -24t-45.5 -29.5z" />
<glyph unicode="&#xc3;" horiz-adv-x="1775" d="M10 375q1 86 26.5 154t63.5 107.5t87 65t90.5 34.5t80.5 9q60 0 96 -30t46 -62q10 -30 -4 -44q-7 -8 -15 3q-5 12 -8.5 18.5t-18.5 22t-33.5 24t-55 15.5t-82.5 6q-26 -1 -56 -10t-64 -32.5t-60 -57.5t-41.5 -89t-12.5 -122q3 -73 42.5 -151t118 -145t177.5 -89 q129 -27 243.5 -0.5t190.5 96.5q63 59 131.5 135t146.5 177t135.5 178t153 208t144.5 197q90 118 177 211t150.5 143.5t105 77t65.5 33.5q14 4 13 -4q0 -7 -11 -27q-37 -56 -148 -333q-24 -56 -117.5 -308t-186 -507t-97.5 -267q-5 -21 -47 -27q-40 -6 -43 10q-1 4 2 9 q31 46 258 649q-83 -9 -316 -12q-52 -79 -123 -178q-86 -123 -165.5 -212.5t-169 -160t-186.5 -106t-201 -35.5q-222 0 -352 108t-130 318zM491 1121q8 84 48 154.5t87.5 117t98.5 73.5q44 23 82.5 37.5t102 26t131 9.5t164 -21t206.5 -58q64 -22 118.5 -39t91.5 -27 t68 -15.5t48 -8t33 -1t21 2.5t14 4.5t10 3.5q16 6 15 0q-3 -9 -20 -20q-5 -4 -23.5 -10t-57.5 -11t-87 -5t-117.5 13t-142.5 39q-58 21 -101.5 35t-109 31t-117.5 24.5t-115 8.5t-113 -10.5t-100.5 -38.5t-88.5 -70q-58 -66 -81.5 -145t-12.5 -150t41 -135t75.5 -108.5 t94.5 -61.5q95 -32 141 -16q16 7 18 -1q2 -10 -30 -21l-4 -1q-16 -4 -73 0q-187 14 -265 139q-20 32 -31 70q-27 101 -19 185zM1354 664q111 0 307 8q195 537 217 577q54 110 55 122q0 4 -4 3q-122 -50 -575 -710zM1513 1491q14 50 35 79t43.5 37.5t53.5 5t57.5 -12.5 t64.5 -21t66 -16q30 -4 51 -0.5t34.5 16t19 20.5t14.5 25q2 4 8 -3q3 -4 2 -9q-18 -50 -41.5 -78t-46 -36t-53 -4.5t-56 13t-62 21.5t-63.5 16q-12 2 -23 2t-19.5 -0.5t-16.5 -4t-13 -5.5t-11.5 -8.5t-9 -8.5t-7.5 -10.5t-6 -10t-6 -11.5l-4 -10q-1 -1 -4 0.5t-5.5 5 t-1.5 8.5z" />
<glyph unicode="&#xc4;" horiz-adv-x="1775" d="M10 375q1 86 26.5 154t63.5 107.5t87 65t90.5 34.5t80.5 9q60 0 96 -30t46 -62q10 -30 -4 -44q-7 -8 -15 3q-5 12 -8.5 18.5t-18.5 22t-33.5 24t-55 15.5t-82.5 6q-26 -1 -56 -10t-64 -32.5t-60 -57.5t-41.5 -89t-12.5 -122q3 -73 42.5 -151t118 -145t177.5 -89 q129 -27 243.5 -0.5t190.5 96.5q63 59 131.5 135t146.5 177t135.5 178t153 208t144.5 197q90 118 177 211t150.5 143.5t105 77t65.5 33.5q14 4 13 -4q0 -7 -11 -27q-37 -56 -148 -333q-24 -56 -117.5 -308t-186 -507t-97.5 -267q-5 -21 -47 -27q-40 -6 -43 10q-1 4 2 9 q31 46 258 649q-83 -9 -316 -12q-52 -79 -123 -178q-86 -123 -165.5 -212.5t-169 -160t-186.5 -106t-201 -35.5q-222 0 -352 108t-130 318zM491 1121q8 84 48 154.5t87.5 117t98.5 73.5q44 23 82.5 37.5t102 26t131 9.5t164 -21t206.5 -58q64 -22 118.5 -39t91.5 -27 t68 -15.5t48 -8t33 -1t21 2.5t14 4.5t10 3.5q16 6 15 0q-3 -9 -20 -20q-5 -4 -23.5 -10t-57.5 -11t-87 -5t-117.5 13t-142.5 39q-58 21 -101.5 35t-109 31t-117.5 24.5t-115 8.5t-113 -10.5t-100.5 -38.5t-88.5 -70q-58 -66 -81.5 -145t-12.5 -150t41 -135t75.5 -108.5 t94.5 -61.5q95 -32 141 -16q16 7 18 -1q2 -10 -30 -21l-4 -1q-16 -4 -73 0q-187 14 -265 139q-20 32 -31 70q-27 101 -19 185zM1354 664q111 0 307 8q195 537 217 577q54 110 55 122q0 4 -4 3q-122 -50 -575 -710zM1662 1544q7 31 33 42q11 6 23 3q27 -6 18 -40 q-7 -32 -33 -42q-10 -4 -20 -2q-28 6 -21 39zM1810 1544q6 31 32 43q11 4 22 2q20 -5 20.5 -28t-16 -42t-37.5 -14q-28 6 -21 39z" />
<glyph unicode="&#xc5;" horiz-adv-x="1775" d="M10 375q1 86 26.5 154t63.5 107.5t87 65t90.5 34.5t80.5 9q60 0 96 -30t46 -62q10 -30 -4 -44q-7 -8 -15 3q-5 12 -8.5 18.5t-18.5 22t-33.5 24t-55 15.5t-82.5 6q-26 -1 -56 -10t-64 -32.5t-60 -57.5t-41.5 -89t-12.5 -122q3 -73 42.5 -151t118 -145t177.5 -89 q129 -27 243.5 -0.5t190.5 96.5q63 59 131.5 135t146.5 177t135.5 178t153 208t144.5 197q90 118 177 211t150.5 143.5t105 77t65.5 33.5q14 4 13 -4q0 -7 -11 -27q-37 -56 -148 -333q-24 -56 -117.5 -308t-186 -507t-97.5 -267q-5 -21 -47 -27q-40 -6 -43 10q-1 4 2 9 q31 46 258 649q-83 -9 -316 -12q-52 -79 -123 -178q-86 -123 -165.5 -212.5t-169 -160t-186.5 -106t-201 -35.5q-222 0 -352 108t-130 318zM491 1121q8 84 48 154.5t87.5 117t98.5 73.5q44 23 82.5 37.5t102 26t131 9.5t164 -21t206.5 -58q64 -22 118.5 -39t91.5 -27 t68 -15.5t48 -8t33 -1t21 2.5t14 4.5t10 3.5q16 6 15 0q-3 -9 -20 -20q-5 -4 -23.5 -10t-57.5 -11t-87 -5t-117.5 13t-142.5 39q-58 21 -101.5 35t-109 31t-117.5 24.5t-115 8.5t-113 -10.5t-100.5 -38.5t-88.5 -70q-58 -66 -81.5 -145t-12.5 -150t41 -135t75.5 -108.5 t94.5 -61.5q95 -32 141 -16q16 7 18 -1q2 -10 -30 -21l-4 -1q-16 -4 -73 0q-187 14 -265 139q-20 32 -31 70q-27 101 -19 185zM1354 664q111 0 307 8q195 537 217 577q54 110 55 122q0 4 -4 3q-122 -50 -575 -710zM1702 1548q-3 46 30 79.5t80 33.5q27 0 48 -18.5t24 -49.5 q3 -46 -30 -80t-80 -34q-28 0 -48.5 18.5t-23.5 50.5zM1733 1538q3 -39 41 -39q32 0 57 34.5t22 68.5q-3 38 -41 38q-33 0 -57.5 -34t-21.5 -68z" />
<glyph unicode="&#xc6;" horiz-adv-x="2353" d="M6 375q2 86 29.5 154t66 107.5t88 65t91.5 34.5t81 9q60 0 96 -30.5t44 -61.5q9 -28 -4 -44q-8 -9 -15 3q-6 13 -8.5 19t-17.5 22t-33.5 24t-54.5 15t-82 6q-27 -1 -57.5 -10t-64.5 -32.5t-61 -57.5t-44 -89t-15 -122q1 -42 15 -88.5t42 -93.5t66.5 -87t92.5 -71t114 -45 q127 -27 242.5 -0.5t193.5 96.5q79 72 179.5 188t168 202.5t200 261.5t185.5 243q92 118 181.5 211t154.5 143.5t107.5 77t66.5 33.5q13 4 13 -3t-13 -28q-9 -13 -45 -90q114 108 260 105q233 -7 236 -203q0 -51 -19 -95.5t-41 -66.5q-14 -14 -19.5 -11t1.5 24q9 24 12.5 62 t-3.5 85t-26.5 87t-63 67.5t-105.5 27.5q-204 0 -392 -442q-37 -88 -116 -295q35 3 70.5 6t54 4.5t22.5 1.5q28 1 71 35t58 55q11 16 12 5q1 -6 -2 -13q-2 -14 -37 -57.5t-59 -46.5q-2 0 -74 -5.5t-127 -9.5q-154 -398 -237 -616q267 -57 330 -59q97 -3 174.5 17t124 54 t77.5 79t42.5 87t11.5 84q0 74 -44 126t-124 52q-37 0 -61 -22.5t-32.5 -56.5t-11 -52t-2.5 -31q0 -8 -12 -7q-23 3 -27 38v6q-3 83 78 123q77 38 166 15q94 -24 124 -101q10 -26 11 -57q2 -71 -47.5 -152.5t-132.5 -144t-170 -80.5q-205 -44 -559 25q-14 3 -17.5 7t0.5 13 q33 49 275 649v2q-226 -14 -320 -14q-29 -42 -127 -178q-89 -123 -171 -212.5t-173 -160t-189 -106t-202 -35.5q-221 0 -348 108t-123 318zM504.5 1121q10.5 84 52.5 154.5t90.5 117t100.5 73.5q44 22 82.5 37t102.5 26.5t132 9.5t164.5 -21t206.5 -58q64 -22 117.5 -39 t90 -27t67.5 -15.5t48 -8t33 -1t21 2.5t14 4.5t10 3.5q16 6 15 0q-2 -10 -21 -20q-5 -4 -23.5 -10t-57.5 -11t-86.5 -5t-116.5 13t-142 39q-58 21 -101.5 35t-109 31t-117.5 24.5t-115 8.5t-113.5 -10.5t-101.5 -38.5t-90 -70q-60 -66 -85 -145t-16.5 -150t37 -135 t72.5 -108.5t93 -61.5q95 -32 141 -16q16 7 18 -1q2 -10 -30 -21l-4 -1q-16 -4 -72 0q-187 14 -263 139q-19 32 -30 70q-24 101 -13.5 185zM1358 668q161 0 311 10q92 238 119 305q97 248 108 266q74 132 56 125q-39 -16 -107 -86t-161.5 -188.5t-160.5 -208t-165 -223.5z " />
<glyph unicode="&#xc7;" horiz-adv-x="1386" d="M-14 575.5q-5 98.5 7.5 179.5t38 159.5t52.5 133.5t57 101q27 40 64 81.5t97 88.5t128.5 83.5t161 61.5t190.5 27q301 7 473 -164q132 -131 150 -321q17 -183 -77 -332q-100 -162 -288 -207q-64 -16 -135 -16q-229 0 -331 143q-76 107 -56 248q17 125 98 199 q47 43 105 53q17 3 21 -5q2 -4 -5 -5q-1 -1 -2 -1q-39 -10 -71.5 -47t-49 -90t-21.5 -114.5t14 -121.5t54.5 -110t103.5 -82t157 -35q79 -2 146 28.5t111 80.5t76 114.5t46.5 127t17.5 122.5q3 66 -12.5 134t-54 136.5t-96 121t-149.5 85.5t-204 33q-152 0 -277 -50.5 t-208 -133.5t-140 -193.5t-82.5 -227.5t-25.5 -238q0 -176 88.5 -320t243 -225t343.5 -80q135 0 228.5 26.5t179.5 73.5q11 7 10 -1q-3 -15 -22 -27q-172 -107 -465 -111l-45 -72q115 -6 134 -57q14 -39 -31 -75q-59 -47 -149 -36l-30 5q-11 4 -14 15q-2 8 6 7h2 q81 -21 137 14q39 24 28 53q-16 42 -128 44l61 102q-224 3 -398 124.5t-229 299.5q-29 94 -34 192.5zM647 -41h17h12l4 8q17 13 -6 17q-19 3 -24 -9q-2 -6 3 -6z" />
<glyph unicode="&#xc8;" horiz-adv-x="1220" d="M-1.5 381q1.5 49 13.5 106q24 95 70 178.5t95.5 138.5t110.5 104t105.5 74.5t89.5 50t54 30.5q25 18 39 48t17 54.5t6.5 75t6.5 78.5q10 73 57.5 128t110 77t119.5 10q38 -8 64.5 -26.5t38.5 -38.5t17 -43t4 -37.5t-3 -24.5q-19 -73 -72 -104q-23 -13 -26 -5q-2 2 2 7 q19 23 30 59.5t10 75t-26.5 70.5t-75.5 42q-56 9 -107 -27.5t-69 -107.5q-12 -48 -13.5 -115t-2.5 -73q-20 -88 -119 -150q-177 -112 -280 -230t-140 -267q-14 -66 -16 -133.5t21.5 -134.5t63 -122t109.5 -96t160 -57q121 -22 236 17t207.5 145.5t133.5 265.5 q42 163 -16.5 260.5t-179.5 120.5q-110 20 -207.5 -50.5t-140.5 -201.5q-17 -57 -7 -109t39 -90t62 -45q5 -2 7 -4.5t-0.5 -4.5t-10.5 -3q-93 -8 -144 78.5t-18 212.5q31 118 165 188.5t279 44.5q96 -18 164.5 -84t93.5 -156t2 -180q-37 -145 -146 -255t-250.5 -157.5 t-276.5 -23.5q-17 3 -39 8.5t-54.5 16t-64.5 24.5t-69 33.5t-68 43t-62.5 54t-51.5 66t-34.5 78.5t-13 92zM749 1830q18 23 44 9q15 -8 24 -27q14 -32 14 -88q0 -34 8.5 -56.5t19 -29.5t21.5 -14t13 -14q0 -2 -3 -5.5t-7 -2.5q-25 6 -62 36.5t-61 77.5q-40 77 -11 114z" />
<glyph unicode="&#xc9;" horiz-adv-x="1220" d="M-1.5 381q1.5 49 13.5 106q24 95 70 178.5t95.5 138.5t110.5 104t105.5 74.5t89.5 50t54 30.5q25 18 39 48t17 54.5t6.5 75t6.5 78.5q10 73 57.5 128t110 77t119.5 10q38 -8 64.5 -26.5t38.5 -38.5t17 -43t4 -37.5t-3 -24.5q-19 -73 -72 -104q-23 -13 -26 -5q-2 2 2 7 q19 23 30 59.5t10 75t-26.5 70.5t-75.5 42q-56 9 -107 -27.5t-69 -107.5q-12 -48 -13.5 -115t-2.5 -73q-20 -88 -119 -150q-177 -112 -280 -230t-140 -267q-14 -66 -16 -133.5t21.5 -134.5t63 -122t109.5 -96t160 -57q121 -22 236 17t207.5 145.5t133.5 265.5 q42 163 -16.5 260.5t-179.5 120.5q-110 20 -207.5 -50.5t-140.5 -201.5q-17 -57 -7 -109t39 -90t62 -45q5 -2 7 -4.5t-0.5 -4.5t-10.5 -3q-93 -8 -144 78.5t-18 212.5q31 118 165 188.5t279 44.5q96 -18 164.5 -84t93.5 -156t2 -180q-37 -145 -146 -255t-250.5 -157.5 t-276.5 -23.5q-17 3 -39 8.5t-54.5 16t-64.5 24.5t-69 33.5t-68 43t-62.5 54t-51.5 66t-34.5 78.5t-13 92zM899 1610q2 7 13 14t21.5 14t19 29.5t8.5 56.5q0 56 14 88q17 35 45 32q28 -4 33 -39q6 -37 -21 -89q-24 -47 -61 -77.5t-62 -36.5q-4 -1 -7 2.5t-3 5.5z" />
<glyph unicode="&#xca;" horiz-adv-x="1220" d="M-1.5 381q1.5 49 13.5 106q24 95 70 178.5t95.5 138.5t110.5 104t105.5 74.5t89.5 50t54 30.5q25 18 39 48t17 54.5t6.5 75t6.5 78.5q10 73 57.5 128t110 77t119.5 10q38 -8 64.5 -26.5t38.5 -38.5t17 -43t4 -37.5t-3 -24.5q-19 -73 -72 -104q-23 -13 -26 -5q-2 2 2 7 q19 23 30 59.5t10 75t-26.5 70.5t-75.5 42q-56 9 -107 -27.5t-69 -107.5q-12 -48 -13.5 -115t-2.5 -73q-20 -88 -119 -150q-177 -112 -280 -230t-140 -267q-14 -66 -16 -133.5t21.5 -134.5t63 -122t109.5 -96t160 -57q121 -22 236 17t207.5 145.5t133.5 265.5 q42 163 -16.5 260.5t-179.5 120.5q-110 20 -207.5 -50.5t-140.5 -201.5q-17 -57 -7 -109t39 -90t62 -45q5 -2 7 -4.5t-0.5 -4.5t-10.5 -3q-93 -8 -144 78.5t-18 212.5q31 118 165 188.5t279 44.5q96 -18 164.5 -84t93.5 -156t2 -180q-37 -145 -146 -255t-250.5 -157.5 t-276.5 -23.5q-17 3 -39 8.5t-54.5 16t-64.5 24.5t-69 33.5t-68 43t-62.5 54t-51.5 66t-34.5 78.5t-13 92zM713 1606q78 74 121 126.5t81 118.5h33q7 -154 66 -258l-17 -10q-74 83 -106 148q-17 -16 -39 -37.5t-29.5 -28.5t-23 -20t-32.5 -24t-46 -30z" />
<glyph unicode="&#xcb;" horiz-adv-x="1220" d="M-1.5 381q1.5 49 13.5 106q24 95 70 178.5t95.5 138.5t110.5 104t105.5 74.5t89.5 50t54 30.5q25 18 39 48t17 54.5t6.5 75t6.5 78.5q10 73 57.5 128t110 77t119.5 10q38 -8 64.5 -26.5t38.5 -38.5t17 -43t4 -37.5t-3 -24.5q-19 -73 -72 -104q-23 -13 -26 -5q-2 2 2 7 q19 23 30 59.5t10 75t-26.5 70.5t-75.5 42q-56 9 -107 -27.5t-69 -107.5q-12 -48 -13.5 -115t-2.5 -73q-20 -88 -119 -150q-177 -112 -280 -230t-140 -267q-14 -66 -16 -133.5t21.5 -134.5t63 -122t109.5 -96t160 -57q121 -22 236 17t207.5 145.5t133.5 265.5 q42 163 -16.5 260.5t-179.5 120.5q-110 20 -207.5 -50.5t-140.5 -201.5q-17 -57 -7 -109t39 -90t62 -45q5 -2 7 -4.5t-0.5 -4.5t-10.5 -3q-93 -8 -144 78.5t-18 212.5q31 118 165 188.5t279 44.5q96 -18 164.5 -84t93.5 -156t2 -180q-37 -145 -146 -255t-250.5 -157.5 t-276.5 -23.5q-17 3 -39 8.5t-54.5 16t-64.5 24.5t-69 33.5t-68 43t-62.5 54t-51.5 66t-34.5 78.5t-13 92zM798 1659q7 31 33 42q12 5 23 3q27 -6 18 -40q-7 -32 -33 -42q-10 -4 -20 -2q-28 6 -21 39zM945 1659q7 31 32 43q11 4 22 2q20 -5 21 -28t-15.5 -42t-37.5 -14 q-28 6 -22 39z" />
<glyph unicode="&#xcc;" horiz-adv-x="915" d="M-12 954q4 122 54.5 221t130.5 160t178.5 92t203.5 29q35 -1 157.5 -7.5t166.5 -6.5q75 0 152 19.5t116 43.5q23 15 23 11q1 -3 -3 -11q-122 -228 -348 -811q-72 -193 -116 -287q-195 -416 -402 -453q-23 -4 -45 -3q-84 3 -130.5 41t-45.5 108q3 68 46 97q16 10 17 4 q-31 -83 18 -152q45 -63 121 -66q104 -5 188 107q6 9 13 19q25 37 53 89.5t57 121.5t47 114t46.5 119.5t32.5 85.5q200 501 354 821l-13 -6q-14 -7 -34 -15t-51 -18t-73.5 -18t-93 -13.5t-117 -5.5t-138.5 7q-251 23 -386 -92.5t-118 -346.5q1 -24 8 -51.5t25.5 -63.5 t45 -65t72.5 -51.5t103 -28.5q10 -1 44 -1l26 -1q-53 -35 -125 -35q-109 2 -187.5 86t-72.5 213zM734 1738q19 24 45 9q15 -9 24 -27q14 -32 14 -88q0 -34 8.5 -56.5t19 -29.5t21.5 -14t13 -14q0 -2 -3.5 -6t-7.5 -3q-25 6 -62 37t-61 78q-40 77 -11 114z" />
<glyph unicode="&#xcd;" horiz-adv-x="915" d="M-12 954q4 122 54.5 221t130.5 160t178.5 92t203.5 29q35 -1 157.5 -7.5t166.5 -6.5q75 0 152 19.5t116 43.5q23 15 23 11q1 -3 -3 -11q-122 -228 -348 -811q-72 -193 -116 -287q-195 -416 -402 -453q-23 -4 -45 -3q-84 3 -130.5 41t-45.5 108q3 68 46 97q16 10 17 4 q-31 -83 18 -152q45 -63 121 -66q104 -5 188 107q6 9 13 19q25 37 53 89.5t57 121.5t47 114t46.5 119.5t32.5 85.5q200 501 354 821l-13 -6q-14 -7 -34 -15t-51 -18t-73.5 -18t-93 -13.5t-117 -5.5t-138.5 7q-251 23 -386 -92.5t-118 -346.5q1 -24 8 -51.5t25.5 -63.5 t45 -65t72.5 -51.5t103 -28.5q10 -1 44 -1l26 -1q-53 -35 -125 -35q-109 2 -187.5 86t-72.5 213zM866 1518q2 7 13 14t21.5 14t19 29.5t8.5 56.5q0 57 14 88q17 35 45 32q28 -4 33 -39q6 -37 -21 -89q-24 -47 -60.5 -78t-61.5 -37q-4 -1 -7.5 3t-3.5 6z" />
<glyph unicode="&#xce;" horiz-adv-x="915" d="M-12 954q4 122 54.5 221t130.5 160t178.5 92t203.5 29q35 -1 157.5 -7.5t166.5 -6.5q75 0 152 19.5t116 43.5q23 15 23 11q1 -3 -3 -11q-122 -228 -348 -811q-72 -193 -116 -287q-195 -416 -402 -453q-23 -4 -45 -3q-84 3 -130.5 41t-45.5 108q3 68 46 97q16 10 17 4 q-31 -83 18 -152q45 -63 121 -66q104 -5 188 107q6 9 13 19q25 37 53 89.5t57 121.5t47 114t46.5 119.5t32.5 85.5q200 501 354 821l-13 -6q-14 -7 -34 -15t-51 -18t-73.5 -18t-93 -13.5t-117 -5.5t-138.5 7q-251 23 -386 -92.5t-118 -346.5q1 -24 8 -51.5t25.5 -63.5 t45 -65t72.5 -51.5t103 -28.5q10 -1 44 -1l26 -1q-53 -35 -125 -35q-109 2 -187.5 86t-72.5 213zM645 1520q79 74 122.5 127t80.5 118h33q7 -156 65 -258l-16 -10q-77 85 -107 148q-17 -16 -39 -37.5t-29.5 -28.5t-23 -20t-32.5 -24t-46 -30z" />
<glyph unicode="&#xcf;" horiz-adv-x="915" d="M-12 954q4 122 54.5 221t130.5 160t178.5 92t203.5 29q35 -1 157.5 -7.5t166.5 -6.5q75 0 152 19.5t116 43.5q23 15 23 11q1 -3 -3 -11q-122 -228 -348 -811q-72 -193 -116 -287q-195 -416 -402 -453q-23 -4 -45 -3q-84 3 -130.5 41t-45.5 108q3 68 46 97q16 10 17 4 q-31 -83 18 -152q45 -63 121 -66q104 -5 188 107q6 9 13 19q25 37 53 89.5t57 121.5t47 114t46.5 119.5t32.5 85.5q200 501 354 821l-13 -6q-14 -7 -34 -15t-51 -18t-73.5 -18t-93 -13.5t-117 -5.5t-138.5 7q-251 23 -386 -92.5t-118 -346.5q1 -24 8 -51.5t25.5 -63.5 t45 -65t72.5 -51.5t103 -28.5q10 -1 44 -1l26 -1q-53 -35 -125 -35q-109 2 -187.5 86t-72.5 213zM669.5 1558.5q-0.5 22.5 17 41.5t38.5 14q28 -6 20 -40q-7 -32 -32 -42q-11 -4 -21 -2q-22 6 -22.5 28.5zM815.5 1558.5q-0.5 22.5 17 41.5t39.5 14q19 -8 20.5 -28.5 t-16 -40.5t-38.5 -15q-22 6 -22.5 28.5z" />
<glyph unicode="&#xd1;" horiz-adv-x="1763" d="M8 251.5q9 38.5 29 65.5q14 17 22 17q7 -8 2 -15.5t-13.5 -37t-6.5 -60.5q2 -35 16.5 -70t42 -67.5t76 -53t109.5 -20.5q79 0 145.5 24t119 70.5t91 97.5t78.5 122q59 103 155 331q35 84 75 184t73 184.5t60.5 156.5t44.5 116t18 47q9 18 1 21q-4 0 -7 -4 q-48 -47 -130 -71t-158 -27t-187.5 -7t-178.5 -14q-157 -22 -245.5 -120t-73.5 -253q7 -68 33.5 -122.5t61 -85.5t74.5 -50t73 -24.5t57 -1.5q32 5 33 -6q0 -7 -19 -13q-91 -29 -159 -11.5t-113 71.5t-67.5 119t-22.5 130q0 54 17.5 111t59 117t101.5 108t153 81t205 38 q346 18 367 20q77 8 112 34q11 8 31 26t24 -9q2 -12 -1 -30q-5 -47 -6 -129t10.5 -208.5t32.5 -225.5q22 -103 102.5 -395t85.5 -342q3 -18 16 11l17 48q21 65 167.5 414t229.5 512q154 307 332 469q90 79 195 122.5t202 41.5q22 0 43 -4t37 -9t31.5 -12.5t25.5 -14.5 t20.5 -15.5t15 -13t10.5 -11.5l6 -6q10 -14 -2 -20q-11 -3 -27 7q-20 14 -73.5 28.5t-112.5 14.5q-39 0 -81 -7.5t-99.5 -27.5t-121 -63.5t-122.5 -106.5q-80 -85 -174 -252t-177 -354.5t-157.5 -366t-136.5 -324t-91 -191.5q-13 -24 -24 23q-1 3 -2 7q-11 50 -141 512 q-37 134 -68 318.5t-39 347.5q0 6 -1 12.5t-3 12t-6 0.5t-10 -23q-33 -109 -160 -443t-205 -448q-37 -55 -60 -86t-57 -71t-63.5 -61.5t-69 -42.5t-85.5 -30.5t-101 -9.5q-158 0 -234 100q-36 48 -46 102t-1 92.5zM1442 1491q14 50 35 79t43.5 37.5t53.5 5t57 -12.5t64 -21 t66 -16q30 -4 51 -0.5t34.5 16t19 20.5t14.5 25q2 4 8 -3q3 -4 2 -9q-22 -59 -49 -88.5t-60.5 -30.5t-62.5 7t-73.5 23.5t-75.5 20.5q-14 2 -26.5 2.5t-22.5 -2.5t-17.5 -4.5t-15 -9t-10.5 -10t-9 -13t-6.5 -11.5l-6.5 -13l-3 -6q-1 -1 -4 0.5t-5 5t-1 8.5z" />
<glyph unicode="&#xd2;" horiz-adv-x="1327" d="M-1 589q4 50 1 77q12 171 82 319.5t179 250.5t251 160t295 58q69 0 140.5 -21t143 -68t126 -114.5t87.5 -170t31 -224.5q-2 -89 -26.5 -188.5t-69.5 -200t-114 -191.5t-152 -161t-191.5 -112t-226.5 -42q-115 0 -207.5 32.5t-148.5 86t-99.5 121t-60.5 137t-30.5 135.5 t-9.5 116zM90 641q-2 -57 4 -116.5t22 -123.5t41 -122.5t64 -111t87.5 -91t115.5 -61.5t145 -23q109 -1 212 46.5t184 130t142.5 188t95.5 226.5t36 240q12 586 -463 586q-133 0 -253.5 -51.5t-215 -147t-153 -243t-64.5 -326.5zM665 1738q18 23 44 9q15 -8 24 -27 q15 -34 15 -88q0 -34 8.5 -56.5t19 -29.5l21 -14t12.5 -14q0 -2 -3 -6t-7 -3q-25 6 -62 37t-61 78q-40 77 -11 114z" />
<glyph unicode="&#xd3;" horiz-adv-x="1327" d="M-1 589q4 50 1 77q12 171 82 319.5t179 250.5t251 160t295 58q69 0 140.5 -21t143 -68t126 -114.5t87.5 -170t31 -224.5q-2 -89 -26.5 -188.5t-69.5 -200t-114 -191.5t-152 -161t-191.5 -112t-226.5 -42q-115 0 -207.5 32.5t-148.5 86t-99.5 121t-60.5 137t-30.5 135.5 t-9.5 116zM90 641q-2 -57 4 -116.5t22 -123.5t41 -122.5t64 -111t87.5 -91t115.5 -61.5t145 -23q109 -1 212 46.5t184 130t142.5 188t95.5 226.5t36 240q12 586 -463 586q-133 0 -253.5 -51.5t-215 -147t-153 -243t-64.5 -326.5zM866 1518q2 7 13 14t21.5 14t19 29.5 t8.5 56.5q0 57 14 88q17 35 45 32q28 -4 33 -39q6 -37 -21 -89q-24 -47 -60.5 -78t-61.5 -37q-4 -1 -7.5 3t-3.5 6z" />
<glyph unicode="&#xd4;" horiz-adv-x="1327" d="M-1 589q4 50 1 77q12 171 82 319.5t179 250.5t251 160t295 58q69 0 140.5 -21t143 -68t126 -114.5t87.5 -170t31 -224.5q-2 -89 -26.5 -188.5t-69.5 -200t-114 -191.5t-152 -161t-191.5 -112t-226.5 -42q-115 0 -207.5 32.5t-148.5 86t-99.5 121t-60.5 137t-30.5 135.5 t-9.5 116zM90 641q-2 -57 4 -116.5t22 -123.5t41 -122.5t64 -111t87.5 -91t115.5 -61.5t145 -23q109 -1 212 46.5t184 130t142.5 188t95.5 226.5t36 240q12 586 -463 586q-133 0 -253.5 -51.5t-215 -147t-153 -243t-64.5 -326.5zM666 1493q78 73 121 126.5t81 119.5h33 q7 -154 66 -258l-17 -11q-74 83 -106 148q-16 -15 -39 -37.5t-29.5 -28.5t-23 -19.5t-33 -24t-45.5 -29.5z" />
<glyph unicode="&#xd5;" horiz-adv-x="1327" d="M-1 589q4 50 1 77q12 171 82 319.5t179 250.5t251 160t295 58q69 0 140.5 -21t143 -68t126 -114.5t87.5 -170t31 -224.5q-2 -89 -26.5 -188.5t-69.5 -200t-114 -191.5t-152 -161t-191.5 -112t-226.5 -42q-115 0 -207.5 32.5t-148.5 86t-99.5 121t-60.5 137t-30.5 135.5 t-9.5 116zM90 641q-2 -57 4 -116.5t22 -123.5t41 -122.5t64 -111t87.5 -91t115.5 -61.5t145 -23q109 -1 212 46.5t184 130t142.5 188t95.5 226.5t36 240q12 586 -463 586q-133 0 -253.5 -51.5t-215 -147t-153 -243t-64.5 -326.5zM635 1495q14 50 35 79t43.5 37.5t53.5 5 t57 -12.5t64 -21t66 -16q30 -4 51 -0.5t34.5 16t19 20.5t14.5 25q2 4 8 -3q3 -4 2 -9q-22 -59 -49 -88.5t-60.5 -30.5t-62.5 7t-73.5 23.5t-75.5 20.5q-14 2 -26.5 2.5t-22.5 -2.5t-17.5 -4.5t-15 -9t-10.5 -10t-9 -13t-6.5 -11.5l-6.5 -13l-3 -6q-1 -1 -4 0.5t-5 5t-1 8.5z " />
<glyph unicode="&#xd6;" horiz-adv-x="1327" d="M-1 589q4 50 1 77q12 171 82 319.5t179 250.5t251 160t295 58q69 0 140.5 -21t143 -68t126 -114.5t87.5 -170t31 -224.5q-2 -89 -26.5 -188.5t-69.5 -200t-114 -191.5t-152 -161t-191.5 -112t-226.5 -42q-115 0 -207.5 32.5t-148.5 86t-99.5 121t-60.5 137t-30.5 135.5 t-9.5 116zM90 641q-2 -57 4 -116.5t22 -123.5t41 -122.5t64 -111t87.5 -91t115.5 -61.5t145 -23q109 -1 212 46.5t184 130t142.5 188t95.5 226.5t36 240q12 586 -463 586q-133 0 -253.5 -51.5t-215 -147t-153 -243t-64.5 -326.5zM718 1579q7 31 33 42q12 5 23 3 q27 -6 18 -40q-7 -32 -33 -42q-10 -4 -20 -2q-28 6 -21 39zM866 1579q6 31 32 43q11 4 22 2q20 -5 20.5 -28t-16 -42t-37.5 -14q-28 6 -21 39z" />
<glyph unicode="&#xd7;" horiz-adv-x="1228" d="M434 49l303 303l-303 303l49 50l303 -304l304 304l49 -50l-303 -303l303 -303l-49 -49l-304 303l-303 -303z" />
<glyph unicode="&#xd8;" horiz-adv-x="1327" d="M-2 -86l168 203q-40 43 -70 98t-46.5 107.5t-28 107.5t-13.5 98.5t-3.5 81.5t1.5 56q12 171 82 319.5t179 250.5t251 160t295 58q86 0 177.5 -34.5t166.5 -100.5l156 186l12 -12l-154 -186q175 -168 170 -451q-2 -89 -26.5 -188.5t-69.5 -200t-114 -191.5t-152 -161 t-191.5 -112t-226.5 -42q-240 0 -381 141l-166 -204zM96 641q-3 -116 26.5 -241t94.5 -220l907 1098q-114 131 -342 131q-133 0 -253.5 -51.5t-215 -147t-153 -243t-64.5 -326.5zM231 162q126 -170 344 -170q109 -1 212 46.5t183.5 130t142 188t96 226.5t36.5 240 q6 295 -110 441z" />
<glyph unicode="&#xd9;" horiz-adv-x="1923" d="M23 938q8 82 34.5 150.5t63 115t84.5 83t91.5 57.5t92 35.5t79.5 20t58 7.5q10 1 112 4.5t188 12.5t130 26q17 7 42 2q22 -3 10 -18q-133 -151 -259 -462.5t-126 -529.5q0 -187 69 -284t226 -97q54 0 102 13.5t92.5 43.5t81 63t78.5 87.5t73.5 100t77.5 116.5 q222 346 504 967q2 7 46 7q37 -2 34 -13q-56 -124 -145 -342t-189.5 -508.5t-103.5 -394.5q-1 -76 45 -125t117 -49q62 0 94 16q23 8 23 0q0 -3 -3 -6q-11 -13 -58 -32t-93 -19q-21 0 -44 4t-52.5 18t-52 36t-38.5 62.5t-16 92.5q0 40 9.5 95.5t26 115.5t34.5 119.5 t39 117.5t36.5 99.5t28.5 76t14 35.5q10 24 1 25q-8 1 -15 -13q-10 -16 -39 -72.5t-61.5 -118.5t-81.5 -144.5t-99 -157t-114 -149.5t-127 -129t-136.5 -88t-144.5 -34q-103 0 -178.5 65.5t-111 168t-35.5 225.5q0 121 38.5 268t95.5 274.5t115.5 230.5t106.5 161 q16 20 6 29q-4 4 -10 0q-132 -66 -434 -70q-74 -2 -137.5 -21t-116 -56.5t-83 -102.5t-30.5 -150q0 -122 73.5 -208t164.5 -86q21 0 48 5t36 11q13 9 17 -1q2 -3 -1 -7q-3 -5 -22 -16.5t-53.5 -23t-67.5 -11.5q-117 0 -193 86.5t-67 189.5zM1371 1699q19 24 45 9 q15 -8 24 -27q14 -31 14 -88q0 -34 8.5 -56.5t19 -29.5t21.5 -14t13 -14q0 -2 -3.5 -6t-7.5 -3q-25 6 -62 37t-61 78q-40 77 -11 114z" />
<glyph unicode="&#xda;" horiz-adv-x="1923" d="M23 938q8 82 34.5 150.5t63 115t84.5 83t91.5 57.5t92 35.5t79.5 20t58 7.5q10 1 112 4.5t188 12.5t130 26q17 7 42 2q22 -3 10 -18q-133 -151 -259 -462.5t-126 -529.5q0 -187 69 -284t226 -97q54 0 102 13.5t92.5 43.5t81 63t78.5 87.5t73.5 100t77.5 116.5 q222 346 504 967q2 7 46 7q37 -2 34 -13q-56 -124 -145 -342t-189.5 -508.5t-103.5 -394.5q-1 -76 45 -125t117 -49q62 0 94 16q23 8 23 0q0 -3 -3 -6q-11 -13 -58 -32t-93 -19q-21 0 -44 4t-52.5 18t-52 36t-38.5 62.5t-16 92.5q0 40 9.5 95.5t26 115.5t34.5 119.5 t39 117.5t36.5 99.5t28.5 76t14 35.5q10 24 1 25q-8 1 -15 -13q-10 -16 -39 -72.5t-61.5 -118.5t-81.5 -144.5t-99 -157t-114 -149.5t-127 -129t-136.5 -88t-144.5 -34q-103 0 -178.5 65.5t-111 168t-35.5 225.5q0 121 38.5 268t95.5 274.5t115.5 230.5t106.5 161 q16 20 6 29q-4 4 -10 0q-132 -66 -434 -70q-74 -2 -137.5 -21t-116 -56.5t-83 -102.5t-30.5 -150q0 -122 73.5 -208t164.5 -86q21 0 48 5t36 11q13 9 17 -1q2 -3 -1 -7q-3 -5 -22 -16.5t-53.5 -23t-67.5 -11.5q-117 0 -193 86.5t-67 189.5zM1473 1479q2 7 12.5 14l21 14 t19 29.5t8.5 56.5q0 57 14 88q17 35 46 32q27 -4 33 -39q6 -37 -21 -89q-24 -47 -61 -78t-62 -37q-4 -1 -7 3t-3 6z" />
<glyph unicode="&#xdb;" horiz-adv-x="1923" d="M23 938q8 82 34.5 150.5t63 115t84.5 83t91.5 57.5t92 35.5t79.5 20t58 7.5q10 1 112 4.5t188 12.5t130 26q17 7 42 2q22 -3 10 -18q-133 -151 -259 -462.5t-126 -529.5q0 -187 69 -284t226 -97q54 0 102 13.5t92.5 43.5t81 63t78.5 87.5t73.5 100t77.5 116.5 q222 346 504 967q2 7 46 7q37 -2 34 -13q-56 -124 -145 -342t-189.5 -508.5t-103.5 -394.5q-1 -76 45 -125t117 -49q62 0 94 16q23 8 23 0q0 -3 -3 -6q-11 -13 -58 -32t-93 -19q-21 0 -44 4t-52.5 18t-52 36t-38.5 62.5t-16 92.5q0 40 9.5 95.5t26 115.5t34.5 119.5 t39 117.5t36.5 99.5t28.5 76t14 35.5q10 24 1 25q-8 1 -15 -13q-10 -16 -39 -72.5t-61.5 -118.5t-81.5 -144.5t-99 -157t-114 -149.5t-127 -129t-136.5 -88t-144.5 -34q-103 0 -178.5 65.5t-111 168t-35.5 225.5q0 121 38.5 268t95.5 274.5t115.5 230.5t106.5 161 q16 20 6 29q-4 4 -10 0q-132 -66 -434 -70q-74 -2 -137.5 -21t-116 -56.5t-83 -102.5t-30.5 -150q0 -122 73.5 -208t164.5 -86q21 0 48 5t36 11q13 9 17 -1q2 -3 -1 -7q-3 -5 -22 -16.5t-53.5 -23t-67.5 -11.5q-117 0 -193 86.5t-67 189.5zM1276 1493q78 74 122 127t81 119 h32q7 -154 66 -258l-16 -11q-77 85 -107 148q-16 -15 -39 -37.5t-29.5 -28.5t-23 -19.5t-33 -24t-45.5 -29.5z" />
<glyph unicode="&#xdc;" horiz-adv-x="1923" d="M23 938q8 82 34.5 150.5t63 115t84.5 83t91.5 57.5t92 35.5t79.5 20t58 7.5q10 1 112 4.5t188 12.5t130 26q17 7 42 2q22 -3 10 -18q-133 -151 -259 -462.5t-126 -529.5q0 -187 69 -284t226 -97q54 0 102 13.5t92.5 43.5t81 63t78.5 87.5t73.5 100t77.5 116.5 q222 346 504 967q2 7 46 7q37 -2 34 -13q-56 -124 -145 -342t-189.5 -508.5t-103.5 -394.5q-1 -76 45 -125t117 -49q62 0 94 16q23 8 23 0q0 -3 -3 -6q-11 -13 -58 -32t-93 -19q-21 0 -44 4t-52.5 18t-52 36t-38.5 62.5t-16 92.5q0 40 9.5 95.5t26 115.5t34.5 119.5 t39 117.5t36.5 99.5t28.5 76t14 35.5q10 24 1 25q-8 1 -15 -13q-10 -16 -39 -72.5t-61.5 -118.5t-81.5 -144.5t-99 -157t-114 -149.5t-127 -129t-136.5 -88t-144.5 -34q-103 0 -178.5 65.5t-111 168t-35.5 225.5q0 121 38.5 268t95.5 274.5t115.5 230.5t106.5 161 q16 20 6 29q-4 4 -10 0q-132 -66 -434 -70q-74 -2 -137.5 -21t-116 -56.5t-83 -102.5t-30.5 -150q0 -122 73.5 -208t164.5 -86q21 0 48 5t36 11q13 9 17 -1q2 -3 -1 -7q-3 -5 -22 -16.5t-53.5 -23t-67.5 -11.5q-117 0 -193 86.5t-67 189.5zM1392 1526q7 31 33 42q11 6 23 3 q27 -6 18 -40q-7 -32 -33 -42q-10 -4 -20 -2q-28 6 -21 39zM1539 1526q7 31 32 43q11 4 22 2q20 -5 21 -28t-15.5 -42t-37.5 -14q-28 6 -22 39z" />
<glyph unicode="&#xdd;" horiz-adv-x="1484" d="M6 -201q0 66 26 124.5t62.5 94.5t69.5 57.5t53 24.5q16 3 14 -6q0 -7 -12 -12q-23 -8 -43.5 -23t-43.5 -42.5t-36.5 -74.5t-13.5 -108q0 -62 23.5 -115t62 -89t88.5 -61.5t102.5 -37.5t104.5 -12q145 0 268 108t197 273q93 212 82 489q-4 119 -12.5 206t-28 192.5 t-56.5 213.5t-94 226q-77 158 -176 236.5t-190 78.5q-81 0 -132 -66t-51 -161q0 -39 8.5 -71.5t20.5 -50.5t24 -31t19 -18.5t6 -6.5q-11 -11 -29 -11q-44 0 -78 42t-34 128q0 62 24 113.5t61 83.5t83 54t87.5 31t76.5 9q87 0 165 -57t134.5 -150t102.5 -208.5t74 -236.5 t43 -229t15 -192q0 -71 -6 -143t-15.5 -128.5t-18 -98.5t-16.5 -75t-9 -36q-7 -29 3 -32q5 -1 9 7q17 31 39 75t39.5 80.5t46.5 101t44 98.5t50 113t47 106q42 94 69 151t71.5 147.5t84 155t89 139.5t105 137t114.5 113q86 74 170 119t147 45q57 0 57 -55q0 -27 -16 -38 q-11 -5 -18 7q-6 11 -11.5 18t-23.5 13.5t-45 5.5q-37 -1 -78 -22t-81 -54.5t-85.5 -87.5t-85.5 -108.5t-89 -132t-88 -144.5t-89 -158.5t-86.5 -160.5t-85.5 -164q-28 -55 -90.5 -179t-103.5 -200.5t-85 -148.5q-82 -137 -109 -175q-232 -337 -522 -337q-91 0 -167 27.5 t-125 74t-76 106t-27 123.5zM1292 1536q2 7 12 14t20.5 14.5t19 30t8.5 56.5q0 59 16 88q16 35 45 31q27 -3 33 -37q6 -39 -21 -91q-23 -47 -60.5 -77.5t-61.5 -36.5q-3 -1 -6 0.5t-4.5 4t-0.5 3.5z" />
<glyph unicode="&#xdf;" horiz-adv-x="978" d="M-582 -129q2 25 13 25q8 0 12 -17q5 -24 17 -48.5t33.5 -51.5t58 -45.5t81.5 -22.5q204 -17 393 346q85 163 212 511q28 77 38 104q62 164 92 241.5t84 193t99 175.5q42 57 102.5 98.5t123.5 60t126.5 16t113.5 -26.5t83 -75.5t37 -123.5q6 -107 -75 -214t-226 -177 q-125 -60 -166.5 -115t-20.5 -141q10 -42 37.5 -86t55.5 -76.5t56 -77t40 -86.5q29 -103 -26 -177t-153 -101q-97 -28 -178.5 13t-105.5 118q-20 65 24.5 131.5t130.5 83.5q44 7 64 -16q12 -14 0 -19l-10 -2q-72 0 -124.5 -61.5t-31.5 -129.5q17 -56 72 -89t131 -13 q96 25 130.5 93.5t10.5 146.5q-15 49 -54 103.5t-77.5 112.5t-54.5 117q-18 65 6 114t59 74t132 80l7.5 4.5t6.5 4t8 4.5q130 72 208.5 188.5t69.5 216.5q-6 62 -39 106t-84.5 58.5t-110 5t-121.5 -57.5t-114 -126q-35 -53 -71 -122.5t-77.5 -167t-62 -148.5t-66 -169 t-48.5 -126q-78 -203 -155 -353.5t-160 -261t-172.5 -166t-184.5 -55.5q-206 0 -199 199z" />
<glyph unicode="&#xe0;" horiz-adv-x="761" d="M-3 161q-7 75 23.5 172t96.5 187q46 62 113.5 104.5t121.5 58.5t99 17q137 2 161 -63q2 7 7.5 21.5t7.5 21.5q6 18 41 21q25 1 24 -9v-2q-5 -14 -31.5 -85.5t-61.5 -175.5t-48 -155q-68 -254 49 -254q51 0 113 62q7 7 12 -7q4 -8 0 -12l-10 -11q-10 -10 -23.5 -21 t-34 -23t-50 -20t-62.5 -8q-32 0 -59.5 29.5t-28.5 94.5q0 53 24 158q-23 -44 -45 -79.5t-54.5 -75.5t-66.5 -67t-79 -43.5t-93 -14.5q-63 4 -101 54t-45 125zM70 186q8 -75 45 -112.5t84 -35.5t94 34q82 54 158.5 197.5t130.5 303.5q11 32 -34 62t-128 28t-162 -55 q-85 -56 -144.5 -169t-43.5 -253zM384 1007q19 24 45 9q15 -8 24 -27q14 -31 14 -88q0 -34 8.5 -56.5t19 -30t21 -14.5t12.5 -14q0 -2 -3 -5.5t-7 -2.5q-25 6 -62 37t-61 78q-40 77 -11 114z" />
<glyph unicode="&#xe1;" horiz-adv-x="761" d="M-3 161q-7 75 23.5 172t96.5 187q46 62 113.5 104.5t121.5 58.5t99 17q137 2 161 -63q2 7 7.5 21.5t7.5 21.5q6 18 41 21q25 1 24 -9v-2q-5 -14 -31.5 -85.5t-61.5 -175.5t-48 -155q-68 -254 49 -254q51 0 113 62q7 7 12 -7q4 -8 0 -12l-10 -11q-10 -10 -23.5 -21 t-34 -23t-50 -20t-62.5 -8q-32 0 -59.5 29.5t-28.5 94.5q0 53 24 158q-23 -44 -45 -79.5t-54.5 -75.5t-66.5 -67t-79 -43.5t-93 -14.5q-63 4 -101 54t-45 125zM70 186q8 -75 45 -112.5t84 -35.5t94 34q82 54 158.5 197.5t130.5 303.5q11 32 -34 62t-128 28t-162 -55 q-85 -56 -144.5 -169t-43.5 -253zM518 786q2 7 12 14t20.5 14.5t19 30t8.5 56.5q0 59 16 88q17 35 45 32q28 -4 33 -39q5 -37 -21 -89q-23 -47 -61 -78t-62 -37q-3 -1 -5.5 0.5t-4 4t-0.5 3.5z" />
<glyph unicode="&#xe2;" horiz-adv-x="761" d="M-3 161q-7 75 23.5 172t96.5 187q46 62 113.5 104.5t121.5 58.5t99 17q137 2 161 -63q2 7 7.5 21.5t7.5 21.5q6 18 41 21q25 1 24 -9v-2q-5 -14 -31.5 -85.5t-61.5 -175.5t-48 -155q-68 -254 49 -254q51 0 113 62q7 7 12 -7q4 -8 0 -12l-10 -11q-10 -10 -23.5 -21 t-34 -23t-50 -20t-62.5 -8q-32 0 -59.5 29.5t-28.5 94.5q0 53 24 158q-23 -44 -45 -79.5t-54.5 -75.5t-66.5 -67t-79 -43.5t-93 -14.5q-63 4 -101 54t-45 125zM70 186q8 -75 45 -112.5t84 -35.5t94 34q82 54 158.5 197.5t130.5 303.5q11 32 -34 62t-128 28t-162 -55 q-85 -56 -144.5 -169t-43.5 -253zM408 786q78 73 121 126.5t81 119.5h33q7 -154 66 -258l-17 -10q-76 84 -106 147q-16 -15 -39 -37.5t-29.5 -28.5t-23 -19.5t-33 -24t-45.5 -29.5z" />
<glyph unicode="&#xe3;" horiz-adv-x="761" d="M-3 161q-7 75 23.5 172t96.5 187q46 62 113.5 104.5t121.5 58.5t99 17q137 2 161 -63q2 7 7.5 21.5t7.5 21.5q6 18 41 21q25 1 24 -9v-2q-5 -14 -31.5 -85.5t-61.5 -175.5t-48 -155q-68 -254 49 -254q51 0 113 62q7 7 12 -7q4 -8 0 -12l-10 -11q-10 -10 -23.5 -21 t-34 -23t-50 -20t-62.5 -8q-32 0 -59.5 29.5t-28.5 94.5q0 53 24 158q-23 -44 -45 -79.5t-54.5 -75.5t-66.5 -67t-79 -43.5t-93 -14.5q-63 4 -101 54t-45 125zM70 186q8 -75 45 -112.5t84 -35.5t94 34q82 54 158.5 197.5t130.5 303.5q11 32 -34 62t-128 28t-162 -55 q-85 -56 -144.5 -169t-43.5 -253zM313 758q17 60 42 90t59 31.5t65 -6.5t78 -23.5t78 -20.5q29 -4 50 -0.5t34.5 16.5t18.5 20.5t14 25.5q3 5 9 -2q3 -4 1 -10q-22 -59 -49 -88t-60.5 -30t-63 7t-74 24t-75.5 21q-12 2 -23 1.5t-19 -1t-16 -4.5t-13.5 -6t-11.5 -8.5t-9 -8.5 t-7.5 -10.5t-6 -10.5t-6 -10.5t-4.5 -9.5q-3 -5 -9 3q-3 5 -2 10z" />
<glyph unicode="&#xe4;" horiz-adv-x="761" d="M-3 161q-7 75 23.5 172t96.5 187q46 62 113.5 104.5t121.5 58.5t99 17q137 2 161 -63q2 7 7.5 21.5t7.5 21.5q6 18 41 21q25 1 24 -9v-2q-5 -14 -31.5 -85.5t-61.5 -175.5t-48 -155q-68 -254 49 -254q51 0 113 62q7 7 12 -7q4 -8 0 -12l-10 -11q-10 -10 -23.5 -21 t-34 -23t-50 -20t-62.5 -8q-32 0 -59.5 29.5t-28.5 94.5q0 53 24 158q-23 -44 -45 -79.5t-54.5 -75.5t-66.5 -67t-79 -43.5t-93 -14.5q-63 4 -101 54t-45 125zM70 186q8 -75 45 -112.5t84 -35.5t94 34q82 54 158.5 197.5t130.5 303.5q11 32 -34 62t-128 28t-162 -55 q-85 -56 -144.5 -169t-43.5 -253zM444 827q7 31 33 42q11 6 23 3q27 -6 18 -40q-7 -32 -33 -42q-10 -4 -20 -2q-28 6 -21 39zM591 827q6 31 32 43q11 4 22 2q20 -5 20.5 -28t-16 -42t-37.5 -14q-28 6 -21 39z" />
<glyph unicode="&#xe5;" horiz-adv-x="761" d="M-3 161q-7 75 23.5 172t96.5 187q46 62 113.5 104.5t121.5 58.5t99 17q137 2 161 -63q2 7 7.5 21.5t7.5 21.5q6 18 41 21q25 1 24 -9v-2q-5 -14 -31.5 -85.5t-61.5 -175.5t-48 -155q-68 -254 49 -254q51 0 113 62q7 7 12 -7q4 -8 0 -12l-10 -11q-10 -10 -23.5 -21 t-34 -23t-50 -20t-62.5 -8q-32 0 -59.5 29.5t-28.5 94.5q0 53 24 158q-23 -44 -45 -79.5t-54.5 -75.5t-66.5 -67t-79 -43.5t-93 -14.5q-63 4 -101 54t-45 125zM70 186q8 -75 45 -112.5t84 -35.5t94 34q82 54 158.5 197.5t130.5 303.5q11 32 -34 62t-128 28t-162 -55 q-85 -56 -144.5 -169t-43.5 -253zM467 825q-3 46 30.5 79.5t80.5 33.5q27 0 47.5 -18.5t23.5 -49.5q3 -46 -30 -80t-80 -34q-28 0 -48.5 18.5t-23.5 50.5zM498 815q3 -39 41 -39q32 0 57 34.5t22 68.5q-3 39 -40 39q-33 0 -58 -34.5t-22 -68.5z" />
<glyph unicode="&#xe6;" horiz-adv-x="1107" d="M27.5 226.5q-4.5 -66.5 9.5 -120.5t50 -86.5t87 -35.5q99 -5 183 72.5t147 193.5q-4 -37 1 -73t23 -72t47.5 -62.5t79 -43.5t113.5 -17q49 0 98 12.5t83 29.5t62.5 36.5t42 32.5t17.5 18q6 7 -5 9q-15 2 -30 -11q-107 -93 -243 -93q-64 0 -130.5 52.5t-82.5 138.5 q40 17 88 42t113 67t116 85.5t87.5 98.5t37.5 106q1 44 -27.5 69t-74.5 25q-57 -2 -121.5 -23.5t-104.5 -55.5q5 13 13 32t13 30.5t5 12.5q3 3 -4 4q-25 6 -49 -6q-10 -6 -13 -12q-1 -2 -20 -45q-6 25 -44 44.5t-114 18.5q-74 -2 -171 -46.5t-163 -133.5q-53 -72 -84 -149.5 t-35.5 -144zM100 186q-16 142 43.5 254.5t145.5 167.5q78 52 160.5 54t127 -27.5t33.5 -61.5q-34 -100 -73.5 -191t-98 -182t-114.5 -128q-48 -32 -95 -34t-83.5 35.5t-45.5 112.5zM578 229v31q4 114 66.5 212.5t148.5 156.5q57 38 101 18.5t38 -86.5q-3 -42 -30.5 -86 t-65.5 -79t-87.5 -69.5t-90.5 -57t-80 -40.5z" />
<glyph unicode="&#xe7;" horiz-adv-x="626" d="M0 231q0 50 15.5 109t49.5 119t80 108.5t113.5 78t144.5 26.5q17 -1 38.5 -6.5t49 -18.5t46 -34t29.5 -52t-1 -74q-3 -13 -9.5 -21t-14 -4t-11.5 23q-12 58 -66 103t-132 45q-75 0 -135 -55t-90.5 -139.5t-30.5 -176.5q0 -160 114 -211q40 -18 94.5 -23t109.5 8t85 44 q12 14 17 3q5 -12 -7 -24q-55 -46 -131.5 -67t-150.5 -10l-39 -64q116 -5 134 -57q14 -39 -32 -75q-59 -47 -148 -36l-30 6q-10 2 -14 14q-2 8 5 7h3q82 -20 138 15q38 24 26 52q-18 41 -127 43l59 101q-82 20 -132 80.5t-50 162.5z" />
<glyph unicode="&#xe8;" horiz-adv-x="620" d="M6 215q3 99 60 210t155.5 192t204.5 83q46 2 75.5 -24t28.5 -70q-1 -50 -37.5 -105t-87.5 -98t-117 -85t-113 -66.5t-87 -42.5q16 -85 82 -137t131 -52q137 0 244 93q19 17 33 10q6 -3 2 -10q-7 -9 -28.5 -26t-60.5 -41.5t-97 -42t-118 -17.5q-79 0 -135.5 21t-84.5 56 t-40 72.5t-10 79.5zM84 262q0 -21 2 -31q53 25 103.5 55.5t109.5 74t97 96t42 104.5q6 69 -37.5 88t-99.5 -20q-87 -58 -150 -156t-67 -211zM302 1007q19 24 45 9q15 -8 24 -27q14 -31 14 -88q0 -34 8.5 -56.5t19 -30t21 -14.5t12.5 -14q0 -2 -3 -5.5t-7 -2.5q-25 6 -62 37 t-61 78q-40 77 -11 114z" />
<glyph unicode="&#xe9;" horiz-adv-x="620" d="M6 215q3 99 60 210t155.5 192t204.5 83q46 2 75.5 -24t28.5 -70q-1 -50 -37.5 -105t-87.5 -98t-117 -85t-113 -66.5t-87 -42.5q16 -85 82 -137t131 -52q137 0 244 93q19 17 33 10q6 -3 2 -10q-7 -9 -28.5 -26t-60.5 -41.5t-97 -42t-118 -17.5q-79 0 -135.5 21t-84.5 56 t-40 72.5t-10 79.5zM84 262q0 -21 2 -31q53 25 103.5 55.5t109.5 74t97 96t42 104.5q6 69 -37.5 88t-99.5 -20q-87 -58 -150 -156t-67 -211zM487 786q2 7 12 14t20.5 14.5t19 30t8.5 56.5q0 59 16 88q17 35 46 32q27 -4 33 -39q5 -37 -21 -89q-23 -47 -61 -78t-62 -37 q-3 -1 -6 0.5t-4.5 4t-0.5 3.5z" />
<glyph unicode="&#xea;" horiz-adv-x="620" d="M6 215q3 99 60 210t155.5 192t204.5 83q46 2 75.5 -24t28.5 -70q-1 -50 -37.5 -105t-87.5 -98t-117 -85t-113 -66.5t-87 -42.5q16 -85 82 -137t131 -52q137 0 244 93q19 17 33 10q6 -3 2 -10q-7 -9 -28.5 -26t-60.5 -41.5t-97 -42t-118 -17.5q-79 0 -135.5 21t-84.5 56 t-40 72.5t-10 79.5zM84 262q0 -21 2 -31q53 25 103.5 55.5t109.5 74t97 96t42 104.5q6 69 -37.5 88t-99.5 -20q-87 -58 -150 -156t-67 -211zM326 786q78 73 121 126.5t81 119.5h33q7 -154 66 -258l-17 -10q-76 84 -106 147q-16 -15 -39 -37.5t-29.5 -28.5t-23 -19.5t-33 -24 t-45.5 -29.5z" />
<glyph unicode="&#xeb;" horiz-adv-x="620" d="M6 215q3 99 60 210t155.5 192t204.5 83q46 2 75.5 -24t28.5 -70q-1 -50 -37.5 -105t-87.5 -98t-117 -85t-113 -66.5t-87 -42.5q16 -85 82 -137t131 -52q137 0 244 93q19 17 33 10q6 -3 2 -10q-7 -9 -28.5 -26t-60.5 -41.5t-97 -42t-118 -17.5q-79 0 -135.5 21t-84.5 56 t-40 72.5t-10 79.5zM84 262q0 -21 2 -31q53 25 103.5 55.5t109.5 74t97 96t42 104.5q6 69 -37.5 88t-99.5 -20q-87 -58 -150 -156t-67 -211zM393 827q7 31 33 42q11 6 23 3q27 -6 18 -40q-7 -32 -33 -42q-10 -4 -20 -2q-28 6 -21 39zM540 827q6 31 32 43q11 4 22 2 q20 -5 20.5 -28t-16 -42t-37.5 -14q-28 6 -21 39z" />
<glyph unicode="&#xec;" horiz-adv-x="354" d="M51 86q0 19 5.5 46.5t17 63t21.5 64.5t28 72.5t26.5 65t27 63.5t20.5 47q30 75 21 122.5t-48 49.5q-30 0 -49 -22t-21 -46q-3 -23 -17 -23t-13 25q3 39 40.5 64t82.5 22q47 -2 78 -24.5t32 -67.5q0 -14 -4.5 -33.5t-9 -34t-14.5 -42t-15 -41.5q-9 -26 -30.5 -81.5 t-35.5 -93t-29.5 -82t-23.5 -75t-8 -45.5q0 -34 12 -52t29 -20t37 2.5t34.5 11t23.5 11.5q2 2 3 2q30 22 33 9q1 -6 -6 -13q-57 -42 -115 -45q-19 -1 -38.5 2t-42.5 12.5t-37.5 31.5t-14.5 54zM107 986q18 25 45 10q15 -8 24 -27q14 -31 14 -88q0 -34 8.5 -56.5t19 -30 t20.5 -14.5t12 -14q1 -1 -0.5 -3.5t-4 -4t-5.5 -0.5q-24 6 -61 36.5t-60 77.5q-39 77 -12 114z" />
<glyph unicode="&#xed;" horiz-adv-x="354" d="M51 86q0 19 5.5 46.5t17 63t21.5 64.5t28 72.5t26.5 65t27 63.5t20.5 47q30 75 21 122.5t-48 49.5q-30 0 -49 -22t-21 -46q-3 -23 -17 -23t-13 25q3 39 40.5 64t82.5 22q47 -2 78 -24.5t32 -67.5q0 -14 -4.5 -33.5t-9 -34t-14.5 -42t-15 -41.5q-9 -26 -30.5 -81.5 t-35.5 -93t-29.5 -82t-23.5 -75t-8 -45.5q0 -34 12 -52t29 -20t37 2.5t34.5 11t23.5 11.5q2 2 3 2q30 22 33 9q1 -6 -6 -13q-57 -42 -115 -45q-19 -1 -38.5 2t-42.5 12.5t-37.5 31.5t-14.5 54zM242 786q2 7 12 14t20 14.5t18.5 30t8.5 56.5q0 59 16 88q17 35 46 32 q27 -4 33 -39q5 -37 -21 -89q-23 -47 -61 -78t-62 -37q-3 -1 -5.5 0.5t-4 4t-0.5 3.5z" />
<glyph unicode="&#xee;" horiz-adv-x="354" d="M51 86q0 19 5.5 46.5t17 63t21.5 64.5t28 72.5t26.5 65t27 63.5t20.5 47q30 75 21 122.5t-48 49.5q-30 0 -49 -22t-21 -46q-3 -23 -17 -23t-13 25q3 39 40.5 64t82.5 22q47 -2 78 -24.5t32 -67.5q0 -14 -4.5 -33.5t-9 -34t-14.5 -42t-15 -41.5q-9 -26 -30.5 -81.5 t-35.5 -93t-29.5 -82t-23.5 -75t-8 -45.5q0 -34 12 -52t29 -20t37 2.5t34.5 11t23.5 11.5q2 2 3 2q30 22 33 9q1 -6 -6 -13q-57 -42 -115 -45q-19 -1 -38.5 2t-42.5 12.5t-37.5 31.5t-14.5 54zM111 786q78 73 121 126.5t81 119.5h33q7 -154 66 -258l-17 -10q-76 84 -106 147 q-16 -15 -39 -37.5t-29.5 -28.5t-23 -19.5t-33 -24t-45.5 -29.5z" />
<glyph unicode="&#xef;" horiz-adv-x="354" d="M51 86q0 19 5.5 46.5t17 63t21.5 64.5t28 72.5t26.5 65t27 63.5t20.5 47q30 75 21 122.5t-48 49.5q-30 0 -49 -22t-21 -46q-3 -23 -17 -23t-13 25q3 39 40.5 64t82.5 22q47 -2 78 -24.5t32 -67.5q0 -14 -4.5 -33.5t-9 -34t-14.5 -42t-15 -41.5q-9 -26 -30.5 -81.5 t-35.5 -93t-29.5 -82t-23.5 -75t-8 -45.5q0 -34 12 -52t29 -20t37 2.5t34.5 11t23.5 11.5q2 2 3 2q30 22 33 9q1 -6 -6 -13q-57 -42 -115 -45q-19 -1 -38.5 2t-42.5 12.5t-37.5 31.5t-14.5 54zM147 827q7 31 33 42q11 6 23 3q27 -6 18 -40q-7 -32 -33 -42q-10 -4 -20 -2 q-28 6 -21 39zM294 827q6 31 32 43q11 4 22 2q20 -5 20.5 -28t-16 -42t-37.5 -14q-28 6 -21 39z" />
<glyph unicode="&#xf1;" horiz-adv-x="774" d="M-10 12q16 39 74 190t88 240q25 72 34 128.5t-1 88.5t-38 31q-50 -1 -72.5 -35t-17.5 -71q1 -17 -7.5 -22.5t-18 1t-11.5 19.5q-8 46 39 85.5t111 39.5q48 0 77.5 -25.5t28.5 -73.5q-2 -30 -22 -89t-52.5 -138t-41.5 -105q-28 -82 -19 -80q2 1 6 9q41 71 69.5 116 t85.5 126.5t118 140.5t121 90q78 38 130 16t50 -84q-1 -22 -9 -54.5t-16.5 -57t-25.5 -71t-25 -67.5q-57 -172 -68.5 -248t17.5 -83q58 -22 104 24q17 15 24 6q2 -2 -1 -6q-11 -17 -42 -37.5t-67 -21.5q-49 -3 -80 19t-34 67q-2 35 20.5 109.5t49 148.5t45.5 146t8 118.5 t-62 48.5q-45 2 -126 -82.5t-154 -189.5t-138 -215q-22 -37 -42.5 -78.5t-31.5 -65t-14 -26.5q-12 -14 -43 -8q-30 6 -20 26zM225 758q17 60 42 90t59 31.5t65 -6.5t78 -23.5t78 -20.5q29 -4 50 -0.5t34.5 16.5t18.5 20.5t14 25.5q3 5 9 -2q3 -4 1 -10q-22 -59 -49 -88 t-60.5 -30t-63 7t-74 24t-75.5 21q-12 2 -23 2t-19.5 -1t-16.5 -4.5t-13.5 -6t-11 -8.5t-9 -9.5t-7.5 -10t-6 -10t-5.5 -11t-4.5 -9.5q-3 -5 -9 3q-3 5 -2 10z" />
<glyph unicode="&#xf2;" d="M0 221q1 86 29.5 170.5t78.5 153.5t127 112t166 43q120 0 191.5 -72.5t71.5 -193.5q1 -113 -54 -217.5t-154 -170t-214 -64.5q-242 0 -242 239zM68 293q0 -119 61 -198t156 -79q112 0 190.5 86t97.5 226q17 135 -45 231t-168 96q-72 0 -129 -31.5t-91.5 -84.5t-52.5 -116 t-19 -130zM292 1007q18 23 44 9q15 -8 24 -27q15 -34 15 -88q0 -34 8.5 -56.5t19 -30t21 -14.5t12.5 -14q0 -2 -3 -5.5t-7 -2.5q-25 6 -62 37t-61 78q-40 77 -11 114z" />
<glyph unicode="&#xf3;" d="M0 221q1 86 29.5 170.5t78.5 153.5t127 112t166 43q120 0 191.5 -72.5t71.5 -193.5q1 -113 -54 -217.5t-154 -170t-214 -64.5q-242 0 -242 239zM68 293q0 -119 61 -198t156 -79q112 0 190.5 86t97.5 226q17 135 -45 231t-168 96q-72 0 -129 -31.5t-91.5 -84.5t-52.5 -116 t-19 -130zM467 786q2 7 12 14t20 14.5t18.5 30t8.5 56.5q0 57 17 88q17 35 45 32q28 -4 33 -39q5 -37 -21 -89q-23 -47 -61 -78t-62 -37q-3 -1 -5.5 0.5t-4 4t-0.5 3.5z" />
<glyph unicode="&#xf4;" d="M0 221q1 86 29.5 170.5t78.5 153.5t127 112t166 43q120 0 191.5 -72.5t71.5 -193.5q1 -113 -54 -217.5t-154 -170t-214 -64.5q-242 0 -242 239zM68 293q0 -119 61 -198t156 -79q112 0 190.5 86t97.5 226q17 135 -45 231t-168 96q-72 0 -129 -31.5t-91.5 -84.5t-52.5 -116 t-19 -130zM295 786q78 74 122 127t81 119h32q7 -154 66 -258l-16 -10q-78 87 -107 147q-16 -15 -39 -37.5t-29.5 -28.5t-23 -19.5t-33 -24t-45.5 -29.5z" />
<glyph unicode="&#xf5;" d="M0 221q1 86 29.5 170.5t78.5 153.5t127 112t166 43q120 0 191.5 -72.5t71.5 -193.5q1 -113 -54 -217.5t-154 -170t-214 -64.5q-242 0 -242 239zM68 293q0 -119 61 -198t156 -79q112 0 190.5 86t97.5 226q17 135 -45 231t-168 96q-72 0 -129 -31.5t-91.5 -84.5t-52.5 -116 t-19 -130zM221 758q17 60 42 90t59 31.5t65 -6.5t78 -23.5t78 -20.5q29 -4 49.5 -0.5t34 16.5t18 20.5t14.5 25.5q3 5 9 -2q4 -4 2 -10q-22 -59 -49 -88t-60.5 -30t-63 7t-74 24t-75.5 21q-29 4 -49.5 0t-35 -19.5t-18 -21.5t-14.5 -27q-3 -5 -8 3q-3 5 -2 10z" />
<glyph unicode="&#xf6;" d="M0 221q1 86 29.5 170.5t78.5 153.5t127 112t166 43q120 0 191.5 -72.5t71.5 -193.5q1 -113 -54 -217.5t-154 -170t-214 -64.5q-242 0 -242 239zM68 293q0 -119 61 -198t156 -79q112 0 190.5 86t97.5 226q17 135 -45 231t-168 96q-72 0 -129 -31.5t-91.5 -84.5t-52.5 -116 t-19 -130zM331 827q7 31 33 42q11 6 23 3q27 -6 18 -40q-7 -32 -33 -42q-10 -4 -20 -2q-28 6 -21 39zM478 827q7 31 32 43q11 4 22 2q20 -5 21 -28t-15.5 -42t-37.5 -14q-28 6 -22 39z" />
<glyph unicode="&#xf7;" horiz-adv-x="1228" d="M434 317v70h705v-70h-705zM711 61q0 31 22 53.5t53 22.5t53.5 -22.5t22.5 -53.5t-22.5 -53t-53.5 -22t-53 22t-22 53zM711 643q0 31 22 53.5t53 22.5t53.5 -22.5t22.5 -53.5t-22.5 -53.5t-53.5 -22.5t-53 22.5t-22 53.5z" />
<glyph unicode="&#xf8;" d="M0 -113q69 84 129 154q-61 58 -61 180q0 86 28.5 171t78.5 153.5t127 111.5t167 43q102 0 166 -49l160 193l16 -15l-160 -192q80 -77 80 -203q1 -113 -54 -217.5t-154 -170t-214 -64.5q-103 0 -164 45l-69 -82l-62 -74zM135 293q0 -109 51 -182l392 471q-60 73 -150 73 q-72 0 -129 -31.5t-91.5 -84.5t-53 -116t-19.5 -130zM199 92q60 -76 153 -76q112 0 192 86t97 226q18 141 -49 237z" />
<glyph unicode="&#xf9;" horiz-adv-x="727" d="M-2.5 85q3.5 41 14.5 89q13 50 57 158.5t56 142.5q20 58 30.5 93t13.5 60.5t-4 35.5t-24 10q-36 -1 -61.5 -27t-22.5 -55q1 -15 -6 -21t-15.5 -0.5t-10.5 17.5q-8 41 43 77.5t100 36.5q77 0 74 -88q-1 -24 -18 -76.5t-35 -99t-51.5 -130.5t-47.5 -120 q-14 -35 -15.5 -75.5t15 -71.5t51.5 -31q108 2 265 246q30 47 87.5 151.5t96 177t47.5 91.5q10 18 60 24q38 2 36 -10q-3 -4 -43 -115t-89 -245.5t-64 -173.5q-12 -32 -14 -57t2 -40t16 -26t20.5 -15.5t25.5 -7t20.5 -2.5h13.5q12 1 17 -2t1.5 -7.5t-14.5 -8.5 q-17 -5 -43.5 -7t-61.5 8t-53 36q-11 15 -16 33.5t-3 42.5t5 43.5t13 51t16 48.5t19.5 52t18.5 48l70 195q-15 -23 -47 -82t-62.5 -117.5t-75.5 -126.5t-89 -118.5t-100 -83t-110 -29.5q-59 3 -85.5 31.5t-23 69.5zM292 1007q18 23 44 9q15 -8 24 -27q15 -34 15 -88 q0 -34 8.5 -56.5t19 -30t21 -14.5t12.5 -14q0 -2 -3 -5.5t-7 -2.5q-25 6 -62 37t-61 78q-40 77 -11 114z" />
<glyph unicode="&#xfa;" horiz-adv-x="727" d="M-2.5 85q3.5 41 14.5 89q13 50 57 158.5t56 142.5q20 58 30.5 93t13.5 60.5t-4 35.5t-24 10q-36 -1 -61.5 -27t-22.5 -55q1 -15 -6 -21t-15.5 -0.5t-10.5 17.5q-8 41 43 77.5t100 36.5q77 0 74 -88q-1 -24 -18 -76.5t-35 -99t-51.5 -130.5t-47.5 -120 q-14 -35 -15.5 -75.5t15 -71.5t51.5 -31q108 2 265 246q30 47 87.5 151.5t96 177t47.5 91.5q10 18 60 24q38 2 36 -10q-3 -4 -43 -115t-89 -245.5t-64 -173.5q-12 -32 -14 -57t2 -40t16 -26t20.5 -15.5t25.5 -7t20.5 -2.5h13.5q12 1 17 -2t1.5 -7.5t-14.5 -8.5 q-17 -5 -43.5 -7t-61.5 8t-53 36q-11 15 -16 33.5t-3 42.5t5 43.5t13 51t16 48.5t19.5 52t18.5 48l70 195q-15 -23 -47 -82t-62.5 -117.5t-75.5 -126.5t-89 -118.5t-100 -83t-110 -29.5q-59 3 -85.5 31.5t-23 69.5zM457 786q2 7 12 14t20 14.5t18.5 30t8.5 56.5q0 59 16 88 q17 35 46 32q27 -4 33 -39q5 -37 -21 -89q-23 -47 -61 -78t-62 -37q-3 -1 -5.5 0.5t-4 4t-0.5 3.5z" />
<glyph unicode="&#xfb;" horiz-adv-x="727" d="M-2.5 85q3.5 41 14.5 89q13 50 57 158.5t56 142.5q20 58 30.5 93t13.5 60.5t-4 35.5t-24 10q-36 -1 -61.5 -27t-22.5 -55q1 -15 -6 -21t-15.5 -0.5t-10.5 17.5q-8 41 43 77.5t100 36.5q77 0 74 -88q-1 -24 -18 -76.5t-35 -99t-51.5 -130.5t-47.5 -120 q-14 -35 -15.5 -75.5t15 -71.5t51.5 -31q108 2 265 246q30 47 87.5 151.5t96 177t47.5 91.5q10 18 60 24q38 2 36 -10q-3 -4 -43 -115t-89 -245.5t-64 -173.5q-12 -32 -14 -57t2 -40t16 -26t20.5 -15.5t25.5 -7t20.5 -2.5h13.5q12 1 17 -2t1.5 -7.5t-14.5 -8.5 q-17 -5 -43.5 -7t-61.5 8t-53 36q-11 15 -16 33.5t-3 42.5t5 43.5t13 51t16 48.5t19.5 52t18.5 48l70 195q-15 -23 -47 -82t-62.5 -117.5t-75.5 -126.5t-89 -118.5t-100 -83t-110 -29.5q-59 3 -85.5 31.5t-23 69.5zM315 786q78 74 122 127t81 119h33q7 -156 65 -258l-16 -10 q-76 84 -106 147q-16 -15 -39 -37.5t-29.5 -28.5t-23 -19.5t-33 -24t-45.5 -29.5z" />
<glyph unicode="&#xfc;" horiz-adv-x="727" d="M-2.5 85q3.5 41 14.5 89q13 50 57 158.5t56 142.5q20 58 30.5 93t13.5 60.5t-4 35.5t-24 10q-36 -1 -61.5 -27t-22.5 -55q1 -15 -6 -21t-15.5 -0.5t-10.5 17.5q-8 41 43 77.5t100 36.5q77 0 74 -88q-1 -24 -18 -76.5t-35 -99t-51.5 -130.5t-47.5 -120 q-14 -35 -15.5 -75.5t15 -71.5t51.5 -31q108 2 265 246q30 47 87.5 151.5t96 177t47.5 91.5q10 18 60 24q38 2 36 -10q-3 -4 -43 -115t-89 -245.5t-64 -173.5q-12 -32 -14 -57t2 -40t16 -26t20.5 -15.5t25.5 -7t20.5 -2.5h13.5q12 1 17 -2t1.5 -7.5t-14.5 -8.5 q-17 -5 -43.5 -7t-61.5 8t-53 36q-11 15 -16 33.5t-3 42.5t5 43.5t13 51t16 48.5t19.5 52t18.5 48l70 195q-15 -23 -47 -82t-62.5 -117.5t-75.5 -126.5t-89 -118.5t-100 -83t-110 -29.5q-59 3 -85.5 31.5t-23 69.5zM362 827q7 31 33 42q11 6 23 3q27 -6 18 -40 q-7 -32 -33 -42q-10 -4 -20 -2q-28 6 -21 39zM509 827q6 31 32 43q11 4 22 2q20 -5 20.5 -28t-16 -42t-37.5 -14q-28 6 -21 39z" />
<glyph unicode="&#xfd;" horiz-adv-x="612" d="M-1239 -481q-3 131 61 229t140 123q22 8 30 -1t-14 -17q-21 -7 -46 -26.5t-52 -52t-44.5 -83.5t-17.5 -109q0 -54 16 -107.5t52.5 -106.5t90 -93t135.5 -65t181 -25q181 0 363 81t316.5 205.5t221 278.5t93.5 297q6 140 -18.5 270t-78 212.5t-122.5 74.5q-53 -6 -31 -86 q7 -20 -8.5 -21.5t-22.5 14.5q-1 3 -2 7q-10 60 23.5 103t85.5 43q53 0 98.5 -41.5t73.5 -108t46.5 -151t19 -171t-10.5 -167.5q-2 -16 8 -12q23 8 67 83q88 150 107 328q13 126 -24 207t-107 84q-15 0 -21 11q-3 7 7 9q49 12 88.5 -6.5t62 -56.5t34 -82.5t11.5 -89.5 q0 -62 -22 -151.5t-63 -197.5t-105.5 -223t-144.5 -227t-185 -212.5t-221.5 -177t-260 -121t-294.5 -44.5q-235 0 -373 102t-143 271zM236 786q2 7 12 14t20 14.5t18.5 30t8.5 56.5q0 57 14 88q18 35 47 32q27 -4 32 -39q5 -37 -21 -89q-24 -47 -60.5 -78t-60.5 -37 q-3 -1 -5.5 0.5t-4 4t-0.5 3.5z" />
<glyph unicode="&#xff;" horiz-adv-x="612" d="M-1239 -481q-3 131 61 229t140 123q22 8 30 -1t-14 -17q-21 -7 -46 -26.5t-52 -52t-44.5 -83.5t-17.5 -109q0 -54 16 -107.5t52.5 -106.5t90 -93t135.5 -65t181 -25q181 0 363 81t316.5 205.5t221 278.5t93.5 297q6 140 -18.5 270t-78 212.5t-122.5 74.5q-53 -6 -31 -86 q7 -20 -8.5 -21.5t-22.5 14.5q-1 3 -2 7q-10 60 23.5 103t85.5 43q53 0 98.5 -41.5t73.5 -108t46.5 -151t19 -171t-10.5 -167.5q-2 -16 8 -12q23 8 67 83q88 150 107 328q13 126 -24 207t-107 84q-15 0 -21 11q-3 7 7 9q49 12 88.5 -6.5t62 -56.5t34 -82.5t11.5 -89.5 q0 -62 -22 -151.5t-63 -197.5t-105.5 -223t-144.5 -227t-185 -212.5t-221.5 -177t-260 -121t-294.5 -44.5q-235 0 -373 102t-143 271zM229 827q7 31 33 42q11 6 23 3q27 -6 18 -40q-7 -32 -33 -42q-10 -4 -20 -2q-28 6 -21 39zM376 827q6 31 32 43q11 4 22 2q20 -5 20.5 -28 t-16 -42t-37.5 -14q-28 6 -21 39z" />
<glyph unicode="&#x152;" horiz-adv-x="2115" d="M-1 589q4 50 1 77q12 171 82 319.5t179 250.5t251 160t295 58q74 0 150.5 -25t149 -74t130 -133.5t82.5 -191.5l12 12q27 29 28.5 58t-14.5 84t-20 90q-13 103 67.5 185.5t172.5 80.5q40 -1 71 -16t48 -34.5t28 -43t14 -39t3 -25.5q0 -69 -46 -112q-20 -14 -25 -7 q-2 2 1 7q10 19 13.5 46.5t-1.5 58t-19 56.5t-44.5 43t-73.5 17q-57 0 -97 -43t-40 -113q0 -45 15 -108t15 -70q0 -67 -81 -139l-21 -19q10 -56 10 -143q-3 -143 -63.5 -307.5t-165.5 -298.5q56 -116 163.5 -189t260.5 -73q94 0 177 34.5t147 98.5t101.5 164t37.5 223 q0 168 -82.5 252t-210.5 84q-114 0 -193 -85.5t-88 -219.5q-6 -81 48 -150.5t110 -71.5q5 -1 7.5 -3t1 -4.5t-8.5 -4.5q-91 -25 -164.5 50t-73.5 204q0 120 116.5 212.5t268.5 92.5q148 0 255.5 -110t107.5 -252q0 -111 -47.5 -213t-125.5 -174t-179.5 -115t-206.5 -43 q-36 0 -92 9.5t-130.5 31t-149 66.5t-122.5 106q-209 -209 -479 -209q-115 0 -207.5 32.5t-148.5 86t-99.5 121t-60.5 137t-30.5 135.5t-9.5 116zM90 641q-2 -57 4 -116.5t22 -123.5t41 -122.5t64 -111t87.5 -91t115.5 -61.5t145 -23q122 -1 234 57.5t203 163.5 q-48 84 -48 184q0 311 277 561q-23 231 -137.5 341t-321.5 110q-133 0 -253.5 -51.5t-215 -147t-153 -243t-64.5 -326.5zM1057 463q0 -73 24 -150q73 113 114 245.5t44 264.5q0 55 -2 82q-180 -217 -180 -442z" />
<glyph unicode="&#x153;" horiz-adv-x="1161" d="M0 221q1 86 29.5 170.5t78.5 153.5t127 112t166 43q103 0 171 -55t85 -151q62 91 145.5 148t172.5 58q46 2 75.5 -24t28.5 -70q-1 -50 -37.5 -105t-87.5 -98t-117 -85t-113 -66.5t-87 -42.5q16 -85 82 -137t131 -52q137 0 244 93q20 18 33 10q5 -4 1 -10 q-7 -9 -28.5 -25.5t-60 -41.5t-96.5 -42.5t-118 -17.5q-121 0 -184 45t-78 116q-61 -76 -144 -120.5t-177 -44.5q-242 3 -242 239zM68 293q0 -119 61 -198t156 -79q112 0 190.5 86t97.5 226q17 135 -45 231t-168 96q-72 0 -129 -31.5t-91.5 -84.5t-52.5 -116t-19 -130z M637 262q0 -21 2 -31q53 25 103.5 55.5t109.5 74t97 96t42 104.5q6 69 -37.5 88t-99.5 -20q-87 -58 -150 -155.5t-67 -211.5z" />
<glyph unicode="&#x178;" horiz-adv-x="1484" d="M6 -201q0 66 26 124.5t62.5 94.5t69.5 57.5t53 24.5q16 3 14 -6q0 -7 -12 -12q-23 -8 -43.5 -23t-43.5 -42.5t-36.5 -74.5t-13.5 -108q0 -62 23.5 -115t62 -89t88.5 -61.5t102.5 -37.5t104.5 -12q145 0 268 108t197 273q93 212 82 489q-4 119 -12.5 206t-28 192.5 t-56.5 213.5t-94 226q-77 158 -176 236.5t-190 78.5q-81 0 -132 -66t-51 -161q0 -39 8.5 -71.5t20.5 -50.5t24 -31t19 -18.5t6 -6.5q-11 -11 -29 -11q-44 0 -78 42t-34 128q0 62 24 113.5t61 83.5t83 54t87.5 31t76.5 9q87 0 165 -57t134.5 -150t102.5 -208.5t74 -236.5 t43 -229t15 -192q0 -71 -6 -143t-15.5 -128.5t-18 -98.5t-16.5 -75t-9 -36q-7 -29 3 -32q5 -1 9 7q17 31 39 75t39.5 80.5t46.5 101t44 98.5t50 113t47 106q42 94 69 151t71.5 147.5t84 155t89 139.5t105 137t114.5 113q86 74 170 119t147 45q57 0 57 -55q0 -27 -16 -38 q-11 -5 -18 7q-6 11 -11.5 18t-23.5 13.5t-45 5.5q-37 -1 -78 -22t-81 -54.5t-85.5 -87.5t-85.5 -108.5t-89 -132t-88 -144.5t-89 -158.5t-86.5 -160.5t-85.5 -164q-28 -55 -90.5 -179t-103.5 -200.5t-85 -148.5q-82 -137 -109 -175q-232 -337 -522 -337q-91 0 -167 27.5 t-125 74t-76 106t-27 123.5zM1214 1548q6 31 32 43q11 4 22 2q28 -6 20 -40q-7 -32 -32 -42q-11 -4 -21 -2q-28 6 -21 39zM1360 1548q6 32 33 43q11 4 22 2q27 -6 18 -40q-7 -32 -33 -42q-10 -4 -20 -2q-27 6 -20 39z" />
<glyph unicode="&#x2c6;" horiz-adv-x="454" d="M274 907q80 75 124 128t81 118h33q7 -155 63 -260l-16 -10q-77 86 -104 149q-13 -12 -34 -32.5t-26.5 -25.5t-19 -17t-24.5 -19t-27 -18t-41 -27z" />
<glyph unicode="&#x2dc;" horiz-adv-x="454" d="M168 938q0 55 39 101t112 46q35 0 132 -38q99 -39 143 -39q42 0 74 22t32 49q0 19 15 19q10 0 10 -13q0 -62 -46 -111t-112 -40q-46 0 -143 37q-93 37 -137 37q-34 0 -57 -22.5t-35 -45t-19 -22.5q-8 0 -8 20z" />
<glyph unicode="&#x2000;" horiz-adv-x="1064" />
<glyph unicode="&#x2001;" horiz-adv-x="2128" />
<glyph unicode="&#x2002;" horiz-adv-x="1064" />
<glyph unicode="&#x2003;" horiz-adv-x="2128" />
<glyph unicode="&#x2004;" horiz-adv-x="709" />
<glyph unicode="&#x2005;" horiz-adv-x="532" />
<glyph unicode="&#x2006;" horiz-adv-x="354" />
<glyph unicode="&#x2007;" horiz-adv-x="354" />
<glyph unicode="&#x2008;" horiz-adv-x="266" />
<glyph unicode="&#x2009;" horiz-adv-x="425" />
<glyph unicode="&#x200a;" horiz-adv-x="118" />
<glyph unicode="&#x2010;" d="M152 324l22 57h473l-24 -57h-471z" />
<glyph unicode="&#x2011;" d="M152 324l22 57h473l-24 -57h-471z" />
<glyph unicode="&#x2012;" d="M152 324l22 57h473l-24 -57h-471z" />
<glyph unicode="&#x2013;" horiz-adv-x="1024" d="M12 324l25 57h983l-25 -57h-983z" />
<glyph unicode="&#x2014;" horiz-adv-x="2048" d="M12 324l25 57h2007l-25 -57h-2007z" />
<glyph unicode="&#x2018;" horiz-adv-x="454" d="M313 924q4 70 51.5 129t120.5 98q18 10 8 -11l-10 -16q-31 -23 -62 -65.5t-38 -85.5q60 19 83 -27q19 -38 -2 -79q-24 -46 -77 -42q-36 3 -56 32.5t-18 66.5z" />
<glyph unicode="&#x2019;" horiz-adv-x="245" d="M147 890l9 15q31 24 62 66t38 84q-60 -19 -83 26q-19 38 2 80q24 46 77 43q36 -3 56 -32.5t18 -67.5q-4 -69 -51.5 -127.5t-120.5 -99.5q-19 -10 -7 13z" />
<glyph unicode="&#x201a;" horiz-adv-x="454" d="M108 -177l11 23q29 25 57.5 70t32.5 88q-59 -23 -85 21q-22 37 -2 81q21 46 73 46q36 0 57.5 -28.5t21.5 -66.5q0 -71 -42 -132.5t-113 -104.5q-15 -9 -11 3z" />
<glyph unicode="&#x201c;" horiz-adv-x="796" d="M297 924q4 70 50.5 128t121.5 99q18 9 8 -12l-10 -17q-31 -24 -62 -65.5t-38 -83.5q60 19 83 -26q19 -38 -3 -80q-24 -45 -76 -42q-37 3 -57 32.5t-17 66.5zM641 924q4 70 50.5 128t121.5 99q17 9 7 -12l-9 -17q-32 -24 -63.5 -65.5t-38.5 -83.5q61 19 84 -26 q19 -38 -3 -80q-24 -45 -77 -42q-36 3 -55.5 32.5t-16.5 66.5z" />
<glyph unicode="&#x201d;" horiz-adv-x="796" d="M302 890l9 15q31 24 62.5 66t38.5 84q-60 -19 -83 26q-19 38 2 80q24 46 77 43q37 -3 56.5 -33t16.5 -67q-4 -69 -51 -128t-121 -99q-19 -10 -7 13zM644 890l9 15q32 24 64 66t39 84q-60 -19 -83 26q-19 38 2 80q24 46 77 43q37 -3 56.5 -33t16.5 -67 q-4 -69 -51.5 -127.5t-122.5 -99.5q-17 -10 -7 13z" />
<glyph unicode="&#x2022;" horiz-adv-x="1024" d="M537 717q0 98 68.5 167.5t166.5 69.5t168 -69.5t70 -167.5t-70 -167t-168 -69t-166.5 69t-68.5 167z" />
<glyph unicode="&#x2026;" horiz-adv-x="2048" d="M291 76q0 31 22.5 53.5t53.5 22.5t53 -22.5t22 -53.5t-22 -53.5t-53 -22.5t-53.5 22.5t-22.5 53.5zM932 76q0 31 22.5 53.5t53.5 22.5t53 -22.5t22 -53.5t-22 -53.5t-53 -22.5t-53.5 22.5t-22.5 53.5zM1614 76q0 31 22.5 53.5t53.5 22.5t53 -22.5t22 -53.5t-22 -53.5 t-53 -22.5t-53.5 22.5t-22.5 53.5z" />
<glyph unicode="&#x202f;" horiz-adv-x="425" />
<glyph unicode="&#x2039;" horiz-adv-x="659" d="M139 338q75 40 169 110.5t153 126.5l10 -14q-46 -56 -116 -124t-119 -101q47 -74 124 -236l-14 -6q-31 50 -89 118.5t-118 125.5z" />
<glyph unicode="&#x203a;" d="M190 109q49 56 118.5 123.5t117.5 99.5q-54 88 -125 237l14 6q68 -109 207 -245q-75 -40 -168.5 -110t-152.5 -126z" />
<glyph unicode="&#x205f;" horiz-adv-x="532" />
<glyph unicode="&#x20ac;" horiz-adv-x="1554" d="M-82 598l25 37h209q5 41 18 90h-176l20 37h168q32 103 86 198t134 179.5t177 147t222 99.5t262 39q78 1 150 -16.5t125.5 -60t56.5 -101.5q0 -19 -8 -21q-3 -1 -4 3q-1 1 -1 2q-5 43 -55.5 79t-122.5 54.5t-143 15.5q-118 -4 -227 -40t-195 -94t-158 -136t-121.5 -165.5 t-80.5 -182.5h503l-20 -37h-496q-13 -49 -18 -90h450l-22 -37h-434q-14 -120 9.5 -226.5t83 -191t167 -134t250.5 -48.5q136 0 235.5 26.5t194.5 73.5q12 6 11 0q-2 -11 -24 -25q-3 -1 -6 -3q-204 -109 -501 -111q-115 -1 -208.5 33t-155.5 94t-101 141.5t-51.5 175.5 t-0.5 195h-227zM145 598q1 6 3.5 18.5t3.5 18.5h96q-1 -6 -3 -18.5t-3 -18.5h-97z" />
<glyph unicode="&#x25fc;" horiz-adv-x="706" d="M0 0v707h707v-707h-707z" />
</font>
</defs>
</svg>
